<?xml version="1.0" encoding="utf-8"?>
<!-- Generator: Adobe Illustrator 16.0.0, SVG Export Plug-In . SVG Version: 6.00 Build 0)  -->
<!DOCTYPE svg PUBLIC "-//W3C//DTD SVG 1.1//EN" "http://www.w3.org/Graphics/SVG/1.1/DTD/svg11.dtd" [
	<!ENTITY ns_extend "http://ns.adobe.com/Extensibility/1.0/">
	<!ENTITY ns_ai "http://ns.adobe.com/AdobeIllustrator/10.0/">
	<!ENTITY ns_graphs "http://ns.adobe.com/Graphs/1.0/">
	<!ENTITY ns_vars "http://ns.adobe.com/Variables/1.0/">
	<!ENTITY ns_imrep "http://ns.adobe.com/ImageReplacement/1.0/">
	<!ENTITY ns_sfw "http://ns.adobe.com/SaveForWeb/1.0/">
	<!ENTITY ns_custom "http://ns.adobe.com/GenericCustomNamespace/1.0/">
	<!ENTITY ns_adobe_xpath "http://ns.adobe.com/XPath/1.0/">
]>
<svg version="1.1" id="Layer_1" xmlns:x="&ns_extend;" xmlns:i="&ns_ai;" xmlns:graph="&ns_graphs;"
	 xmlns="http://www.w3.org/2000/svg" xmlns:xlink="http://www.w3.org/1999/xlink" x="0px" y="0px" width="730px" height="150px"
	 viewBox="0 0 730 150" enable-background="new 0 0 730 150" xml:space="preserve">
<metadata>
	<sfw  xmlns="&ns_sfw;">
		<slices></slices>
		<sliceSourceBounds  height="144" width="720.768" y="-589" x="2966" bottomLeftOrigin="true"></sliceSourceBounds>
	</sfw>
</metadata>
<g>
</g>
<g>
	<g>
		<polygon fill="#EB743B" points="70.354,2.823 70.354,146.823 131.354,111.823 131.354,37.823 		"/>
		<polygon fill="#20656C" points="65.354,2.823 4.354,37.823 4.354,111.823 65.354,146.823 		"/>
		<g>
			<g opacity="0.07">
				<path d="M87.656,94.557c0.386-0.645,1.066-1.03,1.819-1.03c0.378,0,0.752,0.104,1.078,0.297c1,0.601,1.331,1.899,0.735,2.898
					c-0.385,0.646-1.064,1.032-1.817,1.032c-0.379,0-0.755-0.104-1.084-0.301c-0.483-0.288-0.826-0.748-0.964-1.294
					C87.285,95.61,87.368,95.042,87.656,94.557z M100.259,116.919c-0.49,0.421-1.018,0.509-1.373,0.509
					c-0.621,0-1.207-0.269-1.608-0.734c-0.758-0.885-0.654-2.222,0.231-2.981c0.492-0.423,1.018-0.512,1.373-0.512
					c0.617,0,1.201,0.269,1.605,0.74c0.368,0.43,0.547,0.976,0.504,1.538S100.689,116.551,100.259,116.919z"/>
				<path d="M79.355,48.434c0.07,0.019,0.142,0.034,0.212,0.046C79.495,48.468,79.425,48.452,79.355,48.434z"/>
				<path d="M90.734,58.08c0.169-0.267,0.395-0.49,0.673-0.661c0.335-0.207,0.722-0.316,1.121-0.316c0.4,0,0.79,0.112,1.122,0.321
					c0.987,0.627,1.283,1.936,0.66,2.919c-0.392,0.618-1.063,0.988-1.795,0.988c-0.397,0-0.785-0.113-1.124-0.327
					C90.407,60.38,90.113,59.067,90.734,58.08z M97.113,37.893c-0.6,0.951-1.938,1.271-2.912,0.653l-0.096-0.063
					c-0.914-0.647-1.161-1.897-0.558-2.851c0.386-0.613,1.053-0.98,1.784-0.98c0.397,0,0.787,0.113,1.124,0.326
					c0.479,0.304,0.813,0.775,0.937,1.33C97.515,36.854,97.418,37.415,97.113,37.893z"/>
				<path d="M113.88,49.491c0.388-0.614,1.054-0.98,1.783-0.98c0.399,0,0.79,0.113,1.125,0.325c0.48,0.304,0.813,0.775,0.937,1.33
					c0.122,0.546,0.024,1.106-0.279,1.584c-0.598,0.951-1.938,1.272-2.912,0.653l-0.094-0.063
					C113.522,51.694,113.277,50.444,113.88,49.491z M113.88,72.954c0.388-0.614,1.054-0.98,1.783-0.98
					c0.399,0,0.79,0.112,1.125,0.326c0.48,0.304,0.813,0.774,0.937,1.329c0.122,0.546,0.024,1.107-0.279,1.585
					c-0.598,0.95-1.938,1.271-2.912,0.652l-0.094-0.063C113.522,75.157,113.277,73.907,113.88,72.954z M113.88,99.257
					c0.388-0.613,1.054-0.979,1.783-0.979c0.399,0,0.79,0.112,1.125,0.325c0.48,0.304,0.813,0.775,0.937,1.33
					c0.122,0.547,0.024,1.106-0.279,1.584c-0.598,0.951-1.938,1.271-2.912,0.653l-0.094-0.063
					C113.522,101.46,113.277,100.211,113.88,99.257z"/>
				<path d="M103.53,108.927c-1.165-1.36-2.858-2.139-4.648-2.139c-1.459,0-2.875,0.525-3.983,1.477
					c-1.612,1.383-2.326,3.429-2.087,5.397c-1.948,0.7-4.258,1.365-5.328,1.332c-0.821-0.044-1.302-0.346-2.224-0.972
					c-1.172-0.795-2.418-1.512-4.148-1.847c2.936-2.761,6.009-6.83,8.584-12.834c2.061-0.076,3.976-1.193,5.038-2.972
					c1.725-2.896,0.773-6.659-2.124-8.394c-0.949-0.565-2.032-0.864-3.134-0.864c-2.146,0-4.161,1.144-5.261,2.986
					c-0.838,1.405-1.079,3.05-0.678,4.636c0.351,1.393,1.16,2.59,2.302,3.429c-4.053,9.218-9.219,13.081-12.565,14.685
					c-0.128,0.045-0.248,0.101-0.36,0.168c-1.187,0.531-2.05,0.704-2.559,0.808v4c0.275-0.03,1.885-0.118,4.247-1.192
					c5.348-1.357,6.839-0.354,8.407,0.709c1.021,0.692,2.291,1.554,4.263,1.656c0.1,0.005,0.204,0.008,0.309,0.008
					c2.109,0,5.172-1.022,7.021-1.723c1.144,1.116,2.676,1.75,4.285,1.75l0,0c1.461,0,2.876-0.524,3.983-1.476
					c1.24-1.062,1.993-2.546,2.118-4.176C105.112,111.748,104.595,110.165,103.53,108.927z M87.656,92.151
					c0.386-0.645,1.066-1.03,1.819-1.03c0.378,0,0.752,0.104,1.078,0.297c1,0.601,1.331,1.899,0.735,2.898
					c-0.385,0.646-1.064,1.032-1.817,1.032c-0.379,0-0.755-0.104-1.084-0.301c-0.483-0.288-0.826-0.748-0.964-1.294
					C87.285,93.205,87.368,92.637,87.656,92.151z M100.259,114.514c-0.49,0.421-1.018,0.509-1.373,0.509
					c-0.621,0-1.207-0.269-1.608-0.734c-0.758-0.885-0.654-2.222,0.231-2.981c0.492-0.423,1.018-0.512,1.373-0.512
					c0.617,0,1.201,0.269,1.605,0.74c0.368,0.43,0.547,0.976,0.504,1.538S100.689,114.146,100.259,114.514z"/>
				<path d="M79.355,46.028c0.07,0.019,0.142,0.034,0.212,0.046C79.495,46.063,79.425,46.047,79.355,46.028z"/>
				<path d="M101.305,33.027c-0.357-1.599-1.317-2.964-2.708-3.844c-0.98-0.617-2.109-0.944-3.265-0.944
					c-2.117,0-4.053,1.066-5.174,2.85c-1.354,2.138-1.218,4.799,0.144,6.759c-3.646,4.124-8.706,4.313-9.942,4.293
					c-3.692-1.604-7.234-2.164-10.005-2.317v3.996c2.441,0.144,5.553,0.686,8.748,2.136c0.005,0.002,0.01,0.002,0.015,0.005
					c3.445,1.563,6.334,3.928,8.607,7.041c-0.136,0.173-0.265,0.352-0.382,0.538c-1.796,2.854-0.942,6.644,1.903,8.444
					c0.98,0.622,2.111,0.951,3.27,0.951c2.113,0,4.051-1.065,5.183-2.852c1.806-2.851,0.951-6.642-1.908-8.453
					c-1.384-0.871-3.092-1.113-4.667-0.755c-1.538-2.154-3.323-4.017-5.345-5.566c2.517-0.778,5.401-2.269,7.78-5.096
					c0.572,0.172,1.166,0.267,1.77,0.267c2.116,0,4.051-1.068,5.172-2.849C101.375,36.256,101.661,34.622,101.305,33.027z
					 M90.734,55.675c0.169-0.267,0.395-0.49,0.673-0.661c0.335-0.207,0.722-0.316,1.121-0.316c0.4,0,0.79,0.112,1.122,0.321
					c0.987,0.627,1.283,1.936,0.66,2.919c-0.392,0.618-1.063,0.988-1.795,0.988c-0.397,0-0.785-0.113-1.124-0.327
					C90.407,57.975,90.113,56.662,90.734,55.675z M97.113,35.487c-0.6,0.951-1.938,1.271-2.912,0.653l-0.096-0.063
					c-0.914-0.647-1.161-1.897-0.558-2.851c0.386-0.613,1.053-0.98,1.784-0.98c0.397,0,0.787,0.113,1.124,0.326
					c0.479,0.304,0.813,0.775,0.937,1.33C97.515,34.449,97.418,35.01,97.113,35.487z"/>
				<path d="M110,74.011c0.425,1.035,1.136,1.962,2.109,2.649c0.072,0.052,0.151,0.105,0.283,0.191
					c0.981,0.621,2.11,0.949,3.268,0.949c2.116,0,4.052-1.068,5.173-2.849c0.875-1.375,1.16-3.01,0.805-4.604
					c-0.358-1.598-1.318-2.964-2.709-3.844c-0.98-0.617-2.109-0.944-3.266-0.944c-0.125,0-0.25,0.008-0.375,0.018
					c-0.71-3.157-0.919-7.769,0.035-11.265c0.112,0.011,0.225,0.024,0.337,0.024c2.116,0,4.052-1.067,5.173-2.849
					c0.875-1.375,1.16-3.009,0.805-4.604c-0.358-1.599-1.318-2.964-2.709-3.844c-0.98-0.617-2.109-0.944-3.266-0.944
					c-2.114,0-4.051,1.066-5.173,2.85c-1.604,2.532-1.12,5.804,1.024,7.765c0.021,0.02,0.048,0.037,0.071,0.059
					c-1.349,4.518-1.146,10.324-0.036,14.417c-0.144,0.132-0.294,0.254-0.426,0.399c-0.229,0.255-0.445,0.526-0.634,0.824
					c-0.318,0.502-0.551,1.033-0.71,1.578c-3.371,0.488-5.198,1.671-6.824,2.729c-2.035,1.324-3.961,2.572-9.636,2.665
					c-1.964-0.23-3.553-0.177-5.29-0.116c-1.431,0.052-2.91,0.106-4.849,0.003c-1.335-0.071-2.104-0.882-3.458-2.424
					c-1.803-2.055-4.219-4.648-9.369-5.022v4c3.295,0.3,4.796,1.888,6.356,3.667c1.487,1.694,3.175,3.615,6.256,3.782
					c2.118,0.114,3.76,0.052,5.208,0.001c2.491-0.092,4.453-0.161,7.855,0.684c2.607,0.643,12.099,9.673,14.773,14.322
					c-0.108,0.142-0.219,0.282-0.313,0.434c-1.743,2.755-1.026,6.385,1.619,8.251c0.072,0.052,0.151,0.104,0.283,0.191
					c0.981,0.621,2.11,0.948,3.268,0.948c2.116,0,4.052-1.068,5.173-2.849c0.875-1.374,1.16-3.009,0.805-4.603
					c-0.358-1.6-1.318-2.965-2.709-3.845c-0.98-0.617-2.109-0.944-3.266-0.944c-0.528,0-1.047,0.067-1.543,0.195
					c-2.561-4.187-8.652-10.455-13.189-13.792c1.813-0.628,3.05-1.435,4.212-2.188C106.57,75.148,107.757,74.388,110,74.011z
					 M113.88,47.086c0.388-0.614,1.054-0.98,1.783-0.98c0.399,0,0.79,0.113,1.125,0.325c0.48,0.304,0.813,0.775,0.937,1.33
					c0.122,0.546,0.024,1.106-0.279,1.584c-0.598,0.951-1.938,1.272-2.912,0.653l-0.094-0.063
					C113.522,49.289,113.277,48.039,113.88,47.086z M113.88,70.549c0.388-0.614,1.054-0.98,1.783-0.98
					c0.399,0,0.79,0.112,1.125,0.326c0.48,0.304,0.813,0.774,0.937,1.329c0.122,0.546,0.024,1.107-0.279,1.585
					c-0.598,0.95-1.938,1.271-2.912,0.652l-0.094-0.063C113.522,72.752,113.277,71.502,113.88,70.549z M113.88,96.852
					c0.388-0.613,1.054-0.979,1.783-0.979c0.399,0,0.79,0.112,1.125,0.325c0.48,0.304,0.813,0.775,0.937,1.33
					c0.122,0.547,0.024,1.106-0.279,1.584c-0.598,0.951-1.938,1.271-2.912,0.653l-0.094-0.063
					C113.522,99.055,113.277,97.806,113.88,96.852z"/>
			</g>
			<g>
				<g>
					<path fill="#D3562C" d="M103.53,111.927c-1.165-1.36-2.858-2.139-4.648-2.139c-1.459,0-2.875,0.525-3.983,1.477
						c-1.612,1.383-2.326,3.429-2.087,5.397c-1.948,0.7-4.258,1.365-5.328,1.332c-0.821-0.044-1.302-0.346-2.224-0.972
						c-1.172-0.795-2.418-1.512-4.148-1.847c2.936-2.761,6.009-6.83,8.584-12.834c2.061-0.076,3.976-1.193,5.038-2.972
						c1.725-2.896,0.773-6.659-2.124-8.394c-0.949-0.565-2.032-0.864-3.134-0.864c-2.146,0-4.161,1.144-5.261,2.986
						c-0.838,1.405-1.079,3.05-0.678,4.636c0.351,1.393,1.16,2.59,2.302,3.429c-4.053,9.218-9.219,13.081-12.565,14.685
						c-0.128,0.045-0.248,0.101-0.36,0.168c-1.187,0.531-2.05,0.704-2.559,0.808v4c0.275-0.03,1.885-0.118,4.247-1.192
						c5.348-1.357,6.839-0.354,8.407,0.709c1.021,0.692,2.291,1.554,4.263,1.656c0.1,0.005,0.204,0.008,0.309,0.008
						c2.109,0,5.172-1.022,7.021-1.723c1.144,1.116,2.676,1.75,4.285,1.75l0,0c1.461,0,2.876-0.524,3.983-1.476
						c1.24-1.062,1.993-2.546,2.118-4.176C105.112,114.748,104.595,113.165,103.53,111.927z M87.656,95.151
						c0.386-0.645,1.066-1.03,1.819-1.03c0.378,0,0.752,0.104,1.078,0.297c1,0.601,1.331,1.899,0.735,2.898
						c-0.385,0.646-1.064,1.032-1.817,1.032c-0.379,0-0.755-0.104-1.084-0.301c-0.483-0.288-0.826-0.748-0.964-1.294
						C87.285,96.205,87.368,95.637,87.656,95.151z M100.259,117.514c-0.49,0.421-1.018,0.509-1.373,0.509
						c-0.621,0-1.207-0.269-1.608-0.734c-0.758-0.885-0.654-2.222,0.231-2.981c0.492-0.423,1.018-0.512,1.373-0.512
						c0.617,0,1.201,0.269,1.605,0.74c0.368,0.43,0.547,0.976,0.504,1.538S100.689,117.146,100.259,117.514z"/>
					<path d="M79.355,48.434c0.07,0.019,0.142,0.034,0.212,0.046C79.495,48.468,79.425,48.452,79.355,48.434z"/>
					<path fill="#D3562C" d="M101.305,36.031c-0.357-1.599-1.317-2.964-2.708-3.844c-0.98-0.617-2.109-0.944-3.265-0.944
						c-2.117,0-4.053,1.066-5.174,2.85c-1.354,2.138-1.218,4.799,0.144,6.759c-3.646,4.124-8.706,4.313-9.942,4.293
						c-3.692-1.604-7.234-2.164-10.005-2.317v3.996c2.441,0.144,5.553,0.686,8.748,2.136c0.005,0.002,0.01,0.002,0.015,0.005
						c3.445,1.563,6.334,3.928,8.607,7.041c-0.136,0.173-0.265,0.352-0.382,0.538c-1.796,2.854-0.942,6.644,1.903,8.444
						c0.98,0.622,2.111,0.951,3.27,0.951c2.113,0,4.051-1.065,5.183-2.852c1.806-2.851,0.951-6.642-1.908-8.453
						c-1.384-0.871-3.092-1.113-4.667-0.755c-1.538-2.154-3.323-4.017-5.345-5.566c2.517-0.778,5.401-2.269,7.78-5.096
						c0.572,0.172,1.166,0.267,1.77,0.267c2.116,0,4.051-1.068,5.172-2.849C101.375,39.26,101.661,37.626,101.305,36.031z
						 M90.734,58.679c0.169-0.267,0.395-0.49,0.673-0.661c0.335-0.207,0.722-0.316,1.121-0.316c0.4,0,0.79,0.112,1.122,0.321
						c0.987,0.627,1.283,1.936,0.66,2.919c-0.392,0.618-1.063,0.988-1.795,0.988c-0.397,0-0.785-0.113-1.124-0.327
						C90.407,60.979,90.113,59.666,90.734,58.679z M97.113,38.491c-0.6,0.951-1.938,1.271-2.912,0.653l-0.096-0.063
						c-0.914-0.647-1.161-1.897-0.558-2.851c0.386-0.613,1.053-0.98,1.784-0.98c0.397,0,0.787,0.113,1.124,0.326
						c0.479,0.304,0.813,0.775,0.937,1.33C97.515,37.453,97.418,38.014,97.113,38.491z"/>
					<path fill="#D3562C" d="M110,77.011c0.425,1.035,1.136,1.962,2.109,2.649c0.072,0.052,0.151,0.105,0.283,0.191
						c0.981,0.621,2.11,0.949,3.268,0.949c2.116,0,4.052-1.068,5.173-2.849c0.875-1.375,1.16-3.01,0.805-4.604
						c-0.358-1.598-1.318-2.964-2.709-3.844c-0.98-0.617-2.109-0.944-3.266-0.944c-0.125,0-0.25,0.008-0.375,0.018
						c-0.71-3.157-0.919-7.769,0.035-11.265c0.112,0.011,0.225,0.024,0.337,0.024c2.116,0,4.052-1.067,5.173-2.849
						c0.875-1.375,1.16-3.009,0.805-4.604c-0.358-1.599-1.318-2.964-2.709-3.844c-0.98-0.617-2.109-0.944-3.266-0.944
						c-2.114,0-4.051,1.066-5.173,2.85c-1.604,2.532-1.12,5.804,1.024,7.765c0.021,0.02,0.048,0.037,0.071,0.059
						c-1.349,4.518-1.146,10.324-0.036,14.417c-0.144,0.132-0.294,0.254-0.426,0.399c-0.229,0.255-0.445,0.526-0.634,0.824
						c-0.318,0.502-0.551,1.033-0.71,1.578c-3.371,0.488-5.198,1.671-6.824,2.729c-2.035,1.324-3.961,2.572-9.636,2.665
						c-1.964-0.23-3.553-0.177-5.29-0.116c-1.431,0.052-2.91,0.106-4.849,0.003c-1.335-0.071-2.104-0.882-3.458-2.424
						c-1.803-2.055-4.219-4.648-9.369-5.022v4c3.295,0.3,4.796,1.888,6.356,3.667c1.487,1.694,3.175,3.615,6.256,3.782
						c2.118,0.114,3.76,0.052,5.208,0.001c2.491-0.092,4.453-0.161,7.855,0.684c2.607,0.643,12.099,9.673,14.773,14.322
						c-0.108,0.142-0.219,0.282-0.313,0.434c-1.743,2.755-1.026,6.385,1.619,8.251c0.072,0.052,0.151,0.104,0.283,0.191
						c0.981,0.621,2.11,0.948,3.268,0.948c2.116,0,4.052-1.068,5.173-2.849c0.875-1.374,1.16-3.009,0.805-4.603
						c-0.358-1.6-1.318-2.965-2.709-3.845c-0.98-0.617-2.109-0.944-3.266-0.944c-0.528,0-1.047,0.067-1.543,0.195
						c-2.561-4.187-8.652-10.455-13.189-13.792c1.813-0.628,3.05-1.435,4.212-2.188C106.57,78.148,107.757,77.388,110,77.011z
						 M113.88,50.086c0.388-0.614,1.054-0.98,1.783-0.98c0.399,0,0.79,0.113,1.125,0.325c0.48,0.304,0.813,0.775,0.937,1.33
						c0.122,0.546,0.024,1.106-0.279,1.584c-0.598,0.951-1.938,1.272-2.912,0.653l-0.094-0.063
						C113.522,52.289,113.277,51.039,113.88,50.086z M113.88,73.549c0.388-0.614,1.054-0.98,1.783-0.98
						c0.399,0,0.79,0.112,1.125,0.326c0.48,0.304,0.813,0.774,0.937,1.329c0.122,0.546,0.024,1.107-0.279,1.585
						c-0.598,0.95-1.938,1.271-2.912,0.652l-0.094-0.063C113.522,75.752,113.277,74.502,113.88,73.549z M113.88,99.852
						c0.388-0.613,1.054-0.979,1.783-0.979c0.399,0,0.79,0.112,1.125,0.325c0.48,0.304,0.813,0.775,0.937,1.33
						c0.122,0.547,0.024,1.106-0.279,1.584c-0.598,0.951-1.938,1.271-2.912,0.653l-0.094-0.063
						C113.522,102.055,113.277,100.806,113.88,99.852z"/>
				</g>
				<g>
					<path fill="#FFFEDB" d="M103.53,108.927c-1.165-1.36-2.858-2.139-4.648-2.139c-1.459,0-2.875,0.525-3.983,1.477
						c-1.612,1.383-2.326,3.429-2.087,5.397c-1.948,0.7-4.258,1.365-5.328,1.332c-0.821-0.044-1.302-0.346-2.224-0.972
						c-1.172-0.795-2.418-1.512-4.148-1.847c2.936-2.761,6.009-6.83,8.584-12.834c2.061-0.076,3.976-1.193,5.038-2.972
						c1.725-2.896,0.773-6.659-2.124-8.394c-0.949-0.565-2.032-0.864-3.134-0.864c-2.146,0-4.161,1.144-5.261,2.986
						c-0.838,1.405-1.079,3.05-0.678,4.636c0.351,1.393,1.16,2.59,2.302,3.429c-4.053,9.218-9.219,13.081-12.565,14.685
						c-0.128,0.045-0.248,0.101-0.36,0.168c-1.187,0.531-2.05,0.704-2.559,0.808v4c0.275-0.03,1.885-0.118,4.247-1.192
						c5.348-1.357,6.839-0.354,8.407,0.709c1.021,0.692,2.291,1.554,4.263,1.656c0.1,0.005,0.204,0.008,0.309,0.008
						c2.109,0,5.172-1.022,7.021-1.723c1.144,1.116,2.676,1.75,4.285,1.75l0,0c1.461,0,2.876-0.524,3.983-1.476
						c1.24-1.062,1.993-2.546,2.118-4.176C105.112,111.748,104.595,110.165,103.53,108.927z M87.656,92.151
						c0.386-0.645,1.066-1.03,1.819-1.03c0.378,0,0.752,0.104,1.078,0.297c1,0.601,1.331,1.899,0.735,2.898
						c-0.385,0.646-1.064,1.032-1.817,1.032c-0.379,0-0.755-0.104-1.084-0.301c-0.483-0.288-0.826-0.748-0.964-1.294
						C87.285,93.205,87.368,92.637,87.656,92.151z M100.259,114.514c-0.49,0.421-1.018,0.509-1.373,0.509
						c-0.621,0-1.207-0.269-1.608-0.734c-0.758-0.885-0.654-2.222,0.231-2.981c0.492-0.423,1.018-0.512,1.373-0.512
						c0.617,0,1.201,0.269,1.605,0.74c0.368,0.43,0.547,0.976,0.504,1.538S100.689,114.146,100.259,114.514z"/>
					<path fill="#FFFEDB" d="M79.355,46.028c0.07,0.019,0.142,0.034,0.212,0.046C79.495,46.063,79.425,46.047,79.355,46.028z"/>
					<path fill="#FFFEDB" d="M101.305,33.027c-0.357-1.599-1.317-2.964-2.708-3.844c-0.98-0.617-2.109-0.944-3.265-0.944
						c-2.117,0-4.053,1.066-5.174,2.85c-1.354,2.138-1.218,4.799,0.144,6.759c-3.646,4.124-8.706,4.313-9.942,4.293
						c-3.692-1.604-7.234-2.164-10.005-2.317v3.996c2.441,0.144,5.553,0.686,8.748,2.136c0.005,0.002,0.01,0.002,0.015,0.005
						c3.445,1.563,6.334,3.928,8.607,7.041c-0.136,0.173-0.265,0.352-0.382,0.538c-1.796,2.854-0.942,6.644,1.903,8.444
						c0.98,0.622,2.111,0.951,3.27,0.951c2.113,0,4.051-1.065,5.183-2.852c1.806-2.851,0.951-6.642-1.908-8.453
						c-1.384-0.871-3.092-1.113-4.667-0.755c-1.538-2.154-3.323-4.017-5.345-5.566c2.517-0.778,5.401-2.269,7.78-5.096
						c0.572,0.172,1.166,0.267,1.77,0.267c2.116,0,4.051-1.068,5.172-2.849C101.375,36.256,101.661,34.622,101.305,33.027z
						 M90.734,55.675c0.169-0.267,0.395-0.49,0.673-0.661c0.335-0.207,0.722-0.316,1.121-0.316c0.4,0,0.79,0.112,1.122,0.321
						c0.987,0.627,1.283,1.936,0.66,2.919c-0.392,0.618-1.063,0.988-1.795,0.988c-0.397,0-0.785-0.113-1.124-0.327
						C90.407,57.975,90.113,56.662,90.734,55.675z M97.113,35.487c-0.6,0.951-1.938,1.271-2.912,0.653l-0.096-0.063
						c-0.914-0.647-1.161-1.897-0.558-2.851c0.386-0.613,1.053-0.98,1.784-0.98c0.397,0,0.787,0.113,1.124,0.326
						c0.479,0.304,0.813,0.775,0.937,1.33C97.515,34.449,97.418,35.01,97.113,35.487z"/>
					<path fill="#FFFEDB" d="M110,74.011c0.425,1.035,1.136,1.962,2.109,2.649c0.072,0.052,0.151,0.105,0.283,0.191
						c0.981,0.621,2.11,0.949,3.268,0.949c2.116,0,4.052-1.068,5.173-2.849c0.875-1.375,1.16-3.01,0.805-4.604
						c-0.358-1.598-1.318-2.964-2.709-3.844c-0.98-0.617-2.109-0.944-3.266-0.944c-0.125,0-0.25,0.008-0.375,0.018
						c-0.71-3.157-0.919-7.769,0.035-11.265c0.112,0.011,0.225,0.024,0.337,0.024c2.116,0,4.052-1.067,5.173-2.849
						c0.875-1.375,1.16-3.009,0.805-4.604c-0.358-1.599-1.318-2.964-2.709-3.844c-0.98-0.617-2.109-0.944-3.266-0.944
						c-2.114,0-4.051,1.066-5.173,2.85c-1.604,2.532-1.12,5.804,1.024,7.765c0.021,0.02,0.048,0.037,0.071,0.059
						c-1.349,4.518-1.146,10.324-0.036,14.417c-0.144,0.132-0.294,0.254-0.426,0.399c-0.229,0.255-0.445,0.526-0.634,0.824
						c-0.318,0.502-0.551,1.033-0.71,1.578c-3.371,0.488-5.198,1.671-6.824,2.729c-2.035,1.324-3.961,2.572-9.636,2.665
						c-1.964-0.23-3.553-0.177-5.29-0.116c-1.431,0.052-2.91,0.106-4.849,0.003c-1.335-0.071-2.104-0.882-3.458-2.424
						c-1.803-2.055-4.219-4.648-9.369-5.022v4c3.295,0.3,4.796,1.888,6.356,3.667c1.487,1.694,3.175,3.615,6.256,3.782
						c2.118,0.114,3.76,0.052,5.208,0.001c2.491-0.092,4.453-0.161,7.855,0.684c2.607,0.643,12.099,9.673,14.773,14.322
						c-0.108,0.142-0.219,0.282-0.313,0.434c-1.743,2.755-1.026,6.385,1.619,8.251c0.072,0.052,0.151,0.104,0.283,0.191
						c0.981,0.621,2.11,0.948,3.268,0.948c2.116,0,4.052-1.068,5.173-2.849c0.875-1.374,1.16-3.009,0.805-4.603
						c-0.358-1.6-1.318-2.965-2.709-3.845c-0.98-0.617-2.109-0.944-3.266-0.944c-0.528,0-1.047,0.067-1.543,0.195
						c-2.561-4.187-8.652-10.455-13.189-13.792c1.813-0.628,3.05-1.435,4.212-2.188C106.57,75.148,107.757,74.388,110,74.011z
						 M113.88,47.086c0.388-0.614,1.054-0.98,1.783-0.98c0.399,0,0.79,0.113,1.125,0.325c0.48,0.304,0.813,0.775,0.937,1.33
						c0.122,0.546,0.024,1.106-0.279,1.584c-0.598,0.951-1.938,1.272-2.912,0.653l-0.094-0.063
						C113.522,49.289,113.277,48.039,113.88,47.086z M113.88,70.549c0.388-0.614,1.054-0.98,1.783-0.98
						c0.399,0,0.79,0.112,1.125,0.326c0.48,0.304,0.813,0.774,0.937,1.329c0.122,0.546,0.024,1.107-0.279,1.585
						c-0.598,0.95-1.938,1.271-2.912,0.652l-0.094-0.063C113.522,72.752,113.277,71.502,113.88,70.549z M113.88,96.852
						c0.388-0.613,1.054-0.979,1.783-0.979c0.399,0,0.79,0.112,1.125,0.325c0.48,0.304,0.813,0.775,0.937,1.33
						c0.122,0.547,0.024,1.106-0.279,1.584c-0.598,0.951-1.938,1.271-2.912,0.653l-0.094-0.063
						C113.522,99.055,113.277,97.806,113.88,96.852z"/>
				</g>
			</g>
		</g>
		<g>
			<g>
				<polygon fill="#264346" points="17.447,105.913 24.891,104.435 24.891,58.534 17.447,57.055 				"/>
				<path fill="#264346" d="M17.447,105.913V57.055l7.443,1.479v-2.625l-8.353-1.849c-0.059-0.014-0.119-0.017-0.177-0.012
					c-0.06,0.006-0.117,0.021-0.174,0.044c-0.055,0.023-0.108,0.057-0.158,0.098c-0.051,0.041-0.098,0.09-0.14,0.148
					c-0.044,0.054-0.083,0.117-0.117,0.187s-0.063,0.145-0.087,0.226c-0.023,0.08-0.042,0.166-0.055,0.254
					c-0.012,0.089-0.019,0.181-0.019,0.273v52.423c0,0.093,0.007,0.184,0.019,0.271c0.013,0.088,0.031,0.172,0.055,0.252
					s0.053,0.155,0.087,0.226c0.034,0.069,0.073,0.134,0.117,0.191c0.042,0.055,0.089,0.103,0.14,0.142
					c0.05,0.04,0.104,0.071,0.158,0.095c0.057,0.022,0.114,0.037,0.174,0.043c0.058,0.005,0.118,0.002,0.177-0.012l8.353-1.849
					v-2.625L17.447,105.913z"/>
				<polygon fill="#264346" points="27.676,111.374 37.351,109.737 37.351,53.239 27.676,51.603 				"/>
				<path fill="#264346" d="M27.676,111.374V51.603l9.675,1.637v-3.228l-7.26-1.368l-3.796-0.715
					c-0.092-0.018-0.184-0.023-0.273-0.018c-0.089,0.006-0.177,0.022-0.262,0.05c-0.084,0.027-0.165,0.065-0.241,0.113
					c-0.077,0.049-0.148,0.107-0.214,0.176s-0.124,0.146-0.175,0.23c-0.052,0.084-0.095,0.177-0.13,0.274
					c-0.036,0.098-0.063,0.201-0.082,0.31c-0.018,0.107-0.027,0.219-0.027,0.333v6.512v2.625v45.9v2.625v6.52
					c0,0.114,0.01,0.227,0.027,0.334c0.019,0.107,0.046,0.212,0.082,0.31c0.035,0.098,0.078,0.19,0.13,0.275
					c0.051,0.084,0.109,0.161,0.175,0.229s0.137,0.127,0.214,0.176c0.076,0.048,0.157,0.086,0.241,0.113
					c0.085,0.027,0.173,0.044,0.262,0.049c0.09,0.006,0.182,0,0.273-0.018l3.796-0.715l7.26-1.368v-3.228L27.676,111.374z"/>
				<rect x="41.397" y="46.473" fill="#264346" width="23.957" height="70.027"/>
				<path fill="#264346" d="M37.351,44.449v5.563v3.228v56.498v3.228v5.559c0,1.117,0.906,2.023,2.023,2.023h25.98V116.5H41.397
					V46.473h23.957v-4.047h-25.98C38.257,42.426,37.351,43.332,37.351,44.449z"/>
			</g>
			<g>
				<polygon fill="#20656C" points="17.447,102.913 24.891,101.435 24.891,55.534 17.447,54.055 				"/>
				<path fill="#FFFEDB" d="M17.447,102.913V54.055l7.443,1.479v-2.625l-8.353-1.849c-0.059-0.014-0.119-0.017-0.177-0.012
					c-0.06,0.006-0.117,0.021-0.174,0.044c-0.055,0.023-0.108,0.057-0.158,0.098c-0.051,0.041-0.098,0.09-0.14,0.148
					c-0.044,0.054-0.083,0.117-0.117,0.187s-0.063,0.145-0.087,0.226c-0.023,0.08-0.042,0.166-0.055,0.254
					c-0.012,0.089-0.019,0.181-0.019,0.273v52.423c0,0.093,0.007,0.184,0.019,0.271c0.013,0.088,0.031,0.172,0.055,0.252
					s0.053,0.155,0.087,0.226c0.034,0.069,0.073,0.134,0.117,0.191c0.042,0.055,0.089,0.103,0.14,0.142
					c0.05,0.04,0.104,0.071,0.158,0.095c0.057,0.022,0.114,0.037,0.174,0.043c0.058,0.005,0.118,0.002,0.177-0.012l8.353-1.849
					v-2.625L17.447,102.913z"/>
				<polygon fill="#20656C" points="27.676,108.374 37.351,106.737 37.351,50.239 27.676,48.603 				"/>
				<path fill="#FFFEDB" d="M27.676,108.374V48.603l9.675,1.637v-3.228l-7.26-1.368l-3.796-0.715
					c-0.092-0.018-0.184-0.023-0.273-0.018c-0.089,0.006-0.177,0.022-0.262,0.05c-0.084,0.027-0.165,0.065-0.241,0.113
					c-0.077,0.049-0.148,0.107-0.214,0.176s-0.124,0.146-0.175,0.23c-0.052,0.084-0.095,0.177-0.13,0.274
					c-0.036,0.098-0.063,0.201-0.082,0.31c-0.018,0.107-0.027,0.219-0.027,0.333v6.512v2.625v45.9v2.625v6.52
					c0,0.114,0.01,0.227,0.027,0.334c0.019,0.107,0.046,0.212,0.082,0.31c0.035,0.098,0.078,0.19,0.13,0.275
					c0.051,0.084,0.109,0.161,0.175,0.229s0.137,0.127,0.214,0.176c0.076,0.048,0.157,0.086,0.241,0.113
					c0.085,0.027,0.173,0.044,0.262,0.049c0.09,0.006,0.182,0,0.273-0.018l3.796-0.715l7.26-1.368v-3.228L27.676,108.374z"/>
				<rect x="41.397" y="43.473" fill="#579CA0" width="23.957" height="70.027"/>
				<path fill="#FFFEDB" d="M37.351,41.449v5.563v3.228v56.498v3.228v5.559c0,1.117,0.906,2.023,2.023,2.023h25.98V113.5H41.397
					V43.473h23.957v-4.047h-25.98C38.257,39.426,37.351,40.332,37.351,41.449z"/>
			</g>
		</g>
	</g>
	<g>
		<path fill="#20656C" d="M196.378,84.121c-0.25,6.029-2.242,10.779-5.976,14.248c-3.735,3.47-8.665,5.204-14.789,5.204
			c-6.625,0-11.835-2.351-15.632-7.055c-3.797-4.702-5.695-11.335-5.695-19.897v-2.297c0-8.25,1.922-14.788,5.766-19.616
			s8.983-7.242,15.421-7.242c6.124,0,11.016,1.735,14.672,5.205c3.655,3.47,5.765,8.345,6.327,14.622H183.16
			c0-5.937-2.563-8.905-7.688-8.905c-2.688,0-4.664,1.255-5.93,3.765c-1.266,2.511-1.914,6.401-1.945,11.673v2.965
			c0,5.805,0.617,9.9,1.852,12.284c1.234,2.385,3.289,3.577,6.164,3.577c2.531,0,4.406-0.68,5.625-2.039s1.844-3.522,1.875-6.491
			H196.378z"/>
		<path fill="#20656C" d="M201.787,77.984c0-7.072,1.667-12.621,5.002-16.646c3.335-4.025,7.949-6.038,13.843-6.038
			c5.951,0,10.594,2.013,13.93,6.038c3.334,4.024,5.002,9.602,5.002,16.731v2.976c0,7.102-1.653,12.65-4.959,16.646
			c-3.307,3.996-7.935,5.994-13.886,5.994c-5.98,0-10.63-2.005-13.951-6.016c-3.32-4.011-4.98-9.58-4.98-16.71V77.984z
			 M214.034,81.056c0,8.389,2.228,12.582,6.685,12.582c4.11,0,6.324-3.499,6.641-10.5l0.043-5.163c0-4.28-0.59-7.455-1.768-9.523
			c-1.18-2.068-2.847-3.103-5.003-3.103c-2.069,0-3.687,1.034-4.851,3.103c-1.165,2.068-1.747,5.243-1.747,9.523V81.056z"/>
		<path fill="#20656C" d="M261.815,85.574l5.907-29.41h12.722l-12.808,46.659h-11.644l-12.851-46.659h12.765L261.815,85.574z"/>
		<path fill="#20656C" d="M304.465,103.686c-6.269,0-11.155-1.868-14.662-5.605c-3.508-3.737-5.262-9.085-5.262-16.042v-3.709
			c0-7.359,1.61-13.037,4.83-17.034c3.22-3.995,7.834-5.994,13.843-5.994c5.865,0,10.277,1.874,13.239,5.62
			c2.96,3.746,4.47,9.293,4.527,16.642v5.984h-24.278c0.173,3.495,0.934,6.051,2.285,7.667s3.436,2.424,6.253,2.424
			c4.082,0,7.489-1.423,10.221-4.269l4.787,7.374c-1.496,2.069-3.666,3.745-6.512,5.023
			C310.89,103.046,307.799,103.686,304.465,103.686z M296.788,75.052h12.204V73.92c-0.058-2.813-0.518-4.945-1.38-6.396
			s-2.357-2.176-4.484-2.176c-2.128,0-3.673,0.77-4.636,2.307C297.528,69.193,296.961,71.658,296.788,75.052z"/>
		<path fill="#20656C" d="M350.908,67.937l-4.054-0.345c-3.335,0-5.592,1.466-6.771,4.398v30.833h-12.247V56.164h11.514l0.346,5.045
			c1.926-3.938,4.585-5.908,7.978-5.908c1.38,0,2.501,0.188,3.363,0.561L350.908,67.937z"/>
		<path fill="#20656C" d="M385.719,92.464h-16.125l-2.953,10.359h-13.265l18.046-54.607h12.422l18.233,54.607h-13.312
			L385.719,92.464z M372.5,82.48h10.266l-5.203-17.625L372.5,82.48z"/>
		<path fill="#20656C" d="M430.25,67.937l-4.054-0.345c-3.335,0-5.592,1.466-6.771,4.398v30.833h-12.247V56.164h11.514l0.346,5.045
			c1.926-3.938,4.585-5.908,7.978-5.908c1.38,0,2.501,0.188,3.363,0.561L430.25,67.937z"/>
		<path fill="#20656C" d="M452.847,44.692v11.472h6.253v9.142h-6.253v23.193c0,1.843,0.252,3.109,0.755,3.801
			s1.474,1.036,2.911,1.036c1.179,0,2.142-0.101,2.89-0.302l-0.087,9.487c-2.069,0.776-4.313,1.164-6.728,1.164
			c-7.877,0-11.858-4.519-11.944-13.556V65.306h-5.391v-9.142h5.391V44.692H452.847z"/>
		<path fill="#EB743B" d="M494.341,92.464h-16.125l-2.953,10.359h-13.265l18.046-54.607h12.422l18.233,54.607h-13.312
			L494.341,92.464z M481.122,82.48h10.266l-5.203-17.625L481.122,82.48z"/>
		<path fill="#EB743B" d="M538.872,67.937l-4.054-0.345c-3.335,0-5.592,1.466-6.771,4.398v30.833h-12.247V56.164h11.514l0.346,5.045
			c1.926-3.938,4.585-5.908,7.978-5.908c1.38,0,2.501,0.188,3.363,0.561L538.872,67.937z"/>
		<path fill="#EB743B" d="M561.167,93.638c3.536,0,5.333-2.328,5.391-6.985h11.471c-0.058,5.088-1.624,9.2-4.7,12.333
			c-3.076,3.134-7.044,4.7-11.902,4.7c-6.009,0-10.594-1.868-13.756-5.605c-3.163-3.737-4.772-9.243-4.83-16.517v-3.709
			c0-7.331,1.56-12.922,4.679-16.774s7.726-5.779,13.821-5.779c5.146,0,9.199,1.589,12.161,4.766c2.96,3.177,4.47,7.684,4.527,13.52
			h-11.471c-0.029-2.645-0.46-4.678-1.294-6.102c-0.834-1.423-2.214-2.136-4.14-2.136c-2.128,0-3.651,0.76-4.571,2.278
			s-1.408,4.462-1.466,8.83v4.772c0,3.818,0.187,6.486,0.561,8.005c0.373,1.519,0.992,2.632,1.854,3.341
			S559.586,93.638,561.167,93.638z"/>
		<path fill="#EB743B" d="M596.83,60.261c2.645-3.306,5.894-4.96,9.746-4.96c4.254,0,7.488,1.495,9.703,4.485
			c2.213,2.99,3.334,7.446,3.363,13.368v29.669h-12.247v-29.54c0-2.73-0.425-4.707-1.272-5.929s-2.221-1.833-4.118-1.833
			c-2.214,0-3.939,1.021-5.175,3.062v34.24h-12.204V36.586h12.204V60.261z"/>
		<path fill="#EB743B" d="M628.396,44.089c0-1.897,0.604-3.449,1.812-4.657c1.207-1.207,2.817-1.812,4.83-1.812
			c2.012,0,3.622,0.604,4.829,1.812c1.208,1.208,1.812,2.76,1.812,4.657c0,1.869-0.597,3.422-1.789,4.657
			c-1.193,1.236-2.811,1.854-4.852,1.854c-2.042,0-3.659-0.618-4.852-1.854C628.993,47.511,628.396,45.958,628.396,44.089z
			 M641.204,102.823h-12.247V56.164h12.247V102.823z"/>
		<path fill="#EB743B" d="M665.958,85.574l5.907-29.41h12.722l-12.808,46.659h-11.644l-12.851-46.659h12.765L665.958,85.574z"/>
		<path fill="#EB743B" d="M708.606,103.686c-6.269,0-11.155-1.868-14.662-5.605c-3.508-3.737-5.262-9.085-5.262-16.042v-3.709
			c0-7.359,1.61-13.037,4.83-17.034c3.22-3.995,7.834-5.994,13.843-5.994c5.865,0,10.277,1.874,13.239,5.62
			c2.96,3.746,4.47,9.293,4.527,16.642v5.984h-24.278c0.173,3.495,0.934,6.051,2.285,7.667s3.436,2.424,6.253,2.424
			c4.082,0,7.489-1.423,10.221-4.269l4.787,7.374c-1.496,2.069-3.666,3.745-6.512,5.023
			C715.031,103.046,711.94,103.686,708.606,103.686z M700.93,75.052h12.204V73.92c-0.058-2.813-0.518-4.945-1.38-6.396
			s-2.357-2.176-4.484-2.176c-2.128,0-3.673,0.77-4.636,2.307C701.67,69.193,701.103,71.658,700.93,75.052z"/>
	</g>
</g>
</svg>
