<svg xmlns="http://www.w3.org/2000/svg" viewBox="0 0 582.42 144"><title>ListenBrainz_logo</title><g style="isolation:isolate"><polygon points="66 0 66 144 127 109 127 35 66 0" style="fill:#eb743b"/><polygon points="61 0 0 35 0 109 61 144 61 0" style="fill:#353070"/><g style="opacity:0.07;mix-blend-mode:multiply"><path d="M87.66,94.56a2.11,2.11,0,1,1-.23,1.6A2.1,2.1,0,0,1,87.66,94.56Zm12.6,22.36a2.08,2.08,0,0,1-1.37.51,2.11,2.11,0,0,1-1.38-3.72,2.08,2.08,0,0,1,1.37-.51,2.12,2.12,0,0,1,2.11,2.28A2.09,2.09,0,0,1,100.26,116.92Z" transform="translate(-4.35 -2.82)"/><path d="M79.36,48.43l.21,0Z" transform="translate(-4.35 -2.82)"/><path d="M90.73,58.08a2.07,2.07,0,0,1,.67-.66,2.11,2.11,0,1,1,1.11,3.91A2.1,2.1,0,0,1,91.39,61,2.13,2.13,0,0,1,90.73,58.08Zm6.38-20.19a2.14,2.14,0,0,1-2.91.65l-.1-.06a2.11,2.11,0,1,1,3.29-2.17A2.08,2.08,0,0,1,97.11,37.89Z" transform="translate(-4.35 -2.82)"/><path d="M113.88,49.49a2.11,2.11,0,1,1,3.57,2.26,2.14,2.14,0,0,1-2.91.65l-.09-.06A2.1,2.1,0,0,1,113.88,49.49Zm0,23.46a2.11,2.11,0,1,1,3.57,2.26,2.14,2.14,0,0,1-2.91.65l-.09-.06A2.1,2.1,0,0,1,113.88,73Zm0,26.3a2.11,2.11,0,1,1,3.57,2.26,2.14,2.14,0,0,1-2.91.65l-.09-.06A2.11,2.11,0,0,1,113.88,99.26Z" transform="translate(-4.35 -2.82)"/><path d="M103.53,108.93a6.12,6.12,0,0,0-10.72,4.74A19.86,19.86,0,0,1,87.48,115a4,4,0,0,1-2.22-1,10.71,10.71,0,0,0-4.15-1.85A37.64,37.64,0,0,0,89.7,99.34a6.12,6.12,0,1,0-5.48-9.24,6.12,6.12,0,0,0,1.62,8.06c-4.05,9.22-9.22,13.08-12.57,14.68a2,2,0,0,0-.36.17,11.26,11.26,0,0,1-2.56.81v4a12.59,12.59,0,0,0,4.25-1.19c5.35-1.36,6.84-.35,8.41.71A7.88,7.88,0,0,0,87.27,119h.31a23.61,23.61,0,0,0,7-1.72A6.13,6.13,0,0,0,98.89,119h0a6.12,6.12,0,0,0,4.64-10.1ZM87.66,92.15a2.11,2.11,0,1,1-.23,1.6A2.1,2.1,0,0,1,87.66,92.15Zm12.6,22.36a2.08,2.08,0,0,1-1.37.51,2.11,2.11,0,0,1-1.38-3.72,2.08,2.08,0,0,1,1.37-.51,2.12,2.12,0,0,1,2.11,2.28A2.09,2.09,0,0,1,100.26,114.51Z" transform="translate(-4.35 -2.82)"/><path d="M79.36,46l.21,0Z" transform="translate(-4.35 -2.82)"/><path d="M101.3,33a6.12,6.12,0,1,0-11,4.82,13.35,13.35,0,0,1-9.94,4.29,29.15,29.15,0,0,0-10-2.32v4A24.8,24.8,0,0,1,79.1,46h0a21.59,21.59,0,0,1,8.61,7,6.32,6.32,0,0,0-.38.54,6.12,6.12,0,1,0,8.45-1.91,6.22,6.22,0,0,0-4.67-.75,26,26,0,0,0-5.34-5.57,16.35,16.35,0,0,0,7.78-5.1,6.15,6.15,0,0,0,1.77.27,6.13,6.13,0,0,0,6-7.45ZM90.73,55.67a2.07,2.07,0,0,1,.67-.66,2.11,2.11,0,1,1,1.11,3.91,2.1,2.1,0,0,1-1.12-.33A2.13,2.13,0,0,1,90.73,55.67Zm6.38-20.19a2.14,2.14,0,0,1-2.91.65l-.1-.06a2.11,2.11,0,1,1,3.29-2.17A2.08,2.08,0,0,1,97.11,35.49Z" transform="translate(-4.35 -2.82)"/><path d="M110,74a6,6,0,0,0,2.11,2.65l.28.19a6.12,6.12,0,1,0,3.27-11.29l-.37,0a25.73,25.73,0,0,1,0-11.26l.34,0a6.12,6.12,0,1,0-4.15-1.63l.07.06a28.65,28.65,0,0,0,0,14.42c-.14.13-.29.25-.43.4a6.24,6.24,0,0,0-.63.82,6.16,6.16,0,0,0-.71,1.58A15.2,15.2,0,0,0,103,72.72c-2,1.32-4,2.57-9.64,2.67A32.64,32.64,0,0,0,88,75.27c-1.43.05-2.91.11-4.85,0-1.33-.07-2.1-.88-3.46-2.42-1.8-2.05-4.22-4.65-9.37-5v4c3.29.3,4.8,1.89,6.36,3.67s3.17,3.62,6.26,3.78c2.12.11,3.76.05,5.21,0A24.22,24.22,0,0,1,96,80c2.61.64,12.1,9.67,14.77,14.32-.11.14-.22.28-.31.43a6.1,6.1,0,0,0,1.62,8.25l.28.19a6.12,6.12,0,1,0,3.27-11.29,6.18,6.18,0,0,0-1.54.2c-2.56-4.19-8.65-10.46-13.19-13.79a18.18,18.18,0,0,0,4.21-2.19A11.31,11.31,0,0,1,110,74Zm3.88-26.92a2.11,2.11,0,1,1,3.57,2.26,2.14,2.14,0,0,1-2.91.65l-.09-.06A2.1,2.1,0,0,1,113.88,47.09Zm0,23.46a2.11,2.11,0,1,1,3.57,2.26,2.14,2.14,0,0,1-2.91.65l-.09-.06A2.1,2.1,0,0,1,113.88,70.55Zm0,26.3a2.11,2.11,0,1,1,3.57,2.26,2.14,2.14,0,0,1-2.91.65l-.09-.06A2.11,2.11,0,0,1,113.88,96.85Z" transform="translate(-4.35 -2.82)"/></g><path d="M103.53,111.93a6.12,6.12,0,0,0-10.72,4.74A19.86,19.86,0,0,1,87.48,118a4,4,0,0,1-2.22-1,10.71,10.71,0,0,0-4.15-1.85,37.64,37.64,0,0,0,8.58-12.83,6.12,6.12,0,1,0-5.48-9.24,6.12,6.12,0,0,0,1.62,8.06c-4.05,9.22-9.22,13.08-12.57,14.68a2,2,0,0,0-.36.17,11.26,11.26,0,0,1-2.56.81v4a12.59,12.59,0,0,0,4.25-1.19c5.35-1.36,6.84-.35,8.41.71A7.88,7.88,0,0,0,87.27,122h.31a23.61,23.61,0,0,0,7-1.72A6.13,6.13,0,0,0,98.89,122h0a6.12,6.12,0,0,0,4.64-10.1ZM87.66,95.15a2.11,2.11,0,1,1-.23,1.6A2.1,2.1,0,0,1,87.66,95.15Zm12.6,22.36a2.08,2.08,0,0,1-1.37.51,2.11,2.11,0,0,1-1.38-3.72,2.08,2.08,0,0,1,1.37-.51,2.12,2.12,0,0,1,2.11,2.28A2.09,2.09,0,0,1,100.26,117.51Z" transform="translate(-4.35 -2.82)" style="fill:#d3562c"/><path d="M79.36,48.43l.21,0Z" transform="translate(-4.35 -2.82)"/><path d="M101.3,35a6.12,6.12,0,1,0-11,4.82,13.35,13.35,0,0,1-9.94,4.29,29.15,29.15,0,0,0-10-2.32v4A24.81,24.81,0,0,1,79.1,48h0a21.59,21.59,0,0,1,8.61,7,6.32,6.32,0,0,0-.38.54,6.12,6.12,0,1,0,8.45-1.91,6.22,6.22,0,0,0-4.67-.75,26,26,0,0,0-5.34-5.57,16.35,16.35,0,0,0,7.78-5.1,6.15,6.15,0,0,0,1.77.27,6.13,6.13,0,0,0,6-7.45ZM90.73,57.68a2.07,2.07,0,0,1,.67-.66,2.11,2.11,0,1,1,1.11,3.91,2.1,2.1,0,0,1-1.12-.33A2.13,2.13,0,0,1,90.73,57.68Zm6.38-20.19a2.14,2.14,0,0,1-2.91.65l-.1-.06a2.11,2.11,0,1,1,3.29-2.17A2.08,2.08,0,0,1,97.11,37.49Z" transform="translate(-4.35 -2.82)" style="fill:#d3562c"/><path d="M110,77a6,6,0,0,0,2.11,2.65l.28.19a6.12,6.12,0,1,0,3.27-11.29l-.37,0a25.73,25.73,0,0,1,0-11.26l.34,0a6.12,6.12,0,1,0-4.15-1.63l.07.06a28.65,28.65,0,0,0,0,14.42c-.14.13-.29.25-.43.4a6.24,6.24,0,0,0-.63.82,6.16,6.16,0,0,0-.71,1.58A15.2,15.2,0,0,0,103,75.72c-2,1.32-4,2.57-9.64,2.67A32.64,32.64,0,0,0,88,78.27c-1.43.05-2.91.11-4.85,0-1.33-.07-2.1-.88-3.46-2.42-1.8-2.05-4.22-4.65-9.37-5v4c3.29.3,4.8,1.89,6.36,3.67s3.17,3.62,6.26,3.78c2.12.11,3.76.05,5.21,0A24.22,24.22,0,0,1,96,83c2.61.64,12.1,9.67,14.77,14.32-.11.14-.22.28-.31.43a6.1,6.1,0,0,0,1.62,8.25l.28.19a6.12,6.12,0,1,0,3.27-11.29,6.18,6.18,0,0,0-1.54.2c-2.56-4.19-8.65-10.46-13.19-13.79a18.18,18.18,0,0,0,4.21-2.19A11.31,11.31,0,0,1,110,77Zm3.88-26.92a2.11,2.11,0,1,1,3.57,2.26,2.14,2.14,0,0,1-2.91.65l-.09-.06A2.1,2.1,0,0,1,113.88,50.09Zm0,23.46a2.11,2.11,0,1,1,3.57,2.26,2.14,2.14,0,0,1-2.91.65l-.09-.06A2.1,2.1,0,0,1,113.88,73.55Zm0,26.3a2.11,2.11,0,1,1,3.57,2.26,2.14,2.14,0,0,1-2.91.65l-.09-.06A2.11,2.11,0,0,1,113.88,99.85Z" transform="translate(-4.35 -2.82)" style="fill:#d3562c"/><path d="M103.53,108.93a6.12,6.12,0,0,0-10.72,4.74A19.86,19.86,0,0,1,87.48,115a4,4,0,0,1-2.22-1,10.71,10.71,0,0,0-4.15-1.85A37.64,37.64,0,0,0,89.7,99.34a6.12,6.12,0,1,0-5.48-9.24,6.12,6.12,0,0,0,1.62,8.06c-4.05,9.22-9.22,13.08-12.57,14.68a2,2,0,0,0-.36.17,11.26,11.26,0,0,1-2.56.81v4a12.59,12.59,0,0,0,4.25-1.19c5.35-1.36,6.84-.35,8.41.71A7.88,7.88,0,0,0,87.27,119h.31a23.61,23.61,0,0,0,7-1.72A6.13,6.13,0,0,0,98.89,119h0a6.12,6.12,0,0,0,4.64-10.1ZM87.66,92.15a2.11,2.11,0,1,1-.23,1.6A2.1,2.1,0,0,1,87.66,92.15Zm12.6,22.36a2.08,2.08,0,0,1-1.37.51,2.11,2.11,0,0,1-1.38-3.72,2.08,2.08,0,0,1,1.37-.51,2.12,2.12,0,0,1,2.11,2.28A2.09,2.09,0,0,1,100.26,114.51Z" transform="translate(-4.35 -2.82)" style="fill:#fffedb"/><path d="M79.36,46l.21,0Z" transform="translate(-4.35 -2.82)" style="fill:#fffedb"/><path d="M101.3,33a6.12,6.12,0,1,0-11,4.82,13.35,13.35,0,0,1-9.94,4.29,29.15,29.15,0,0,0-10-2.32v4A24.8,24.8,0,0,1,79.1,46h0a21.59,21.59,0,0,1,8.61,7,6.32,6.32,0,0,0-.38.54,6.12,6.12,0,1,0,8.45-1.91,6.22,6.22,0,0,0-4.67-.75,26,26,0,0,0-5.34-5.57,16.35,16.35,0,0,0,7.78-5.1,6.15,6.15,0,0,0,1.77.27,6.13,6.13,0,0,0,6-7.45ZM90.73,55.67a2.07,2.07,0,0,1,.67-.66,2.11,2.11,0,1,1,1.11,3.91,2.1,2.1,0,0,1-1.12-.33A2.13,2.13,0,0,1,90.73,55.67Zm6.38-20.19a2.14,2.14,0,0,1-2.91.65l-.1-.06a2.11,2.11,0,1,1,3.29-2.17A2.08,2.08,0,0,1,97.11,35.49Z" transform="translate(-4.35 -2.82)" style="fill:#fffedb"/><path d="M110,74a6,6,0,0,0,2.11,2.65l.28.19a6.12,6.12,0,1,0,3.27-11.29l-.37,0a25.73,25.73,0,0,1,0-11.26l.34,0a6.12,6.12,0,1,0-4.15-1.63l.07.06a28.65,28.65,0,0,0,0,14.42c-.14.13-.29.25-.43.4a6.24,6.24,0,0,0-.63.82,6.16,6.16,0,0,0-.71,1.58A15.2,15.2,0,0,0,103,72.72c-2,1.32-4,2.57-9.64,2.67A32.64,32.64,0,0,0,88,75.27c-1.43.05-2.91.11-4.85,0-1.33-.07-2.1-.88-3.46-2.42-1.8-2.05-4.22-4.65-9.37-5v4c3.29.3,4.8,1.89,6.36,3.67s3.17,3.62,6.26,3.78c2.12.11,3.76.05,5.21,0A24.22,24.22,0,0,1,96,80c2.61.64,12.1,9.67,14.77,14.32-.11.14-.22.28-.31.43a6.1,6.1,0,0,0,1.62,8.25l.28.19a6.12,6.12,0,1,0,3.27-11.29,6.18,6.18,0,0,0-1.54.2c-2.56-4.19-8.65-10.46-13.19-13.79a18.18,18.18,0,0,0,4.21-2.19A11.31,11.31,0,0,1,110,74Zm3.88-26.92a2.11,2.11,0,1,1,3.57,2.26,2.14,2.14,0,0,1-2.91.65l-.09-.06A2.1,2.1,0,0,1,113.88,47.09Zm0,23.46a2.11,2.11,0,1,1,3.57,2.26,2.14,2.14,0,0,1-2.91.65l-.09-.06A2.1,2.1,0,0,1,113.88,70.55Zm0,26.3a2.11,2.11,0,1,1,3.57,2.26,2.14,2.14,0,0,1-2.91.65l-.09-.06A2.11,2.11,0,0,1,113.88,96.85Z" transform="translate(-4.35 -2.82)" style="fill:#fffedb"/><g style="opacity:0.30000000000000004;mix-blend-mode:multiply"><path d="M22.63,69a9.76,9.76,0,1,1,6.75-2.72A9.67,9.67,0,0,1,22.63,69Zm0-14.51A4.76,4.76,0,1,0,26.06,56,4.74,4.74,0,0,0,22.63,54.53Z" transform="translate(-4.35 -2.82)"/><path d="M52.9,100.33H33.56a2,2,0,0,1,0-4H52.9a2,2,0,0,1,0,4Z" transform="translate(-4.35 -2.82)"/><path d="M52.9,112.45H33.56a2,2,0,1,1,0-4H52.9a2,2,0,0,1,0,4Z" transform="translate(-4.35 -2.82)"/><circle cx="18.36" cy="95.5" r="3"/><circle cx="18.36" cy="107.63" r="3"/><path d="M52.9,88.21H33.56a2,2,0,0,1,0-4H52.9a2,2,0,1,1,0,4Z" transform="translate(-4.35 -2.82)"/><circle cx="18.36" cy="83.38" r="3"/><path d="M45.26,70.85a2,2,0,0,1-1.64-3.15,15.42,15.42,0,0,0,1.2-2,15,15,0,0,0-.89-14.84,2,2,0,1,1,3.36-2.17,19.18,19.18,0,0,1,1.12,18.78A19.58,19.58,0,0,1,46.9,70,2,2,0,0,1,45.26,70.85Z" transform="translate(-4.35 -2.82)"/><path d="M53.09,75.58a2,2,0,0,1-1.62-3.18,22.22,22.22,0,0,0,2-3.28A21.94,21.94,0,0,0,51.28,46.2a2,2,0,1,1,3.2-2.4A25.92,25.92,0,0,1,57,70.89a26.37,26.37,0,0,1-2.33,3.87A2,2,0,0,1,53.09,75.58Z" transform="translate(-4.35 -2.82)"/><path d="M38.07,65.82a2,2,0,0,1-1.74-3,8,8,0,0,0,.27-7.24,2,2,0,0,1,3.63-1.69,12,12,0,0,1-.41,10.88A2,2,0,0,1,38.07,65.82Z" transform="translate(-4.35 -2.82)"/></g><path d="M22.63,66a9.76,9.76,0,1,1,6.75-2.72A9.67,9.67,0,0,1,22.63,66Zm0-14.51A4.76,4.76,0,1,0,26.06,53,4.74,4.74,0,0,0,22.63,51.53Z" transform="translate(-4.35 -2.82)" style="fill:#fffedb"/><path d="M52.9,97.33H33.56a2,2,0,0,1,0-4H52.9a2,2,0,0,1,0,4Z" transform="translate(-4.35 -2.82)" style="fill:#fffedb"/><path d="M52.9,109.45H33.56a2,2,0,1,1,0-4H52.9a2,2,0,0,1,0,4Z" transform="translate(-4.35 -2.82)" style="fill:#fffedb"/><circle cx="18.36" cy="92.5" r="3" style="fill:#fffedb"/><circle cx="18.36" cy="104.63" r="3" style="fill:#fffedb"/><path d="M52.9,85.21H33.56a2,2,0,0,1,0-4H52.9a2,2,0,1,1,0,4Z" transform="translate(-4.35 -2.82)" style="fill:#fffedb"/><circle cx="18.36" cy="80.38" r="3" style="fill:#fffedb"/><path d="M45.26,67.85a2,2,0,0,1-1.64-3.15,15.42,15.42,0,0,0,1.2-2,15,15,0,0,0-.89-14.84,2,2,0,0,1,3.36-2.17,19.18,19.18,0,0,1,1.12,18.78A19.58,19.58,0,0,1,46.9,67,2,2,0,0,1,45.26,67.85Z" transform="translate(-4.35 -2.82)" style="fill:#eb743b"/><path d="M53.09,72.58a2,2,0,0,1-1.62-3.18,22.22,22.22,0,0,0,2-3.28A21.94,21.94,0,0,0,51.28,43.2a2,2,0,1,1,3.2-2.4A25.92,25.92,0,0,1,57,67.89a26.37,26.37,0,0,1-2.33,3.87A2,2,0,0,1,53.09,72.58Z" transform="translate(-4.35 -2.82)" style="fill:#eb743b"/><path d="M38.07,62.82a2,2,0,0,1-1.74-3,8,8,0,0,0,.27-7.24,2,2,0,0,1,3.63-1.69,12,12,0,0,1-.41,10.88A2,2,0,0,1,38.07,62.82Z" transform="translate(-4.35 -2.82)" style="fill:#eb743b"/><path d="M169.77,92.67h23v10.15H156.58V48.08h13.2Z" transform="translate(-4.35 -2.82)" style="fill:#353070"/><path d="M197.63,51.65a6,6,0,0,1,.51-2.48,5.68,5.68,0,0,1,1.45-2,6.69,6.69,0,0,1,2.22-1.28,9.27,9.27,0,0,1,5.71,0,6.7,6.7,0,0,1,2.22,1.28,5.69,5.69,0,0,1,1.45,2,6.32,6.32,0,0,1,0,5,5.68,5.68,0,0,1-1.45,2,6.69,6.69,0,0,1-2.22,1.28,9.27,9.27,0,0,1-5.71,0,6.67,6.67,0,0,1-2.22-1.28,5.67,5.67,0,0,1-1.45-2A6,6,0,0,1,197.63,51.65Zm13.46,51.17H198.39V62.14h12.71Z" transform="translate(-4.35 -2.82)" style="fill:#353070"/><path d="M240.19,91.39a2.68,2.68,0,0,0-.36-1.39,3.57,3.57,0,0,0-1.26-1.15,11.62,11.62,0,0,0-2.44-1q-1.54-.49-3.91-1a35.35,35.35,0,0,1-5.58-1.67,18,18,0,0,1-4.55-2.56A11.39,11.39,0,0,1,219,79a9.86,9.86,0,0,1-1.11-4.74A11.33,11.33,0,0,1,219,69.32a12,12,0,0,1,3.25-4.1,16.2,16.2,0,0,1,5.26-2.8,22.55,22.55,0,0,1,7.11-1,26.13,26.13,0,0,1,7.41,1,17.42,17.42,0,0,1,5.62,2.73,12.13,12.13,0,0,1,3.55,4.17,11.6,11.6,0,0,1,1.24,5.36H239.78A5.17,5.17,0,0,0,238.62,71q-1.17-1.28-4-1.28a5.72,5.72,0,0,0-1.82.28,4.82,4.82,0,0,0-1.49.79,3.82,3.82,0,0,0-1,1.22,3.34,3.34,0,0,0-.38,1.58,3.14,3.14,0,0,0,1.6,2.71A14.87,14.87,0,0,0,236.7,78a50.74,50.74,0,0,1,5.92,1.45,18.8,18.8,0,0,1,5,2.37,11.42,11.42,0,0,1,3.48,3.7,10.65,10.65,0,0,1,1.3,5.45,10.33,10.33,0,0,1-1.24,5,11.83,11.83,0,0,1-3.55,4,18.12,18.12,0,0,1-5.58,2.63,26.17,26.17,0,0,1-7.37,1,22.4,22.4,0,0,1-7.76-1.24,18,18,0,0,1-5.64-3.21,13.53,13.53,0,0,1-3.44-4.44,11.38,11.38,0,0,1-1.17-4.91H228.5a4.89,4.89,0,0,0,1.88,4.12,7.73,7.73,0,0,0,4.63,1.3,6.08,6.08,0,0,0,3.89-1.05A3.36,3.36,0,0,0,240.19,91.39Z" transform="translate(-4.35 -2.82)" style="fill:#353070"/><path d="M273.09,52V62.14h6.69v8.8h-6.69V89.55a8,8,0,0,0,.21,2A2.71,2.71,0,0,0,274,92.8a2.59,2.59,0,0,0,1.26.66,8.62,8.62,0,0,0,2,.19q1.09,0,1.8-.06t1.35-.17v9.06a23.77,23.77,0,0,1-3.38.81,23.36,23.36,0,0,1-3.76.28,19.46,19.46,0,0,1-5.43-.7,10,10,0,0,1-4-2.2,9.49,9.49,0,0,1-2.48-3.87,17,17,0,0,1-.85-5.68V70.94h-5.19v-8.8h5.19V52Z" transform="translate(-4.35 -2.82)" style="fill:#353070"/><path d="M304.45,103.58a23.53,23.53,0,0,1-8.87-1.58A19.18,19.18,0,0,1,289,97.71a18.54,18.54,0,0,1-4.08-6.28,20.5,20.5,0,0,1-1.41-7.59V82.41a27.26,27.26,0,0,1,1.22-8.29,18.49,18.49,0,0,1,3.68-6.67A17.24,17.24,0,0,1,294.54,63a21.05,21.05,0,0,1,8.55-1.62,20.55,20.55,0,0,1,7.76,1.39,15.9,15.9,0,0,1,5.83,4A17.52,17.52,0,0,1,320.33,73a25.47,25.47,0,0,1,1.26,8.27v5.15H296.4a9.13,9.13,0,0,0,3,5.38,8.83,8.83,0,0,0,5.94,2,13.87,13.87,0,0,0,5.09-1,10.24,10.24,0,0,0,4.31-3.23l5.79,6.84a14.71,14.71,0,0,1-2.5,2.63,17.42,17.42,0,0,1-3.55,2.27A22.53,22.53,0,0,1,309.9,103,22.79,22.79,0,0,1,304.45,103.58ZM303,71.17a6.34,6.34,0,0,0-2.78.56,5.46,5.46,0,0,0-1.94,1.54,7.63,7.63,0,0,0-1.22,2.33,16.76,16.76,0,0,0-.68,2.93h12.78v-1a6.28,6.28,0,0,0-1.54-4.72A6.14,6.14,0,0,0,303,71.17Z" transform="translate(-4.35 -2.82)" style="fill:#353070"/><path d="M338.33,62.14l.41,4.77a13.66,13.66,0,0,1,5-4.12,15.11,15.11,0,0,1,6.6-1.41,15.81,15.81,0,0,1,5.17.81,9.61,9.61,0,0,1,4,2.67,12.6,12.6,0,0,1,2.61,4.89,26,26,0,0,1,.92,7.46v25.6H350.39V77.18a9.55,9.55,0,0,0-.39-3,4.34,4.34,0,0,0-1.13-1.84,3.87,3.87,0,0,0-1.8-.92,11,11,0,0,0-2.42-.24,6.51,6.51,0,0,0-3.37.79,6.2,6.2,0,0,0-2.16,2.14v28.72H326.44V62.14Z" transform="translate(-4.35 -2.82)" style="fill:#353070"/><path d="M370.7,102.82V48.08h19.66a40.7,40.7,0,0,1,9.08.92,20,20,0,0,1,6.79,2.8,12.65,12.65,0,0,1,4.25,4.72,14.36,14.36,0,0,1,1.47,6.67,15.72,15.72,0,0,1-.41,3.63,11.57,11.57,0,0,1-1.33,3.29,10.78,10.78,0,0,1-2.39,2.76,12.2,12.2,0,0,1-3.57,2,12.58,12.58,0,0,1,4.14,1.84,10.7,10.7,0,0,1,2.74,2.78,11.08,11.08,0,0,1,1.52,3.4,14.82,14.82,0,0,1,.47,3.7q0,8.12-5.19,12.16t-15.38,4Zm13.2-31.92h6.88q4.32,0,6.17-1.58a5.59,5.59,0,0,0,1.84-4.55q0-3.46-2-5t-6.43-1.52h-6.47Zm0,8.65V92.67h8.65a10.43,10.43,0,0,0,3.4-.49,6.19,6.19,0,0,0,2.29-1.33,5.17,5.17,0,0,0,1.3-2,7,7,0,0,0,.41-2.44,10.14,10.14,0,0,0-.38-2.86,5.31,5.31,0,0,0-1.2-2.16A5.5,5.5,0,0,0,396.23,80a9.23,9.23,0,0,0-3.2-.49Z" transform="translate(-4.35 -2.82)" style="fill:#eb743b"/><path d="M444.39,73.61l-.92-.09-1.13-.09-1.15-.08q-.56,0-1,0a11.24,11.24,0,0,0-4.92.92,5.65,5.65,0,0,0-2.75,2.84v25.75H419.87V62.14h11.88l.41,5.23a12.38,12.38,0,0,1,3.74-4.4,8.74,8.74,0,0,1,5.17-1.58,15.5,15.5,0,0,1,1.86.11,10.23,10.23,0,0,1,1.67.34Z" transform="translate(-4.35 -2.82)" style="fill:#eb743b"/><path d="M470.74,102.82a8.73,8.73,0,0,1-.7-1.67q-.28-.92-.51-2a11.67,11.67,0,0,1-9.78,4.4,15.55,15.55,0,0,1-5.32-.9,14,14,0,0,1-4.38-2.5,11.87,11.87,0,0,1-3-3.85,11.1,11.1,0,0,1-1.11-5,13.3,13.3,0,0,1,1.15-5.64,10.68,10.68,0,0,1,3.5-4.19,17.32,17.32,0,0,1,5.94-2.63,34.58,34.58,0,0,1,8.52-.92H469V75.83a6.69,6.69,0,0,0-1.13-4.1,4.36,4.36,0,0,0-3.72-1.5,4.72,4.72,0,0,0-3.35,1.09,4.38,4.38,0,0,0-1.17,3.35H446.95a11.32,11.32,0,0,1,1.26-5.26,12.35,12.35,0,0,1,3.59-4.21,18,18,0,0,1,5.62-2.78,24.9,24.9,0,0,1,7.35-1,24.08,24.08,0,0,1,6.75.9A15.15,15.15,0,0,1,476.87,65a12.67,12.67,0,0,1,3.53,4.55,14.77,14.77,0,0,1,1.28,6.33V92.56q0,2,.11,3.46a21.24,21.24,0,0,0,.34,2.58,13.34,13.34,0,0,0,.54,2,12,12,0,0,0,.73,1.62v.64Zm-7.93-8.27a7.06,7.06,0,0,0,3.93-1A6.35,6.35,0,0,0,469,91.24v-6.5h-4a8.08,8.08,0,0,0-3,.49,5.07,5.07,0,0,0-2,1.32,5,5,0,0,0-1.05,1.9,7.75,7.75,0,0,0-.32,2.24,3.63,3.63,0,0,0,1.17,2.8A4.22,4.22,0,0,0,462.81,94.55Z" transform="translate(-4.35 -2.82)" style="fill:#eb743b"/><path d="M488.6,51.65a6,6,0,0,1,.51-2.48,5.68,5.68,0,0,1,1.45-2,6.69,6.69,0,0,1,2.22-1.28,9.27,9.27,0,0,1,5.71,0,6.7,6.7,0,0,1,2.22,1.28,5.69,5.69,0,0,1,1.45,2,6.32,6.32,0,0,1,0,5,5.68,5.68,0,0,1-1.45,2,6.69,6.69,0,0,1-2.22,1.28,9.27,9.27,0,0,1-5.71,0,6.67,6.67,0,0,1-2.22-1.28,5.67,5.67,0,0,1-1.45-2A6,6,0,0,1,488.6,51.65Zm13.46,51.17H489.35V62.14h12.71Z" transform="translate(-4.35 -2.82)" style="fill:#eb743b"/><path d="M521.5,62.14l.41,4.77a13.66,13.66,0,0,1,5-4.12,15.11,15.11,0,0,1,6.6-1.41,15.81,15.81,0,0,1,5.17.81,9.61,9.61,0,0,1,4,2.67,12.6,12.6,0,0,1,2.61,4.89,26,26,0,0,1,.92,7.46v25.6H533.57V77.18a9.55,9.55,0,0,0-.39-3A4.34,4.34,0,0,0,532,72.33a3.87,3.87,0,0,0-1.8-.92,11,11,0,0,0-2.42-.24,6.51,6.51,0,0,0-3.37.79,6.2,6.2,0,0,0-2.16,2.14v28.72H509.62V62.14Z" transform="translate(-4.35 -2.82)" style="fill:#eb743b"/><path d="M568.24,93h18.54v9.78H552.22V95.75l18-23.84H553V62.14h33.35V69Z" transform="translate(-4.35 -2.82)" style="fill:#eb743b"/></g></svg>