<?xml version="1.0" encoding="utf-8"?>
<!-- Generator: Adobe Illustrator 16.0.0, SVG Export Plug-In . SVG Version: 6.00 Build 0)  -->
<!DOCTYPE svg PUBLIC "-//W3C//DTD SVG 1.1//EN" "http://www.w3.org/Graphics/SVG/1.1/DTD/svg11.dtd" [
	<!ENTITY ns_extend "http://ns.adobe.com/Extensibility/1.0/">
	<!ENTITY ns_ai "http://ns.adobe.com/AdobeIllustrator/10.0/">
	<!ENTITY ns_graphs "http://ns.adobe.com/Graphs/1.0/">
	<!ENTITY ns_vars "http://ns.adobe.com/Variables/1.0/">
	<!ENTITY ns_imrep "http://ns.adobe.com/ImageReplacement/1.0/">
	<!ENTITY ns_sfw "http://ns.adobe.com/SaveForWeb/1.0/">
	<!ENTITY ns_custom "http://ns.adobe.com/GenericCustomNamespace/1.0/">
	<!ENTITY ns_adobe_xpath "http://ns.adobe.com/XPath/1.0/">
]>
<svg version="1.1" id="Layer_1" xmlns:x="&ns_extend;" xmlns:i="&ns_ai;" xmlns:graph="&ns_graphs;"
	 xmlns="http://www.w3.org/2000/svg" xmlns:xlink="http://www.w3.org/1999/xlink" x="0px" y="0px" width="375px" height="150px"
	 viewBox="0 0 375 150" enable-background="new 0 0 375 150" xml:space="preserve">
<metadata>
	<sfw  xmlns="&ns_sfw;">
		<slices></slices>
		<sliceSourceBounds  height="144" width="366.906" y="-589" x="2966" bottomLeftOrigin="true"></sliceSourceBounds>
	</sfw>
</metadata>
<g>
</g>
<g>
	<g>
		<g>
			<polygon fill="#EB743B" points="70.354,2.823 70.354,146.823 131.354,111.823 131.354,37.823 			"/>
			<polygon fill="#771B85" points="65.354,2.823 4.354,37.823 4.354,111.823 65.354,146.823 			"/>
			<g>
				<g>
					<path fill="#591463" d="M41.814,45.301l-17.973,8.664l-9.75,52.414l17.17-4.354l14.453,10.237l9.754-52.414L41.814,45.301z
						 M38.254,63.809c-3.023-0.563-5.018-3.469-4.455-6.492c0.563-3.024,3.469-5.019,6.492-4.456c3.025,0.563,5.02,3.47,4.457,6.493
						C44.186,62.376,41.277,64.371,38.254,63.809z"/>
					<path fill="#591463" d="M65.393,42.229c-0.201-0.046-0.406-0.094-0.615-0.143c-5.787-1.35-16.445-3.828-24.182,8.8
						c-0.439-0.078-0.887-0.12-1.33-0.12c-3.641,0-6.768,2.602-7.432,6.185c-0.371,1.988,0.055,4,1.199,5.667
						c1.143,1.666,2.867,2.788,4.855,3.157c0.459,0.086,0.926,0.129,1.391,0.129c3.641,0,6.77-2.601,7.436-6.185
						c0.508-2.73-0.533-5.393-2.492-7.097c6.209-9.771,14.258-7.898,19.646-6.642c0.547,0.128,1.053,0.246,1.523,0.345V42.229z
						 M42.783,58.987c-0.355,1.904-2.24,3.208-4.162,2.855c-1.936-0.36-3.215-2.227-2.855-4.161c0.314-1.689,1.785-2.916,3.5-2.916
						c0.221,0,0.441,0.021,0.66,0.061C41.859,55.187,43.141,57.054,42.783,58.987z"/>
				</g>
				<g>
					<path fill="#B66BC2" d="M41.814,42.896L23.842,51.56l-9.75,52.414l17.17-4.354l14.453,10.237l9.754-52.414L41.814,42.896z
						 M38.254,61.403c-3.023-0.563-5.018-3.469-4.455-6.492c0.563-3.024,3.469-5.019,6.492-4.456c3.025,0.563,5.02,3.47,4.457,6.493
						C44.186,59.971,41.277,61.966,38.254,61.403z"/>
					<path fill="#FFFEDB" d="M65.393,39.823c-0.201-0.046-0.406-0.094-0.615-0.143c-5.787-1.35-16.445-3.828-24.182,8.8
						c-0.439-0.078-0.887-0.12-1.33-0.12c-3.641,0-6.768,2.602-7.432,6.185c-0.371,1.988,0.055,4,1.199,5.667
						c1.143,1.666,2.867,2.788,4.855,3.157c0.459,0.086,0.926,0.129,1.391,0.129c3.641,0,6.77-2.601,7.436-6.185
						c0.508-2.73-0.533-5.393-2.492-7.097c6.209-9.771,14.258-7.898,19.646-6.642c0.547,0.128,1.053,0.246,1.523,0.345V39.823z
						 M42.783,56.582c-0.355,1.904-2.24,3.208-4.162,2.855c-1.936-0.36-3.215-2.227-2.855-4.161c0.314-1.689,1.785-2.916,3.5-2.916
						c0.221,0,0.441,0.021,0.66,0.061C41.859,52.781,43.141,54.648,42.783,56.582z"/>
				</g>
			</g>
			<g>
				<g opacity="0.07">
					<path d="M87.656,94.557c0.386-0.645,1.066-1.03,1.819-1.03c0.378,0,0.752,0.104,1.078,0.297c1,0.601,1.331,1.899,0.735,2.898
						c-0.385,0.646-1.064,1.032-1.817,1.032c-0.379,0-0.755-0.104-1.084-0.301c-0.483-0.288-0.826-0.748-0.964-1.294
						C87.285,95.61,87.368,95.042,87.656,94.557z M100.259,116.919c-0.49,0.421-1.018,0.509-1.373,0.509
						c-0.621,0-1.207-0.269-1.608-0.734c-0.758-0.885-0.654-2.222,0.231-2.981c0.492-0.423,1.018-0.512,1.373-0.512
						c0.617,0,1.201,0.269,1.605,0.74c0.368,0.43,0.547,0.976,0.504,1.538S100.689,116.551,100.259,116.919z"/>
					<path d="M79.355,48.434c0.07,0.019,0.142,0.034,0.212,0.046C79.495,48.468,79.425,48.452,79.355,48.434z"/>
					<path d="M90.734,58.08c0.169-0.267,0.395-0.49,0.673-0.661c0.335-0.207,0.722-0.316,1.121-0.316c0.4,0,0.79,0.112,1.122,0.321
						c0.987,0.627,1.283,1.936,0.66,2.919c-0.392,0.618-1.063,0.988-1.795,0.988c-0.397,0-0.785-0.113-1.124-0.327
						C90.407,60.38,90.113,59.067,90.734,58.08z M97.113,37.893c-0.6,0.951-1.938,1.271-2.912,0.653l-0.096-0.063
						c-0.914-0.647-1.161-1.897-0.558-2.851c0.386-0.613,1.053-0.98,1.784-0.98c0.397,0,0.787,0.113,1.124,0.326
						c0.479,0.304,0.813,0.775,0.937,1.33C97.515,36.854,97.418,37.415,97.113,37.893z"/>
					<path d="M113.88,49.491c0.388-0.614,1.054-0.98,1.783-0.98c0.399,0,0.79,0.113,1.125,0.325c0.48,0.304,0.813,0.775,0.937,1.33
						c0.122,0.546,0.024,1.106-0.279,1.584c-0.598,0.951-1.938,1.272-2.912,0.653l-0.094-0.063
						C113.522,51.694,113.277,50.444,113.88,49.491z M113.88,72.954c0.388-0.614,1.054-0.98,1.783-0.98
						c0.399,0,0.79,0.112,1.125,0.326c0.48,0.304,0.813,0.774,0.937,1.329c0.122,0.546,0.024,1.107-0.279,1.585
						c-0.598,0.95-1.938,1.271-2.912,0.652l-0.094-0.063C113.522,75.157,113.277,73.907,113.88,72.954z M113.88,99.257
						c0.388-0.613,1.054-0.979,1.783-0.979c0.399,0,0.79,0.112,1.125,0.325c0.48,0.304,0.813,0.775,0.937,1.33
						c0.122,0.547,0.024,1.106-0.279,1.584c-0.598,0.951-1.938,1.271-2.912,0.653l-0.094-0.063
						C113.522,101.46,113.277,100.211,113.88,99.257z"/>
					<path d="M103.53,108.927c-1.165-1.36-2.858-2.139-4.648-2.139c-1.459,0-2.875,0.525-3.983,1.477
						c-1.612,1.383-2.326,3.429-2.087,5.397c-1.948,0.7-4.258,1.365-5.328,1.332c-0.821-0.044-1.302-0.346-2.224-0.972
						c-1.172-0.795-2.418-1.512-4.148-1.847c2.936-2.761,6.009-6.83,8.584-12.834c2.061-0.076,3.976-1.193,5.038-2.972
						c1.725-2.896,0.773-6.659-2.124-8.394c-0.949-0.565-2.032-0.864-3.134-0.864c-2.146,0-4.161,1.144-5.261,2.986
						c-0.838,1.405-1.079,3.05-0.678,4.636c0.351,1.393,1.16,2.59,2.302,3.429c-4.053,9.218-9.219,13.081-12.565,14.685
						c-0.128,0.045-0.248,0.101-0.36,0.168c-1.187,0.531-2.05,0.704-2.559,0.808v4c0.275-0.03,1.885-0.118,4.247-1.192
						c5.348-1.357,6.839-0.354,8.407,0.709c1.021,0.692,2.291,1.554,4.263,1.656c0.1,0.005,0.204,0.008,0.309,0.008
						c2.109,0,5.172-1.022,7.021-1.723c1.144,1.116,2.676,1.75,4.285,1.75l0,0c1.461,0,2.876-0.524,3.983-1.476
						c1.24-1.062,1.993-2.546,2.118-4.176C105.112,111.748,104.595,110.165,103.53,108.927z M87.656,92.151
						c0.386-0.645,1.066-1.03,1.819-1.03c0.378,0,0.752,0.104,1.078,0.297c1,0.601,1.331,1.899,0.735,2.898
						c-0.385,0.646-1.064,1.032-1.817,1.032c-0.379,0-0.755-0.104-1.084-0.301c-0.483-0.288-0.826-0.748-0.964-1.294
						C87.285,93.205,87.368,92.637,87.656,92.151z M100.259,114.514c-0.49,0.421-1.018,0.509-1.373,0.509
						c-0.621,0-1.207-0.269-1.608-0.734c-0.758-0.885-0.654-2.222,0.231-2.981c0.492-0.423,1.018-0.512,1.373-0.512
						c0.617,0,1.201,0.269,1.605,0.74c0.368,0.43,0.547,0.976,0.504,1.538S100.689,114.146,100.259,114.514z"/>
					<path d="M79.355,46.028c0.07,0.019,0.142,0.034,0.212,0.046C79.495,46.063,79.425,46.047,79.355,46.028z"/>
					<path d="M101.305,33.027c-0.357-1.599-1.317-2.964-2.708-3.844c-0.98-0.617-2.109-0.944-3.265-0.944
						c-2.117,0-4.053,1.066-5.174,2.85c-1.354,2.138-1.218,4.799,0.144,6.759c-3.646,4.124-8.706,4.313-9.942,4.293
						c-3.692-1.604-7.234-2.164-10.005-2.317v3.996c2.441,0.144,5.553,0.686,8.748,2.136c0.005,0.002,0.01,0.002,0.015,0.005
						c3.445,1.563,6.334,3.928,8.607,7.041c-0.136,0.173-0.265,0.352-0.382,0.538c-1.796,2.854-0.942,6.644,1.903,8.444
						c0.98,0.622,2.111,0.951,3.27,0.951c2.113,0,4.051-1.065,5.183-2.852c1.806-2.851,0.951-6.642-1.908-8.453
						c-1.384-0.871-3.092-1.113-4.667-0.755c-1.538-2.154-3.323-4.017-5.345-5.566c2.517-0.778,5.401-2.269,7.78-5.096
						c0.572,0.172,1.166,0.267,1.77,0.267c2.116,0,4.051-1.068,5.172-2.849C101.375,36.256,101.661,34.622,101.305,33.027z
						 M90.734,55.675c0.169-0.267,0.395-0.49,0.673-0.661c0.335-0.207,0.722-0.316,1.121-0.316c0.4,0,0.79,0.112,1.122,0.321
						c0.987,0.627,1.283,1.936,0.66,2.919c-0.392,0.618-1.063,0.988-1.795,0.988c-0.397,0-0.785-0.113-1.124-0.327
						C90.407,57.975,90.113,56.662,90.734,55.675z M97.113,35.487c-0.6,0.951-1.938,1.271-2.912,0.653l-0.096-0.063
						c-0.914-0.647-1.161-1.897-0.558-2.851c0.386-0.613,1.053-0.98,1.784-0.98c0.397,0,0.787,0.113,1.124,0.326
						c0.479,0.304,0.813,0.775,0.937,1.33C97.515,34.449,97.418,35.01,97.113,35.487z"/>
					<path d="M110,74.011c0.425,1.035,1.136,1.962,2.109,2.649c0.072,0.052,0.151,0.105,0.283,0.191
						c0.981,0.621,2.11,0.949,3.268,0.949c2.116,0,4.052-1.068,5.173-2.849c0.875-1.375,1.16-3.01,0.805-4.604
						c-0.358-1.598-1.318-2.964-2.709-3.844c-0.98-0.617-2.109-0.944-3.266-0.944c-0.125,0-0.25,0.008-0.375,0.018
						c-0.71-3.157-0.919-7.769,0.035-11.265c0.112,0.011,0.225,0.024,0.337,0.024c2.116,0,4.052-1.067,5.173-2.849
						c0.875-1.375,1.16-3.009,0.805-4.604c-0.358-1.599-1.318-2.964-2.709-3.844c-0.98-0.617-2.109-0.944-3.266-0.944
						c-2.114,0-4.051,1.066-5.173,2.85c-1.604,2.532-1.12,5.804,1.024,7.765c0.021,0.02,0.048,0.037,0.071,0.059
						c-1.349,4.518-1.146,10.324-0.036,14.417c-0.144,0.132-0.294,0.254-0.426,0.399c-0.229,0.255-0.445,0.526-0.634,0.824
						c-0.318,0.502-0.551,1.033-0.71,1.578c-3.371,0.488-5.198,1.671-6.824,2.729c-2.035,1.324-3.961,2.572-9.636,2.665
						c-1.964-0.23-3.553-0.177-5.29-0.116c-1.431,0.052-2.91,0.106-4.849,0.003c-1.335-0.071-2.104-0.882-3.458-2.424
						c-1.803-2.055-4.219-4.648-9.369-5.022v4c3.295,0.3,4.796,1.888,6.356,3.667c1.487,1.694,3.175,3.615,6.256,3.782
						c2.118,0.114,3.76,0.052,5.208,0.001c2.491-0.092,4.453-0.161,7.855,0.684c2.607,0.643,12.099,9.673,14.773,14.322
						c-0.108,0.142-0.219,0.282-0.313,0.434c-1.743,2.755-1.026,6.385,1.619,8.251c0.072,0.052,0.151,0.104,0.283,0.191
						c0.981,0.621,2.11,0.948,3.268,0.948c2.116,0,4.052-1.068,5.173-2.849c0.875-1.374,1.16-3.009,0.805-4.603
						c-0.358-1.6-1.318-2.965-2.709-3.845c-0.98-0.617-2.109-0.944-3.266-0.944c-0.528,0-1.047,0.067-1.543,0.195
						c-2.561-4.187-8.652-10.455-13.189-13.792c1.813-0.628,3.05-1.435,4.212-2.188C106.57,75.148,107.757,74.388,110,74.011z
						 M113.88,47.086c0.388-0.614,1.054-0.98,1.783-0.98c0.399,0,0.79,0.113,1.125,0.325c0.48,0.304,0.813,0.775,0.937,1.33
						c0.122,0.546,0.024,1.106-0.279,1.584c-0.598,0.951-1.938,1.272-2.912,0.653l-0.094-0.063
						C113.522,49.289,113.277,48.039,113.88,47.086z M113.88,70.549c0.388-0.614,1.054-0.98,1.783-0.98
						c0.399,0,0.79,0.112,1.125,0.326c0.48,0.304,0.813,0.774,0.937,1.329c0.122,0.546,0.024,1.107-0.279,1.585
						c-0.598,0.95-1.938,1.271-2.912,0.652l-0.094-0.063C113.522,72.752,113.277,71.502,113.88,70.549z M113.88,96.852
						c0.388-0.613,1.054-0.979,1.783-0.979c0.399,0,0.79,0.112,1.125,0.325c0.48,0.304,0.813,0.775,0.937,1.33
						c0.122,0.547,0.024,1.106-0.279,1.584c-0.598,0.951-1.938,1.271-2.912,0.653l-0.094-0.063
						C113.522,99.055,113.277,97.806,113.88,96.852z"/>
				</g>
				<g>
					<g>
						<path fill="#D3562C" d="M103.53,111.927c-1.165-1.36-2.858-2.139-4.648-2.139c-1.459,0-2.875,0.525-3.983,1.477
							c-1.612,1.383-2.326,3.429-2.087,5.397c-1.948,0.7-4.258,1.365-5.328,1.332c-0.821-0.044-1.302-0.346-2.224-0.972
							c-1.172-0.795-2.418-1.512-4.148-1.847c2.936-2.761,6.009-6.83,8.584-12.834c2.061-0.076,3.976-1.193,5.038-2.972
							c1.725-2.896,0.773-6.659-2.124-8.394c-0.949-0.565-2.032-0.864-3.134-0.864c-2.146,0-4.161,1.144-5.261,2.986
							c-0.838,1.405-1.079,3.05-0.678,4.636c0.351,1.393,1.16,2.59,2.302,3.429c-4.053,9.218-9.219,13.081-12.565,14.685
							c-0.128,0.045-0.248,0.101-0.36,0.168c-1.187,0.531-2.05,0.704-2.559,0.808v4c0.275-0.03,1.885-0.118,4.247-1.192
							c5.348-1.357,6.839-0.354,8.407,0.709c1.021,0.692,2.291,1.554,4.263,1.656c0.1,0.005,0.204,0.008,0.309,0.008
							c2.109,0,5.172-1.022,7.021-1.723c1.144,1.116,2.676,1.75,4.285,1.75l0,0c1.461,0,2.876-0.524,3.983-1.476
							c1.24-1.062,1.993-2.546,2.118-4.176C105.112,114.748,104.595,113.165,103.53,111.927z M87.656,95.151
							c0.386-0.645,1.066-1.03,1.819-1.03c0.378,0,0.752,0.104,1.078,0.297c1,0.601,1.331,1.899,0.735,2.898
							c-0.385,0.646-1.064,1.032-1.817,1.032c-0.379,0-0.755-0.104-1.084-0.301c-0.483-0.288-0.826-0.748-0.964-1.294
							C87.285,96.205,87.368,95.637,87.656,95.151z M100.259,117.514c-0.49,0.421-1.018,0.509-1.373,0.509
							c-0.621,0-1.207-0.269-1.608-0.734c-0.758-0.885-0.654-2.222,0.231-2.981c0.492-0.423,1.018-0.512,1.373-0.512
							c0.617,0,1.201,0.269,1.605,0.74c0.368,0.43,0.547,0.976,0.504,1.538S100.689,117.146,100.259,117.514z"/>
						<path d="M79.355,48.434c0.07,0.019,0.142,0.034,0.212,0.046C79.495,48.468,79.425,48.452,79.355,48.434z"/>
						<path fill="#D3562C" d="M101.305,36.031c-0.357-1.599-1.317-2.964-2.708-3.844c-0.98-0.617-2.109-0.944-3.265-0.944
							c-2.117,0-4.053,1.066-5.174,2.85c-1.354,2.138-1.218,4.799,0.144,6.759c-3.646,4.124-8.706,4.313-9.942,4.293
							c-3.692-1.604-7.234-2.164-10.005-2.317v3.996c2.441,0.144,5.553,0.686,8.748,2.136c0.005,0.002,0.01,0.002,0.015,0.005
							c3.445,1.563,6.334,3.928,8.607,7.041c-0.136,0.173-0.265,0.352-0.382,0.538c-1.796,2.854-0.942,6.644,1.903,8.444
							c0.98,0.622,2.111,0.951,3.27,0.951c2.113,0,4.051-1.065,5.183-2.852c1.806-2.851,0.951-6.642-1.908-8.453
							c-1.384-0.871-3.092-1.113-4.667-0.755c-1.538-2.154-3.323-4.017-5.345-5.566c2.517-0.778,5.401-2.269,7.78-5.096
							c0.572,0.172,1.166,0.267,1.77,0.267c2.116,0,4.051-1.068,5.172-2.849C101.375,39.26,101.661,37.626,101.305,36.031z
							 M90.734,58.679c0.169-0.267,0.395-0.49,0.673-0.661c0.335-0.207,0.722-0.316,1.121-0.316c0.4,0,0.79,0.112,1.122,0.321
							c0.987,0.627,1.283,1.936,0.66,2.919c-0.392,0.618-1.063,0.988-1.795,0.988c-0.397,0-0.785-0.113-1.124-0.327
							C90.407,60.979,90.113,59.666,90.734,58.679z M97.113,38.491c-0.6,0.951-1.938,1.271-2.912,0.653l-0.096-0.063
							c-0.914-0.647-1.161-1.897-0.558-2.851c0.386-0.613,1.053-0.98,1.784-0.98c0.397,0,0.787,0.113,1.124,0.326
							c0.479,0.304,0.813,0.775,0.937,1.33C97.515,37.453,97.418,38.014,97.113,38.491z"/>
						<path fill="#D3562C" d="M110,77.011c0.425,1.035,1.136,1.962,2.109,2.649c0.072,0.052,0.151,0.105,0.283,0.191
							c0.981,0.621,2.11,0.949,3.268,0.949c2.116,0,4.052-1.068,5.173-2.849c0.875-1.375,1.16-3.01,0.805-4.604
							c-0.358-1.598-1.318-2.964-2.709-3.844c-0.98-0.617-2.109-0.944-3.266-0.944c-0.125,0-0.25,0.008-0.375,0.018
							c-0.71-3.157-0.919-7.769,0.035-11.265c0.112,0.011,0.225,0.024,0.337,0.024c2.116,0,4.052-1.067,5.173-2.849
							c0.875-1.375,1.16-3.009,0.805-4.604c-0.358-1.599-1.318-2.964-2.709-3.844c-0.98-0.617-2.109-0.944-3.266-0.944
							c-2.114,0-4.051,1.066-5.173,2.85c-1.604,2.532-1.12,5.804,1.024,7.765c0.021,0.02,0.048,0.037,0.071,0.059
							c-1.349,4.518-1.146,10.324-0.036,14.417c-0.144,0.132-0.294,0.254-0.426,0.399c-0.229,0.255-0.445,0.526-0.634,0.824
							c-0.318,0.502-0.551,1.033-0.71,1.578c-3.371,0.488-5.198,1.671-6.824,2.729c-2.035,1.324-3.961,2.572-9.636,2.665
							c-1.964-0.23-3.553-0.177-5.29-0.116c-1.431,0.052-2.91,0.106-4.849,0.003c-1.335-0.071-2.104-0.882-3.458-2.424
							c-1.803-2.055-4.219-4.648-9.369-5.022v4c3.295,0.3,4.796,1.888,6.356,3.667c1.487,1.694,3.175,3.615,6.256,3.782
							c2.118,0.114,3.76,0.052,5.208,0.001c2.491-0.092,4.453-0.161,7.855,0.684c2.607,0.643,12.099,9.673,14.773,14.322
							c-0.108,0.142-0.219,0.282-0.313,0.434c-1.743,2.755-1.026,6.385,1.619,8.251c0.072,0.052,0.151,0.104,0.283,0.191
							c0.981,0.621,2.11,0.948,3.268,0.948c2.116,0,4.052-1.068,5.173-2.849c0.875-1.374,1.16-3.009,0.805-4.603
							c-0.358-1.6-1.318-2.965-2.709-3.845c-0.98-0.617-2.109-0.944-3.266-0.944c-0.528,0-1.047,0.067-1.543,0.195
							c-2.561-4.187-8.652-10.455-13.189-13.792c1.813-0.628,3.05-1.435,4.212-2.188C106.57,78.148,107.757,77.388,110,77.011z
							 M113.88,50.086c0.388-0.614,1.054-0.98,1.783-0.98c0.399,0,0.79,0.113,1.125,0.325c0.48,0.304,0.813,0.775,0.937,1.33
							c0.122,0.546,0.024,1.106-0.279,1.584c-0.598,0.951-1.938,1.272-2.912,0.653l-0.094-0.063
							C113.522,52.289,113.277,51.039,113.88,50.086z M113.88,73.549c0.388-0.614,1.054-0.98,1.783-0.98
							c0.399,0,0.79,0.112,1.125,0.326c0.48,0.304,0.813,0.774,0.937,1.329c0.122,0.546,0.024,1.107-0.279,1.585
							c-0.598,0.95-1.938,1.271-2.912,0.652l-0.094-0.063C113.522,75.752,113.277,74.502,113.88,73.549z M113.88,99.852
							c0.388-0.613,1.054-0.979,1.783-0.979c0.399,0,0.79,0.112,1.125,0.325c0.48,0.304,0.813,0.775,0.937,1.33
							c0.122,0.547,0.024,1.106-0.279,1.584c-0.598,0.951-1.938,1.271-2.912,0.653l-0.094-0.063
							C113.522,102.055,113.277,100.806,113.88,99.852z"/>
					</g>
					<g>
						<path fill="#FFFEDB" d="M103.53,108.927c-1.165-1.36-2.858-2.139-4.648-2.139c-1.459,0-2.875,0.525-3.983,1.477
							c-1.612,1.383-2.326,3.429-2.087,5.397c-1.948,0.7-4.258,1.365-5.328,1.332c-0.821-0.044-1.302-0.346-2.224-0.972
							c-1.172-0.795-2.418-1.512-4.148-1.847c2.936-2.761,6.009-6.83,8.584-12.834c2.061-0.076,3.976-1.193,5.038-2.972
							c1.725-2.896,0.773-6.659-2.124-8.394c-0.949-0.565-2.032-0.864-3.134-0.864c-2.146,0-4.161,1.144-5.261,2.986
							c-0.838,1.405-1.079,3.05-0.678,4.636c0.351,1.393,1.16,2.59,2.302,3.429c-4.053,9.218-9.219,13.081-12.565,14.685
							c-0.128,0.045-0.248,0.101-0.36,0.168c-1.187,0.531-2.05,0.704-2.559,0.808v4c0.275-0.03,1.885-0.118,4.247-1.192
							c5.348-1.357,6.839-0.354,8.407,0.709c1.021,0.692,2.291,1.554,4.263,1.656c0.1,0.005,0.204,0.008,0.309,0.008
							c2.109,0,5.172-1.022,7.021-1.723c1.144,1.116,2.676,1.75,4.285,1.75l0,0c1.461,0,2.876-0.524,3.983-1.476
							c1.24-1.062,1.993-2.546,2.118-4.176C105.112,111.748,104.595,110.165,103.53,108.927z M87.656,92.151
							c0.386-0.645,1.066-1.03,1.819-1.03c0.378,0,0.752,0.104,1.078,0.297c1,0.601,1.331,1.899,0.735,2.898
							c-0.385,0.646-1.064,1.032-1.817,1.032c-0.379,0-0.755-0.104-1.084-0.301c-0.483-0.288-0.826-0.748-0.964-1.294
							C87.285,93.205,87.368,92.637,87.656,92.151z M100.259,114.514c-0.49,0.421-1.018,0.509-1.373,0.509
							c-0.621,0-1.207-0.269-1.608-0.734c-0.758-0.885-0.654-2.222,0.231-2.981c0.492-0.423,1.018-0.512,1.373-0.512
							c0.617,0,1.201,0.269,1.605,0.74c0.368,0.43,0.547,0.976,0.504,1.538S100.689,114.146,100.259,114.514z"/>
						<path fill="#FFFEDB" d="M79.355,46.028c0.07,0.019,0.142,0.034,0.212,0.046C79.495,46.063,79.425,46.047,79.355,46.028z"/>
						<path fill="#FFFEDB" d="M101.305,33.027c-0.357-1.599-1.317-2.964-2.708-3.844c-0.98-0.617-2.109-0.944-3.265-0.944
							c-2.117,0-4.053,1.066-5.174,2.85c-1.354,2.138-1.218,4.799,0.144,6.759c-3.646,4.124-8.706,4.313-9.942,4.293
							c-3.692-1.604-7.234-2.164-10.005-2.317v3.996c2.441,0.144,5.553,0.686,8.748,2.136c0.005,0.002,0.01,0.002,0.015,0.005
							c3.445,1.563,6.334,3.928,8.607,7.041c-0.136,0.173-0.265,0.352-0.382,0.538c-1.796,2.854-0.942,6.644,1.903,8.444
							c0.98,0.622,2.111,0.951,3.27,0.951c2.113,0,4.051-1.065,5.183-2.852c1.806-2.851,0.951-6.642-1.908-8.453
							c-1.384-0.871-3.092-1.113-4.667-0.755c-1.538-2.154-3.323-4.017-5.345-5.566c2.517-0.778,5.401-2.269,7.78-5.096
							c0.572,0.172,1.166,0.267,1.77,0.267c2.116,0,4.051-1.068,5.172-2.849C101.375,36.256,101.661,34.622,101.305,33.027z
							 M90.734,55.675c0.169-0.267,0.395-0.49,0.673-0.661c0.335-0.207,0.722-0.316,1.121-0.316c0.4,0,0.79,0.112,1.122,0.321
							c0.987,0.627,1.283,1.936,0.66,2.919c-0.392,0.618-1.063,0.988-1.795,0.988c-0.397,0-0.785-0.113-1.124-0.327
							C90.407,57.975,90.113,56.662,90.734,55.675z M97.113,35.487c-0.6,0.951-1.938,1.271-2.912,0.653l-0.096-0.063
							c-0.914-0.647-1.161-1.897-0.558-2.851c0.386-0.613,1.053-0.98,1.784-0.98c0.397,0,0.787,0.113,1.124,0.326
							c0.479,0.304,0.813,0.775,0.937,1.33C97.515,34.449,97.418,35.01,97.113,35.487z"/>
						<path fill="#FFFEDB" d="M110,74.011c0.425,1.035,1.136,1.962,2.109,2.649c0.072,0.052,0.151,0.105,0.283,0.191
							c0.981,0.621,2.11,0.949,3.268,0.949c2.116,0,4.052-1.068,5.173-2.849c0.875-1.375,1.16-3.01,0.805-4.604
							c-0.358-1.598-1.318-2.964-2.709-3.844c-0.98-0.617-2.109-0.944-3.266-0.944c-0.125,0-0.25,0.008-0.375,0.018
							c-0.71-3.157-0.919-7.769,0.035-11.265c0.112,0.011,0.225,0.024,0.337,0.024c2.116,0,4.052-1.067,5.173-2.849
							c0.875-1.375,1.16-3.009,0.805-4.604c-0.358-1.599-1.318-2.964-2.709-3.844c-0.98-0.617-2.109-0.944-3.266-0.944
							c-2.114,0-4.051,1.066-5.173,2.85c-1.604,2.532-1.12,5.804,1.024,7.765c0.021,0.02,0.048,0.037,0.071,0.059
							c-1.349,4.518-1.146,10.324-0.036,14.417c-0.144,0.132-0.294,0.254-0.426,0.399c-0.229,0.255-0.445,0.526-0.634,0.824
							c-0.318,0.502-0.551,1.033-0.71,1.578c-3.371,0.488-5.198,1.671-6.824,2.729c-2.035,1.324-3.961,2.572-9.636,2.665
							c-1.964-0.23-3.553-0.177-5.29-0.116c-1.431,0.052-2.91,0.106-4.849,0.003c-1.335-0.071-2.104-0.882-3.458-2.424
							c-1.803-2.055-4.219-4.648-9.369-5.022v4c3.295,0.3,4.796,1.888,6.356,3.667c1.487,1.694,3.175,3.615,6.256,3.782
							c2.118,0.114,3.76,0.052,5.208,0.001c2.491-0.092,4.453-0.161,7.855,0.684c2.607,0.643,12.099,9.673,14.773,14.322
							c-0.108,0.142-0.219,0.282-0.313,0.434c-1.743,2.755-1.026,6.385,1.619,8.251c0.072,0.052,0.151,0.104,0.283,0.191
							c0.981,0.621,2.11,0.948,3.268,0.948c2.116,0,4.052-1.068,5.173-2.849c0.875-1.374,1.16-3.009,0.805-4.603
							c-0.358-1.6-1.318-2.965-2.709-3.845c-0.98-0.617-2.109-0.944-3.266-0.944c-0.528,0-1.047,0.067-1.543,0.195
							c-2.561-4.187-8.652-10.455-13.189-13.792c1.813-0.628,3.05-1.435,4.212-2.188C106.57,75.148,107.757,74.388,110,74.011z
							 M113.88,47.086c0.388-0.614,1.054-0.98,1.783-0.98c0.399,0,0.79,0.113,1.125,0.325c0.48,0.304,0.813,0.775,0.937,1.33
							c0.122,0.546,0.024,1.106-0.279,1.584c-0.598,0.951-1.938,1.272-2.912,0.653l-0.094-0.063
							C113.522,49.289,113.277,48.039,113.88,47.086z M113.88,70.549c0.388-0.614,1.054-0.98,1.783-0.98
							c0.399,0,0.79,0.112,1.125,0.326c0.48,0.304,0.813,0.774,0.937,1.329c0.122,0.546,0.024,1.107-0.279,1.585
							c-0.598,0.95-1.938,1.271-2.912,0.652l-0.094-0.063C113.522,72.752,113.277,71.502,113.88,70.549z M113.88,96.852
							c0.388-0.613,1.054-0.979,1.783-0.979c0.399,0,0.79,0.112,1.125,0.325c0.48,0.304,0.813,0.775,0.937,1.33
							c0.122,0.547,0.024,1.106-0.279,1.584c-0.598,0.951-1.938,1.271-2.912,0.653l-0.094-0.063
							C113.522,99.055,113.277,97.806,113.88,96.852z"/>
					</g>
				</g>
			</g>
		</g>
	</g>
	<g>
		<g>
			<path fill="#771B85" d="M169.073,107.474v17.999h-13.265V70.865h20.296c5.843,0,10.562,1.753,14.156,5.26
				c3.593,3.507,5.39,8.065,5.39,13.676c0,5.33-1.766,9.6-5.296,12.811c-3.532,3.21-8.234,4.831-14.109,4.862H169.073z
				 M169.073,96.552h7.031c2.156,0,3.75-0.625,4.781-1.875c1.031-1.249,1.547-2.828,1.547-4.734c0-2.438-0.579-4.383-1.734-5.836
				c-1.156-1.452-2.688-2.179-4.594-2.179h-7.031V96.552z"/>
			<path fill="#771B85" d="M203.467,66.738c0-1.897,0.604-3.449,1.812-4.657c1.207-1.207,2.817-1.812,4.83-1.812
				c2.012,0,3.622,0.604,4.829,1.812c1.208,1.208,1.812,2.76,1.812,4.657c0,1.869-0.597,3.422-1.789,4.657
				c-1.193,1.236-2.811,1.854-4.852,1.854c-2.042,0-3.659-0.618-4.852-1.854C204.063,70.16,203.467,68.607,203.467,66.738z
				 M216.274,125.473h-12.247V78.813h12.247V125.473z"/>
			<path fill="#771B85" d="M242.58,116.287c3.536,0,5.333-2.328,5.391-6.985h11.471c-0.058,5.088-1.624,9.2-4.7,12.333
				c-3.076,3.134-7.044,4.7-11.902,4.7c-6.009,0-10.594-1.868-13.756-5.605c-3.163-3.737-4.772-9.243-4.83-16.517v-3.709
				c0-7.331,1.56-12.922,4.679-16.774s7.726-5.779,13.821-5.779c5.146,0,9.199,1.589,12.161,4.766
				c2.96,3.177,4.47,7.684,4.527,13.52h-11.471c-0.029-2.645-0.46-4.678-1.294-6.102c-0.834-1.423-2.214-2.136-4.14-2.136
				c-2.128,0-3.651,0.76-4.571,2.278s-1.408,4.462-1.466,8.83v4.772c0,3.818,0.187,6.486,0.561,8.005
				c0.373,1.519,0.992,2.632,1.854,3.341S240.999,116.287,242.58,116.287z"/>
			<path fill="#771B85" d="M288.507,125.473c-0.346-0.719-0.69-1.926-1.035-3.622c-2.186,2.99-5.146,4.484-8.884,4.484
				c-3.91,0-7.151-1.294-9.724-3.881c-2.573-2.588-3.86-5.937-3.86-10.048c0-4.887,1.56-8.668,4.68-11.342
				c3.118-2.674,7.611-4.038,13.476-4.097h3.709v-3.752c0-2.098-0.36-3.579-1.078-4.441c-0.719-0.862-1.769-1.294-3.148-1.294
				c-3.048,0-4.571,1.783-4.571,5.348h-12.203c0-4.313,1.617-7.87,4.851-10.673c3.234-2.803,7.324-4.205,12.269-4.205
				c5.117,0,9.078,1.33,11.881,3.989s4.205,6.462,4.205,11.406v21.95c0.057,4.025,0.632,7.173,1.725,9.443v0.733H288.507z
				 M281.305,116.762c1.352,0,2.501-0.272,3.45-0.819c0.948-0.546,1.652-1.192,2.113-1.94v-9.703h-2.933
				c-2.07,0-3.702,0.662-4.895,1.983c-1.193,1.323-1.79,3.091-1.79,5.305C277.251,115.037,278.603,116.762,281.305,116.762z"/>
			<path fill="#771B85" d="M330.94,90.586l-4.054-0.345c-3.335,0-5.592,1.466-6.771,4.398v30.833h-12.247V78.813h11.514l0.346,5.045
				c1.926-3.938,4.585-5.908,7.978-5.908c1.38,0,2.501,0.188,3.363,0.561L330.94,90.586z"/>
			<path fill="#771B85" d="M334.735,100.72c0-7.646,1.294-13.354,3.882-17.12c2.587-3.766,6.353-5.649,11.298-5.649
				c3.594,0,6.583,1.553,8.97,4.658V59.235h12.29v66.237h-11.083l-0.561-4.743c-2.501,3.737-5.721,5.605-9.659,5.605
				c-4.888,0-8.618-1.868-11.19-5.605c-2.573-3.737-3.889-9.229-3.946-16.474V100.72z M346.982,103.781
				c0,4.601,0.489,7.813,1.467,9.639c0.977,1.826,2.63,2.738,4.959,2.738c2.415,0,4.24-1.078,5.477-3.234V91.621
				c-1.207-2.3-3.019-3.45-5.434-3.45c-2.242,0-3.881,0.905-4.916,2.717s-1.553,5.031-1.553,9.659V103.781z"/>
		</g>
		<g>
			<path fill="#EB743B" d="M164.562,23.971l4.912,18.648l4.912-18.648h8.895v27.781h-6.771V46.22l0.645-12.925l-5.461,18.457h-4.461
				l-5.436-18.362l0.643,12.83v5.532h-6.748V23.971H164.562z"/>
			<path fill="#EB743B" d="M199.431,49.58c-1.289,1.74-3.014,2.61-5.178,2.61c-2.18,0-3.832-0.749-4.959-2.248
				s-1.689-3.683-1.689-6.549v-15.38h6.209v15.533c0.029,2.312,0.797,3.466,2.303,3.466c1.42,0,2.443-0.614,3.072-1.843V28.014
				h6.252v23.738h-5.836L199.431,49.58z"/>
			<path fill="#EB743B" d="M220.382,45.39c0-0.526-0.252-1.013-0.758-1.459c-0.504-0.446-1.627-1.049-3.367-1.81
				c-2.561-1.039-4.318-2.113-5.277-3.226c-0.957-1.111-1.436-2.493-1.436-4.146c0-2.076,0.748-3.791,2.248-5.145
				c1.5-1.353,3.484-2.029,5.957-2.029c2.604,0,4.688,0.673,6.252,2.019s2.348,3.152,2.348,5.419h-6.209
				c0-1.931-0.805-2.896-2.412-2.896c-0.658,0-1.201,0.205-1.625,0.614c-0.424,0.41-0.635,0.98-0.635,1.712
				c0,0.526,0.232,0.991,0.701,1.393c0.469,0.402,1.572,0.977,3.313,1.723c2.531,0.937,4.318,1.979,5.365,3.126
				c1.045,1.148,1.568,2.637,1.568,4.465c0,2.121-0.799,3.825-2.393,5.111c-1.594,1.287-3.686,1.931-6.273,1.931
				c-1.74,0-3.277-0.34-4.607-1.02c-1.332-0.681-2.373-1.627-3.127-2.842c-0.754-1.214-1.129-2.522-1.129-3.927h5.9
				c0.029,1.083,0.281,1.895,0.758,2.436c0.475,0.541,1.254,0.812,2.336,0.812C219.548,47.649,220.382,46.896,220.382,45.39z"/>
			<path fill="#EB743B" d="M230.276,21.871c0-0.965,0.307-1.755,0.92-2.369c0.615-0.614,1.434-0.922,2.459-0.922
				c1.023,0,1.842,0.308,2.457,0.922c0.613,0.614,0.92,1.404,0.92,2.369c0,0.951-0.303,1.741-0.91,2.369
				c-0.607,0.63-1.43,0.943-2.467,0.943c-1.039,0-1.861-0.313-2.469-0.943C230.579,23.612,230.276,22.822,230.276,21.871z
				 M236.792,51.752h-6.23V28.014h6.23V51.752z"/>
			<path fill="#EB743B" d="M250.175,47.079c1.799,0,2.713-1.185,2.742-3.555h5.836c-0.029,2.589-0.826,4.681-2.393,6.275
				c-1.564,1.594-3.582,2.391-6.055,2.391c-3.057,0-5.389-0.95-6.998-2.852s-2.428-4.702-2.457-8.402V39.05
				c0-3.73,0.793-6.574,2.381-8.535c1.586-1.959,3.93-2.939,7.031-2.939c2.617,0,4.68,0.809,6.186,2.425s2.275,3.908,2.305,6.877
				h-5.836c-0.016-1.345-0.234-2.379-0.658-3.104c-0.424-0.724-1.127-1.086-2.107-1.086c-1.082,0-1.857,0.386-2.324,1.158
				c-0.469,0.773-0.717,2.271-0.746,4.492v2.428c0,1.943,0.096,3.301,0.285,4.073s0.504,1.339,0.943,1.699
				C248.749,46.899,249.37,47.079,250.175,47.079z"/>
			<path fill="#EB743B" d="M262.198,51.752V23.971h9.441c3.244,0,5.721,0.655,7.43,1.968c1.709,1.312,2.563,3.215,2.563,5.711
				c0,1.415-0.309,2.646-0.93,3.696c-0.619,1.049-1.535,1.82-2.742,2.313c1.303,0.382,2.313,1.109,3.029,2.183
				c0.715,1.073,1.072,2.389,1.072,3.946c0,2.767-0.803,4.785-2.408,6.057c-1.605,1.272-4.023,1.908-7.25,1.908H262.198z
				 M268.946,35.513h3.242c1.797-0.048,2.695-1.002,2.695-2.862c0-1.097-0.223-1.879-0.668-2.349
				c-0.445-0.469-1.129-0.703-2.051-0.703h-3.219V35.513z M268.946,40.21v5.985h3.457c0.938,0,1.658-0.255,2.158-0.766
				c0.502-0.511,0.752-1.213,0.752-2.107c0-2.011-0.811-3.048-2.434-3.112H268.946z"/>
			<path fill="#EB743B" d="M297.896,34.003l-2.061-0.175c-1.697,0-2.846,0.746-3.445,2.237v15.687h-6.23V28.014h5.857l0.176,2.567
				c0.98-2.004,2.332-3.006,4.059-3.006c0.701,0,1.273,0.096,1.711,0.285L297.896,34.003z"/>
			<path fill="#EB743B" d="M311.696,51.752c-0.176-0.365-0.352-0.979-0.527-1.843c-1.111,1.521-2.617,2.281-4.52,2.281
				c-1.988,0-3.639-0.658-4.947-1.975s-1.963-3.02-1.963-5.111c0-2.486,0.793-4.41,2.381-5.77c1.586-1.36,3.871-2.055,6.855-2.085
				h1.887v-1.908c0-1.067-0.184-1.821-0.549-2.26s-0.898-0.658-1.602-0.658c-1.551,0-2.324,0.907-2.324,2.721h-6.209
				c0-2.194,0.822-4.004,2.467-5.43c1.646-1.427,3.727-2.14,6.242-2.14c2.604,0,4.619,0.677,6.045,2.029
				c1.426,1.354,2.139,3.287,2.139,5.803v11.167c0.029,2.048,0.32,3.649,0.877,4.805v0.373H311.696z M308.032,47.32
				c0.688,0,1.271-0.139,1.756-0.417c0.482-0.277,0.84-0.606,1.074-0.987v-4.937h-1.492c-1.053,0-1.883,0.337-2.49,1.01
				s-0.91,1.572-0.91,2.698C305.97,46.442,306.657,47.32,308.032,47.32z"/>
			<path fill="#EB743B" d="M321.569,21.871c0-0.965,0.307-1.755,0.92-2.369c0.615-0.614,1.434-0.922,2.459-0.922
				c1.023,0,1.842,0.308,2.457,0.922c0.613,0.614,0.92,1.404,0.92,2.369c0,0.951-0.303,1.741-0.91,2.369
				c-0.607,0.63-1.43,0.943-2.467,0.943c-1.039,0-1.861-0.313-2.469-0.943C321.872,23.612,321.569,22.822,321.569,21.871z
				 M328.085,51.752h-6.23V28.014h6.23V51.752z"/>
			<path fill="#EB743B" d="M338.571,28.014l0.176,2.348c1.404-1.857,3.238-2.786,5.506-2.786c4.082,0,6.18,2.859,6.297,8.578v15.599
				h-6.23V36.614c0-1.346-0.201-2.322-0.604-2.929c-0.402-0.607-1.107-0.911-2.117-0.911c-1.127,0-2.004,0.578-2.633,1.733v17.244
				h-6.23V28.014H338.571z"/>
			<path fill="#EB743B" d="M361.87,46.641h9.391v5.111h-16.762v-3.851l9.17-14.71h-8.951v-5.178h16.41v3.752L361.87,46.641z"/>
		</g>
	</g>
</g>
</svg>
