<?xml version="1.0" encoding="UTF-8" standalone="no"?>
<!-- Generator: Adobe Illustrator 17.0.0, SVG Export Plug-In . SVG Version: 6.00 Build 0)  -->

<svg
   xmlns:dc="http://purl.org/dc/elements/1.1/"
   xmlns:cc="http://creativecommons.org/ns#"
   xmlns:rdf="http://www.w3.org/1999/02/22-rdf-syntax-ns#"
   xmlns:svg="http://www.w3.org/2000/svg"
   xmlns="http://www.w3.org/2000/svg"
   xmlns:xlink="http://www.w3.org/1999/xlink"
   xmlns:sodipodi="http://sodipodi.sourceforge.net/DTD/sodipodi-0.dtd"
   xmlns:inkscape="http://www.inkscape.org/namespaces/inkscape"
   version="1.1"
   id="Layer_1"
   x="0px"
   y="0px"
   width="154.28571"
   height="154.28572"
   viewBox="0 0 154.2857 154.28573"
   enable-background="new 0 0 593 150"
   xml:space="preserve"
   inkscape:version="0.91 r13725"
   sodipodi:docname="MessyBrainz_logo_no_text.svg"><metadata
     id="metadata6801"><rdf:RDF><cc:Work
         rdf:about=""><dc:format>image/svg+xml</dc:format><dc:type
           rdf:resource="http://purl.org/dc/dcmitype/StillImage" /><dc:title></dc:title></cc:Work></rdf:RDF></metadata><defs
     id="defs6799" /><sodipodi:namedview
     pagecolor="#ffffff"
     bordercolor="#666666"
     borderopacity="1"
     objecttolerance="10"
     gridtolerance="10"
     guidetolerance="10"
     inkscape:pageopacity="0"
     inkscape:pageshadow="2"
     inkscape:window-width="1207"
     inkscape:window-height="563"
     id="namedview6797"
     showgrid="false"
     fit-margin-top="0"
     fit-margin-left="0"
     fit-margin-right="0"
     fit-margin-bottom="0"
     inkscape:zoom="1"
     inkscape:cx="113.18552"
     inkscape:cy="71.823"
     inkscape:window-x="0"
     inkscape:window-y="0"
     inkscape:window-maximized="0"
     inkscape:current-layer="g6522" /><g
     id="g6520"
     transform="translate(-4.354,7.4627122)" /><g
     id="g6522"
     transform="translate(-4.354,7.4627122)"><g
       id="g6524"
       transform="translate(13.642354,-5.1428426)"><g
         id="g6526"><polygon
           points="70.354,146.823 131.355,111.823 131.355,37.823 70.354,2.823 "
           id="polygon6528"
           style="fill:#eb743b" /><polygon
           points="4.354,37.823 4.354,111.823 65.354,146.823 65.354,2.823 "
           id="polygon6530"
           style="fill:#b50437" /><g
           id="g6532"><defs
             id="defs6534"><polygon
               id="SVGID_1_"
               points="9.354,40.719 65.354,8.511 65.354,141.011 9.354,108.928 " /></defs><clipPath
             id="SVGID_2_"><use
               xlink:href="#SVGID_1_"
               overflow="visible"
               id="use6538"
               style="overflow:visible"
               x="0"
               y="0"
               width="100%"
               height="100%" /></clipPath><g
             clip-path="url(#SVGID_2_)"
             id="g6540"><g
               id="section_53_"><g
                 id="g6543"><polyline
                   id="background_60_"
                   points="3.446,45.355 2.523,46.056          1.703,46.875 1,47.796 0.428,48.804 -0.003,49.88 -0.285,51.004 -0.413,52.156 -0.385,53.315 -0.202,54.459 0.135,55.568          0.617,56.622 1.237,57.601 1.984,58.487 2.842,59.266 3.798,59.921 4.834,60.442 5.93,60.818 7.067,61.044 8.224,61.114          9.379,61.028 10.513,60.786 11.604,60.395 12.632,59.86 13.578,59.192 14.427,58.402 15.16,57.505 15.767,56.517          16.235,55.457 16.543,53.799 16.9,52.508 19.481,53.222 19.124,54.513 18.816,56.172 18.229,57.573 17.458,58.882          16.517,60.076 15.424,61.132 14.2,62.032 12.865,62.758 11.444,63.298 9.964,63.641 8.451,63.783 6.932,63.719 5.437,63.451          3.99,62.984 2.62,62.326 1.351,61.491 0.206,60.491 -0.794,59.347 -1.63,58.079 -2.289,56.709 -2.757,55.263 -3.025,53.767          -3.09,52.249 -2.95,50.736 -2.608,49.255 -2.069,47.834 -1.343,46.499 -0.444,45.273 0.611,44.18 1.804,43.239        "
                   style="fill:#8e0324;stroke:#8e0324;stroke-width:1.5" /></g><g
                 id="g6546"><g
                   id="g6548"><polyline
                     id="background_47_"
                     points="3.446,42.355 2.523,43.056           1.703,43.875 1,44.796 0.428,45.804 -0.003,46.88 -0.285,48.004 -0.413,49.156 -0.385,50.315 -0.202,51.459 0.135,52.568           0.617,53.622 1.237,54.601 1.984,55.487 2.842,56.266 3.798,56.921 4.834,57.442 5.93,57.818 7.067,58.044 8.224,58.114           9.379,58.028 10.513,57.786 11.604,57.395 12.632,56.86 13.578,56.192 14.427,55.402 15.16,54.505 15.767,53.517           16.235,52.457 16.543,50.799 16.9,49.508 19.481,50.222 19.124,51.513 18.816,53.172 18.229,54.573 17.458,55.882           16.517,57.076 15.424,58.132 14.2,59.032 12.865,59.758 11.444,60.298 9.964,60.641 8.451,60.783 6.932,60.719           5.437,60.451 3.99,59.984 2.62,59.326 1.351,58.491 0.206,57.491 -0.794,56.347 -1.63,55.079 -2.289,53.709 -2.757,52.263           -3.025,50.767 -3.09,49.249 -2.95,47.736 -2.608,46.255 -2.069,44.834 -1.343,43.499 -0.444,42.273 0.611,41.18           1.804,40.239         "
                     style="fill:#fffedb;stroke:#fffedb;stroke-width:1.5" /></g></g></g><g
               id="section_76_"><g
                 id="g6552"><polyline
                   id="background_50_"
                   points="16.547,58.084 17.568,56.959          18.429,55.707 19.113,54.35 19.608,52.913 19.905,51.423 19.999,49.906 19.887,48.39 19.573,46.904 19.061,45.473          18.361,44.124 17.486,42.882 16.451,41.769 15.276,40.805 13.982,40.008 12.592,39.393 11.132,38.971 9.629,38.749          -9.117,38.385 -10.456,38.359 -10.508,41.037 -9.169,41.063 9.577,41.427 10.72,41.618 11.827,41.96 12.878,42.449          13.854,43.075 14.736,43.826 15.509,44.689 16.159,45.649 16.673,46.687 17.044,47.786 17.262,48.924 17.326,50.081          17.233,51.236 16.985,52.368 16.588,53.457 16.047,54.482 15.373,55.425 14.578,56.268        "
                   style="fill:#8e0324;stroke:#8e0324;stroke-width:1.5" /></g><g
                 id="g6555"><g
                   id="g6557"><polyline
                     id="background_42_"
                     points="16.547,55.084 17.568,53.959           18.429,52.707 19.113,51.35 19.608,49.913 19.905,48.423 19.999,46.906 19.887,45.39 19.573,43.904 19.061,42.473           18.361,41.124 17.486,39.882 16.451,38.769 15.276,37.805 13.982,37.008 12.592,36.393 11.132,35.971 9.629,35.749           -9.117,35.385 -10.456,35.359 -10.508,38.037 -9.169,38.063 9.577,38.427 10.72,38.618 11.827,38.96 12.878,39.449           13.854,40.075 14.736,40.826 15.509,41.689 16.159,42.649 16.673,43.687 17.044,44.786 17.262,45.924 17.326,47.081           17.233,48.236 16.985,49.368 16.588,50.457 16.047,51.482 15.373,52.425 14.578,53.268         "
                     style="fill:#fffedb;stroke:#fffedb;stroke-width:1.5" /></g></g></g><g
               id="g6560"><g
                 id="g6562"><g
                   id="g6564"><polyline
                     id="background_43_"
                     points="45.72,77.796 45.925,77.643 46.142,77.49 46.373,77.337           46.618,77.185 47.865,76.468 48.158,76.312 48.469,76.16 48.799,76.014 49.167,75.869 49.458,75.764 49.666,75.695           49.765,75.663 49.868,75.631 49.976,75.599 50.089,75.567 50.207,75.535 50.329,75.503 50.458,75.472 52.415,75.031           52.586,74.994 52.766,74.961 52.953,74.929 53.149,74.9 53.354,74.875 53.567,74.853 53.79,74.835 54.023,74.822           54.265,74.815 69.734,74.807 70.357,74.806 70.354,70.823 69.732,70.824 54.263,70.832 53.916,70.841 53.583,70.857           53.263,70.881 52.957,70.911 52.663,70.947 52.382,70.987 52.113,71.031 51.855,71.079 51.609,71.129 49.581,71.587           49.397,71.631 49.221,71.676 49.052,71.721 48.89,71.767 48.736,71.812 48.588,71.858 48.446,71.903 48.197,71.986           47.828,72.118 47.347,72.305 46.873,72.51 46.426,72.725 46.004,72.946 44.637,73.729 44.284,73.945 43.952,74.163           43.639,74.381 43.345,74.598         "
                     style="fill:#8e0324" /></g><g
                   id="g6567"><g
                     id="g6569"><polyline
                       id="background_29_"
                       points="45.72,74.796 45.925,74.643 46.142,74.49 46.373,74.337            46.618,74.185 47.865,73.468 48.158,73.312 48.469,73.16 48.799,73.014 49.167,72.869 49.458,72.764 49.666,72.695            49.765,72.663 49.868,72.631 49.976,72.599 50.089,72.567 50.207,72.535 50.329,72.503 50.458,72.472 52.415,72.031            52.586,71.994 52.766,71.961 52.953,71.929 53.149,71.9 53.354,71.875 53.567,71.853 53.79,71.835 54.023,71.822            54.265,71.815 69.734,71.807 70.357,71.806 70.354,67.823 69.732,67.824 54.263,67.832 53.916,67.841 53.583,67.857            53.263,67.881 52.957,67.911 52.663,67.947 52.382,67.987 52.113,68.031 51.855,68.079 51.609,68.129 49.581,68.587            49.397,68.631 49.221,68.676 49.052,68.721 48.89,68.767 48.736,68.812 48.588,68.858 48.446,68.903 48.197,68.986            47.828,69.118 47.347,69.305 46.873,69.51 46.426,69.725 46.004,69.946 44.637,70.729 44.284,70.945 43.952,71.163            43.639,71.381 43.345,71.598          "
                       style="fill:#fffedb" /></g></g></g><g
                 id="g6572"><g
                   id="g6574"><polyline
                     id="background_45_"
                     points="42.653,81.21 42.69,81.141 42.729,81.068 42.772,80.993           42.816,80.916 42.862,80.835 42.912,80.752 42.965,80.666 43.021,80.577 43.08,80.485 43.143,80.39 43.209,80.292           43.28,80.191 43.355,80.086 43.434,79.979 43.519,79.868 43.609,79.754 43.703,79.636 43.805,79.516 43.912,79.392           44.026,79.265 44.147,79.135 44.276,79.002 44.413,78.867 44.558,78.729 44.713,78.588 44.877,78.446 45.051,78.302           45.236,78.156 45.476,77.978 45.72,77.796 43.345,74.598 43.1,74.78 42.861,74.958 42.594,75.166 42.343,75.371           42.107,75.575 41.886,75.775 41.676,75.972 41.479,76.166 41.294,76.356 41.12,76.541 40.956,76.722 40.801,76.899           40.656,77.072 40.519,77.239 40.39,77.403 40.268,77.561 40.154,77.715 40.046,77.865 39.945,78.01 39.849,78.15           39.759,78.286 39.674,78.418 39.593,78.545 39.518,78.668 39.446,78.787 39.379,78.902 39.315,79.013 39.255,79.121           39.198,79.224 39.144,79.324         "
                     style="fill:#8e0324" /></g><g
                   id="g6577"><g
                     id="g6579"><polyline
                       id="background_27_"
                       points="42.653,78.21 42.69,78.141 42.729,78.068 42.772,77.993            42.816,77.916 42.862,77.835 42.912,77.752 42.965,77.666 43.021,77.577 43.08,77.485 43.143,77.39 43.209,77.292            43.28,77.191 43.355,77.086 43.434,76.979 43.519,76.868 43.609,76.754 43.703,76.636 43.805,76.516 43.912,76.392            44.026,76.265 44.147,76.135 44.276,76.002 44.413,75.867 44.558,75.729 44.713,75.588 44.877,75.446 45.051,75.302            45.236,75.156 45.476,74.978 45.72,74.796 43.345,71.598 43.1,71.78 42.861,71.958 42.594,72.166 42.343,72.371            42.107,72.575 41.886,72.775 41.676,72.972 41.479,73.166 41.294,73.356 41.12,73.541 40.956,73.722 40.801,73.899            40.656,74.072 40.519,74.239 40.39,74.403 40.268,74.561 40.154,74.715 40.046,74.865 39.945,75.01 39.849,75.15            39.759,75.286 39.674,75.418 39.593,75.545 39.518,75.668 39.446,75.787 39.379,75.902 39.315,76.013 39.255,76.121            39.198,76.224 39.144,76.324          "
                       style="fill:#fffedb" /></g></g></g></g><g
               id="section_77_"><g
                 id="g6583"><polyline
                   id="background_48_"
                   points="-31.309,53.32 27.507,85.538          28.927,86.081 30.406,86.427 31.919,86.571 33.438,86.51 34.934,86.245 36.381,85.781 37.752,85.126 39.023,84.292          40.17,83.295 41.172,82.153 42.011,80.886 39.608,79.702 38.951,80.656 38.17,81.513 37.282,82.257 36.301,82.874          35.246,83.354 34.136,83.688 32.992,83.869 31.833,83.894 30.681,83.763 29.558,83.478 28.483,83.044 -30.006,50.98                 "
                   style="fill:#8e0324;stroke:#8e0324;stroke-width:1.5" /></g><g
                 id="g6586"><g
                   id="g6588"><polyline
                     id="background_26_"
                     points="-31.309,50.32 27.507,82.538           28.927,83.081 30.406,83.427 31.919,83.571 33.438,83.51 34.934,83.245 36.381,82.781 37.752,82.126 39.023,81.292           40.17,80.295 41.172,79.153 42.011,77.886 39.608,76.702 38.951,77.656 38.17,78.513 37.282,79.257 36.301,79.874           35.246,80.354 34.136,80.688 32.992,80.869 31.833,80.894 30.681,80.763 29.558,80.478 28.483,80.044 -30.006,47.98                   "
                     style="fill:#fffedb;stroke:#fffedb;stroke-width:1.5" /></g></g></g><g
               id="section_46_"><g
                 id="g6592"><path
                   id="background_44_"
                   d="m 3.625,99.819 0.944,5.456 0.467,1.446 0.657,1.37 0.836,1.269 0.999,1.145 1.144,1 1.269,0.837 1.37,0.659 1.446,0.468 1.496,0.269 1.518,0.065 1.513,-0.14 1.48,-0.343 1.421,-0.539 1.335,-0.725 c 4.396,-2.17 2.527,-4.479 8.743,-4.449 l -0.161,-2.903 c -5.31,-0.755 -7.111,3.676 -10.148,5.179 l -1.029,0.534 -1.091,0.391 -1.134,0.24 -1.156,0.086 -1.157,-0.071 -1.137,-0.226 -1.096,-0.377 -1.035,-0.521 -0.955,-0.656 L 9.306,108.504 8.56,107.617 7.941,106.637 7.459,105.583 7.124,104.474 3.195,92.32"
                   inkscape:connector-curvature="0"
                   style="fill:#8e0324;stroke:#8e0324;stroke-width:1.5" /></g><g
                 id="g6595"><g
                   id="g6597"><path
                     id="background_34_"
                     d="m 3.625,96.819 0.944,5.456 0.467,1.446 0.657,1.37 0.836,1.269 0.999,1.145 1.144,1 1.269,0.837 1.37,0.659 1.446,0.468 1.496,0.269 1.518,0.065 1.513,-0.14 1.48,-0.343 1.421,-0.539 1.335,-0.725 c 4.396,-2.17 2.527,-4.479 8.743,-4.449 l -0.161,-2.903 c -5.31,-0.755 -7.111,3.676 -10.148,5.179 l -1.029,0.534 -1.091,0.391 -1.134,0.24 -1.156,0.086 -1.157,-0.071 -1.137,-0.226 -1.096,-0.377 -1.035,-0.521 -0.955,-0.656 L 9.306,105.504 8.56,104.617 7.941,103.637 7.459,102.583 7.124,101.474 3.195,89.32"
                     inkscape:connector-curvature="0"
                     style="fill:#fffedb;stroke:#fffedb;stroke-width:1.5" /></g></g></g><g
               id="section_51_"><g
                 id="g6601"><polyline
                   id="background_41_"
                   points="30.102,104.703 31.523,105.242          32.859,105.968 34.084,106.866 35.177,107.922 36.118,109.115 36.89,110.424 37.479,111.825 37.874,113.292 38.067,114.799          38.056,116.319 37.84,117.823 37.423,119.285 36.814,120.677 36.022,121.974 35.063,123.153 33.954,124.192 32.715,125.072          31.369,125.777 29.94,126.295 28.455,126.615 26.94,126.733 8.394,125.797 7.238,125.884 6.105,126.126 5.014,126.518          3.986,127.053 3.04,127.722 -3.889,134.301 -5.128,135.181 -6.474,135.887 -7.903,136.404 -9.388,136.724 -10.904,136.842          -12.421,136.754 -13.912,136.463 -15.351,135.973 -16.711,135.295 -17.967,134.439 -19.096,133.422 -20.077,132.262          -20.894,130.98 -21.531,129.601 -21.976,128.148 -19.336,127.694 -18.976,128.796 -18.471,129.839 -17.83,130.804          -17.065,131.675 -16.19,132.434 -15.22,133.069 -14.174,133.567 -13.07,133.92 -11.929,134.121 -10.771,134.167          -9.617,134.055 -8.489,133.79 -7.406,133.376 -6.39,132.819 -5.458,132.13 1.193,125.782 2.417,124.882 3.752,124.155          5.173,123.615 6.653,123.27 8.166,123.129 27.073,124.058 28.226,123.947 29.355,123.681 30.437,123.266 31.453,122.71          32.385,122.021 33.216,121.213 33.931,120.301 34.516,119.3 34.961,118.23 35.258,117.11 35.402,115.96 35.389,114.801          35.22,113.654 34.898,112.541 34.43,111.481 33.822,110.494 33.088,109.598 32.239,108.808 31.292,108.141 30.264,107.606          29.173,107.215        "
                   style="fill:#8e0324;stroke:#8e0324;stroke-width:1.5" /></g><g
                 id="g6604"><g
                   id="g6606"><polyline
                     id="background_31_"
                     points="30.102,101.703 31.523,102.242           32.859,102.968 34.084,103.866 35.177,104.922 36.118,106.115 36.89,107.424 37.479,108.825 37.874,110.292 38.067,111.799           38.056,113.319 37.84,114.823 37.423,116.285 36.814,117.677 36.022,118.974 35.063,120.153 33.954,121.192 32.715,122.072           31.369,122.777 29.94,123.295 28.455,123.615 26.94,123.733 8.394,122.797 7.238,122.884 6.105,123.126 5.014,123.518           3.986,124.053 3.04,124.722 -3.889,131.301 -5.128,132.181 -6.474,132.887 -7.903,133.404 -9.388,133.724 -10.904,133.842           -12.421,133.754 -13.912,133.463 -15.351,132.973 -16.711,132.295 -17.967,131.439 -19.096,130.422 -20.077,129.262           -20.894,127.98 -21.531,126.601 -21.976,125.147 -19.336,124.694 -18.976,125.796 -18.471,126.839 -17.83,127.804           -17.065,128.675 -16.19,129.434 -15.22,130.069 -14.174,130.567 -13.07,130.92 -11.929,131.121 -10.771,131.167           -9.617,131.055 -8.489,130.79 -7.406,130.376 -6.39,129.819 -5.458,129.13 1.193,122.782 2.417,121.882 3.752,121.155           5.173,120.615 6.653,120.27 8.166,120.129 27.073,121.058 28.226,120.947 29.355,120.681 30.437,120.266 31.453,119.71           32.385,119.021 33.216,118.213 33.931,117.301 34.516,116.3 34.961,115.23 35.258,114.11 35.402,112.96 35.389,111.801           35.22,110.654 34.898,109.541 34.43,108.481 33.822,107.494 33.088,106.598 32.239,105.808 31.292,105.141 30.264,104.606           29.173,104.215         "
                     style="fill:#fffedb;stroke:#fffedb;stroke-width:1.5" /></g></g></g><g
               id="section_54_"><g
                 id="g6610"><polyline
                   id="background_37_"
                   points="-4.527,96.732 13.356,87.19          14.582,86.292 15.675,85.237 16.616,84.043 17.388,82.734 17.977,81.333 18.371,79.866 18.565,78.358 18.553,76.839          18.337,75.335 17.921,73.873 17.311,72.481 16.52,71.184 15.561,70.005 14.452,68.966 3.736,61.238 2.888,60.448          0.796,62.121 1.889,63.178 12.883,71.137 13.714,71.945 14.429,72.857 15.014,73.858 15.459,74.928 15.756,76.048          15.899,77.198 15.886,78.357 15.717,79.504 15.396,80.617 14.927,81.677 14.32,82.664 13.585,83.561 12.737,84.35          11.79,85.018 -5.786,94.369        "
                   style="fill:#8e0324;stroke:#8e0324;stroke-width:1.5" /></g><g
                 id="g6613"><g
                   id="g6615"><polyline
                     id="background_33_"
                     points="-4.527,93.732 13.356,84.19           14.582,83.292 15.675,82.237 16.616,81.043 17.388,79.734 17.977,78.333 18.371,76.866 18.565,75.358 18.553,73.839           18.337,72.335 17.921,70.873 17.311,69.481 16.52,68.184 15.561,67.005 14.452,65.966 3.736,58.238 2.888,57.448           0.796,59.121 1.889,60.178 12.883,68.137 13.714,68.945 14.429,69.857 15.014,70.858 15.459,71.928 15.756,73.048           15.899,74.198 15.886,75.357 15.717,76.504 15.396,77.617 14.927,78.677 14.32,79.664 13.585,80.561 12.737,81.35           11.79,82.018 -5.786,91.369         "
                     style="fill:#fffedb;stroke:#fffedb;stroke-width:1.5" /></g></g></g><g
               id="section_1_"><g
                 id="g6619"><polyline
                   id="background_65_"
                   points="47.21,139.608 39.163,121.005          38.367,119.71 37.405,118.534 36.292,117.499 35.051,116.622 33.703,115.921 32.272,115.408 30.786,115.092 29.271,114.979          27.754,115.071 26.263,115.367 24.826,115.861 23.468,116.543 22.215,117.403 21.089,118.423 12.51,128.471 11.653,129.252          13.151,131.473 14.293,130.471 23.124,120.164 23.997,119.402 24.965,118.764 26.01,118.263 27.113,117.907 28.254,117.702          29.412,117.654 30.566,117.761 31.694,118.023 32.778,118.435 33.796,118.989 34.73,119.674 35.564,120.48 36.281,121.39          36.869,122.389 44.751,140.67        "
                   style="fill:#8e0324;stroke:#8e0324;stroke-width:1.5" /></g><g
                 id="g6622"><g
                   id="g6624"><polyline
                     id="background_36_"
                     points="47.21,136.608 39.163,118.005           38.367,116.71 37.405,115.534 36.292,114.499 35.051,113.622 33.703,112.921 32.272,112.408 30.786,112.092 29.271,111.979           27.754,112.071 26.263,112.367 24.826,112.861 23.468,113.543 22.215,114.403 21.089,115.423 12.51,125.471 11.653,126.252           13.151,128.473 14.293,127.471 23.124,117.164 23.997,116.402 24.965,115.764 26.01,115.263 27.113,114.907 28.254,114.702           29.412,114.654 30.566,114.761 31.694,115.023 32.778,115.435 33.796,115.989 34.73,116.674 35.564,117.48 36.281,118.39           36.869,119.389 44.751,137.67         "
                     style="fill:#fffedb;stroke:#fffedb;stroke-width:1.5" /></g></g></g><g
               id="section_56_"><g
                 id="g6628"><polyline
                   id="background_35_"
                   points="-11.819,84.378 -10.675,84.194          -9.516,84.166 -8.364,84.294 36.807,96.12 37.883,96.551 38.891,97.123 39.813,97.825 40.632,98.645 41.333,99.568          41.903,100.577 42.332,101.654 49.747,132.743 49.874,133.895 49.844,135.054 49.658,136.198 49.32,137.306 48.835,138.359          48.214,139.337 47.466,140.223 46.606,140.999 45.649,141.653 44.612,142.172 43.515,142.547 42.378,142.77 41.221,142.838          40.066,142.75 38.933,142.507 37.843,142.114 36.815,141.577 35.87,140.907 34.02,142.844 35.244,143.746 36.577,144.475          37.997,145.017 39.477,145.363 40.99,145.507 42.508,145.445 44.005,145.18 45.451,144.716 46.822,144.061 48.093,143.227          49.24,142.23 50.242,141.087 51.081,139.82 51.741,138.451 52.211,137.006 52.483,135.511 52.55,133.993 52.413,132.479          44.938,101.033 44.401,99.611 43.678,98.275 42.782,97.048 41.728,95.953 40.536,95.009 39.229,94.235 37.829,93.644          -7.685,81.703 -9.192,81.507 -10.712,81.516 -12.216,81.729        "
                   style="fill:#8e0324;stroke:#8e0324;stroke-width:1.5" /></g><g
                 id="g6631"><g
                   id="g6633"><polyline
                     id="background_30_"
                     points="-11.819,81.378 -10.675,81.194           -9.516,81.166 -8.364,81.294 36.807,93.12 37.883,93.551 38.891,94.123 39.813,94.825 40.632,95.645 41.333,96.568           41.903,97.577 42.332,98.654 49.747,129.743 49.874,130.895 49.844,132.054 49.658,133.198 49.32,134.306 48.835,135.359           48.214,136.337 47.466,137.223 46.606,137.999 45.649,138.653 44.612,139.172 43.515,139.547 42.378,139.77 41.221,139.838           40.066,139.75 38.933,139.507 37.843,139.114 36.815,138.577 35.87,137.907 34.02,139.844 35.244,140.746 36.577,141.475           37.997,142.017 39.477,142.363 40.99,142.507 42.508,142.445 44.005,142.18 45.451,141.716 46.822,141.061 48.093,140.227           49.24,139.23 50.242,138.087 51.081,136.82 51.741,135.451 52.211,134.006 52.483,132.511 52.55,130.993 52.413,129.479           44.938,98.033 44.401,96.611 43.678,95.275 42.782,94.048 41.728,92.953 40.536,92.009 39.229,91.235 37.829,90.644           -7.685,78.703 -9.192,78.507 -10.712,78.516 -12.216,78.729         "
                     style="fill:#fffedb;stroke:#fffedb;stroke-width:1.5" /></g></g></g><g
               id="background_57_"><g
                 id="g6637"><polygon
                   points="33.169,77.622 32.235,78.307 31.216,78.86 30.132,79.272 29.003,79.533 29.222,82.202 30.709,81.887 32.139,81.375 33.488,80.674 34.73,79.799 35.843,78.763 36.806,77.588 37.602,76.294 38.216,74.904 38.638,73.444 38.859,71.94 38.876,70.421 38.688,68.913 38.299,67.444 37.715,66.041 36.948,64.729 36.011,63.533 34.921,62.473 33.699,61.57 32.366,60.84 30.947,60.297 17.712,57.284 16.598,56.965 15.537,56.499 14.549,55.894 13.651,55.161 12.86,54.314 12.19,53.368 11.653,52.341 11.26,51.251 11.017,50.118 10.929,48.962 10.998,47.805 11.221,46.668 11.596,45.571 12.115,44.535 12.769,43.578 13.546,42.718 14.432,41.971 15.41,41.349 16.463,40.865 17.571,40.527 18.715,40.341 19.874,40.312 21.026,40.438 22.15,40.719 23.227,41.148 24.236,41.718 25.158,42.419 25.978,43.239 26.681,44.161 29.024,42.864 28.126,41.638 27.071,40.544 25.878,39.603 24.57,38.83 23.169,38.241 21.701,37.846 20.194,37.652 18.674,37.663 17.17,37.879 15.708,38.295 14.316,38.904 13.019,39.695 11.84,40.653 10.8,41.762 9.92,43.001 9.214,44.346 8.696,45.775 8.375,47.261 8.257,48.776 8.344,50.293 8.635,51.784 9.124,53.223 9.802,54.583 10.658,55.839 11.674,56.969 12.834,57.951 14.115,58.768 15.495,59.406 16.948,59.851 17.12,59.896 30.008,62.805 31.098,63.2 32.125,63.738 33.069,64.409 33.915,65.201 34.647,66.1 35.25,67.089 35.715,68.151 36.033,69.266 36.198,70.413 36.207,71.572 36.059,72.721 35.758,73.84 35.309,74.909 34.721,75.907 34.003,76.817 "
                   id="polygon6639"
                   style="fill:#8e0324" /><polygon
                   points="33.169,77.622 32.235,78.307 31.216,78.86 30.132,79.272 29.003,79.533 29.222,82.202 30.709,81.887 32.139,81.375 33.488,80.674 34.73,79.799 35.843,78.763 36.806,77.588 37.602,76.294 38.216,74.904 38.638,73.444 38.859,71.94 38.876,70.421 38.688,68.913 38.299,67.444 37.715,66.041 36.948,64.729 36.011,63.533 34.921,62.473 33.699,61.57 32.366,60.84 30.947,60.297 17.712,57.284 16.598,56.965 15.537,56.499 14.549,55.894 13.651,55.161 12.86,54.314 12.19,53.368 11.653,52.341 11.26,51.251 11.017,50.118 10.929,48.962 10.998,47.805 11.221,46.668 11.596,45.571 12.115,44.535 12.769,43.578 13.546,42.718 14.432,41.971 15.41,41.349 16.463,40.865 17.571,40.527 18.715,40.341 19.874,40.312 21.026,40.438 22.15,40.719 23.227,41.148 24.236,41.718 25.158,42.419 25.978,43.239 26.681,44.161 29.024,42.864 28.126,41.638 27.071,40.544 25.878,39.603 24.57,38.83 23.169,38.241 21.701,37.846 20.194,37.652 18.674,37.663 17.17,37.879 15.708,38.295 14.316,38.904 13.019,39.695 11.84,40.653 10.8,41.762 9.92,43.001 9.214,44.346 8.696,45.775 8.375,47.261 8.257,48.776 8.344,50.293 8.635,51.784 9.124,53.223 9.802,54.583 10.658,55.839 11.674,56.969 12.834,57.951 14.115,58.768 15.495,59.406 16.948,59.851 17.12,59.896 30.008,62.805 31.098,63.2 32.125,63.738 33.069,64.409 33.915,65.201 34.647,66.1 35.25,67.089 35.715,68.151 36.033,69.266 36.198,70.413 36.207,71.572 36.059,72.721 35.758,73.84 35.309,74.909 34.721,75.907 34.003,76.817 "
                   id="polygon6641"
                   style="fill:none;stroke:#8e0324;stroke-width:1.5" /></g><g
                 id="g6643"><polygon
                   points="33.169,74.622 32.235,75.307 31.216,75.86 30.132,76.272 29.003,76.533 29.222,79.202 30.709,78.887 32.139,78.375 33.488,77.674 34.73,76.799 35.843,75.763 36.806,74.588 37.602,73.294 38.216,71.904 38.638,70.444 38.859,68.94 38.876,67.421 38.688,65.913 38.299,64.444 37.715,63.041 36.948,61.729 36.011,60.533 34.921,59.473 33.699,58.57 32.366,57.84 30.947,57.297 17.712,54.284 16.598,53.965 15.537,53.499 14.549,52.894 13.651,52.161 12.86,51.314 12.19,50.368 11.653,49.341 11.26,48.251 11.017,47.118 10.929,45.962 10.998,44.805 11.221,43.668 11.596,42.571 12.115,41.535 12.769,40.578 13.546,39.718 14.432,38.971 15.41,38.349 16.463,37.865 17.571,37.527 18.715,37.341 19.874,37.312 21.026,37.438 22.15,37.719 23.227,38.148 24.236,38.718 25.158,39.419 25.978,40.239 26.681,41.161 29.024,39.864 28.126,38.638 27.071,37.544 25.878,36.603 24.57,35.83 23.169,35.241 21.701,34.846 20.194,34.652 18.674,34.663 17.17,34.879 15.708,35.295 14.316,35.904 13.019,36.695 11.84,37.653 10.8,38.762 9.92,40.001 9.214,41.346 8.696,42.775 8.375,44.261 8.257,45.776 8.344,47.293 8.635,48.784 9.124,50.223 9.802,51.583 10.658,52.839 11.674,53.969 12.834,54.951 14.115,55.768 15.495,56.406 16.948,56.851 17.12,56.896 30.008,59.805 31.098,60.2 32.125,60.738 33.069,61.409 33.915,62.201 34.647,63.1 35.25,64.089 35.715,65.151 36.033,66.266 36.198,67.413 36.207,68.572 36.059,69.721 35.758,70.84 35.309,71.909 34.721,72.907 34.003,73.817 "
                   id="polygon6645"
                   style="fill:#fffedb" /><polygon
                   points="33.169,74.622 32.235,75.307 31.216,75.86 30.132,76.272 29.003,76.533 29.222,79.202 30.709,78.887 32.139,78.375 33.488,77.674 34.73,76.799 35.843,75.763 36.806,74.588 37.602,73.294 38.216,71.904 38.638,70.444 38.859,68.94 38.876,67.421 38.688,65.913 38.299,64.444 37.715,63.041 36.948,61.729 36.011,60.533 34.921,59.473 33.699,58.57 32.366,57.84 30.947,57.297 17.712,54.284 16.598,53.965 15.537,53.499 14.549,52.894 13.651,52.161 12.86,51.314 12.19,50.368 11.653,49.341 11.26,48.251 11.017,47.118 10.929,45.962 10.998,44.805 11.221,43.668 11.596,42.571 12.115,41.535 12.769,40.578 13.546,39.718 14.432,38.971 15.41,38.349 16.463,37.865 17.571,37.527 18.715,37.341 19.874,37.312 21.026,37.438 22.15,37.719 23.227,38.148 24.236,38.718 25.158,39.419 25.978,40.239 26.681,41.161 29.024,39.864 28.126,38.638 27.071,37.544 25.878,36.603 24.57,35.83 23.169,35.241 21.701,34.846 20.194,34.652 18.674,34.663 17.17,34.879 15.708,35.295 14.316,35.904 13.019,36.695 11.84,37.653 10.8,38.762 9.92,40.001 9.214,41.346 8.696,42.775 8.375,44.261 8.257,45.776 8.344,47.293 8.635,48.784 9.124,50.223 9.802,51.583 10.658,52.839 11.674,53.969 12.834,54.951 14.115,55.768 15.495,56.406 16.948,56.851 17.12,56.896 30.008,59.805 31.098,60.2 32.125,60.738 33.069,61.409 33.915,62.201 34.647,63.1 35.25,64.089 35.715,65.151 36.033,66.266 36.198,67.413 36.207,68.572 36.059,69.721 35.758,70.84 35.309,71.909 34.721,72.907 34.003,73.817 "
                   id="polygon6647"
                   style="fill:none;stroke:#fffedb;stroke-width:1.5" /></g></g><g
               id="section_59_"><g
                 id="g6650"><path
                   id="background_32_"
                   d="m 54.963,41.794 -0.424,-1.459 -0.616,-1.389 -0.798,-1.293 -5.646,-7.142 -1.114,-1.034 -1.243,-0.874 -1.349,-0.699 -1.432,-0.511 -1.487,-0.313 -1.516,-0.11 -1.517,0.095 -1.49,0.299 -1.436,0.496 -1.356,0.685 -1.252,0.862 -1.124,1.022 -0.976,1.165 -2.063,3.236 -0.742,0.89 -0.855,0.782 -0.953,0.66 -1.033,0.525 -1.094,0.381 -1.136,0.23 -1.156,0.075 -1.156,-0.081 c 0,0 -1.919,-0.553 -3.594,-2.855 -1.675,-2.302 -4.559,-2.587 -2.25,1.42 2.309,4.007 5.271,4.052 5.271,4.052 l 1.514,0.134 1.518,-0.071 1.495,-0.275 1.444,-0.473 1.367,-0.663 1.265,-0.841 1.14,-1.004 0.995,-1.149 2.278,-3.526 0.761,-0.874 0.872,-0.764 0.966,-0.639 1.044,-0.503 1.102,-0.358 1.141,-0.207 1.158,-0.051 1.154,0.106 1.129,0.26 1.084,0.41 1.019,0.552 0.936,0.684 0.835,0.804 5.4,6.876 0.59,0.998 0.45,1.068 0.302,1.119"
                   inkscape:connector-curvature="0"
                   style="fill:#8e0324;stroke:#8e0324;stroke-width:1.5" /></g><g
                 id="g6653"><g
                   id="g6655"><path
                     id="background_23_"
                     d="m 54.963,38.794 -0.424,-1.459 -0.616,-1.389 -0.798,-1.293 -5.646,-7.142 -1.114,-1.034 -1.243,-0.874 -1.349,-0.699 -1.432,-0.511 -1.487,-0.313 -1.516,-0.11 -1.517,0.095 -1.49,0.299 -1.436,0.496 -1.356,0.685 -1.252,0.862 -1.124,1.022 -0.976,1.165 -2.063,3.236 -0.742,0.89 -0.855,0.782 -0.953,0.66 -1.033,0.525 -1.094,0.381 -1.136,0.23 -1.156,0.075 -1.156,-0.081 c 0,0 -1.919,-0.553 -3.594,-2.855 -1.675,-2.302 -4.559,-2.587 -2.25,1.42 2.309,4.007 5.271,4.052 5.271,4.052 l 1.514,0.134 1.518,-0.071 1.495,-0.275 1.444,-0.473 1.367,-0.663 1.265,-0.841 1.14,-1.004 0.995,-1.149 2.278,-3.526 0.761,-0.874 0.872,-0.764 0.966,-0.639 1.044,-0.503 1.102,-0.358 1.141,-0.207 1.158,-0.051 1.154,0.106 1.129,0.26 1.084,0.41 1.019,0.552 0.936,0.684 0.835,0.804 5.4,6.876 0.59,0.998 0.45,1.068 0.302,1.119"
                     inkscape:connector-curvature="0"
                     style="fill:#fffedb;stroke:#fffedb;stroke-width:1.5" /></g></g></g><g
               id="g6658"><g
                 id="section_61_"><g
                   id="g6661"><polyline
                     id="background_59_"
                     points="28.831,58.769 37.524,37.727           48.627,8.323 46.152,7.3 35.049,36.704 26.355,57.746         "
                     style="fill:#8e0324;stroke:#8e0324;stroke-width:1.5" /></g><g
                   id="g6664"><g
                     id="g6666"><polyline
                       id="background_25_"
                       points="28.831,55.769 37.524,34.727            48.627,5.323 46.152,4.3 35.049,33.704 26.355,54.746          "
                       style="fill:#fffedb;stroke:#fffedb;stroke-width:1.5" /></g></g></g><g
                 id="section_62_"><g
                   id="g6670"><polyline
                     id="background_64_"
                     points="31.496,103.332 32.91,102.773           34.235,102.029 35.447,101.114 36.526,100.043 37.45,98.837 38.204,97.517 38.773,96.108 39.147,94.635 39.319,93.125           39.286,91.606 39.049,90.105 38.612,88.649 37.983,87.266 37.174,85.98 36.198,84.815 35.075,83.791 33.824,82.929           28.028,79.95 27.073,79.295 26.214,78.517 25.468,77.63 24.848,76.65 24.365,75.597 24.029,74.488 23.846,73.343           23.818,72.185 23.946,71.033 24.229,69.909 28.32,60.007 28.831,58.769 26.355,57.746 25.844,58.984 21.753,68.886           21.356,70.353 21.159,71.86 21.167,73.379 21.38,74.884 21.794,76.346 22.401,77.74 23.19,79.038 24.146,80.219           25.253,81.26 26.49,82.143 32.595,85.309 33.536,85.984 34.379,86.78 35.106,87.683 35.705,88.675 36.165,89.739           36.478,90.854 36.637,92.002 36.641,93.161 36.488,94.31 36.182,95.428 35.728,96.494 35.135,97.49 34.413,98.396           33.576,99.198 32.638,99.879 31.617,100.427 30.531,100.833         "
                     style="fill:#8e0324;stroke:#8e0324;stroke-width:1.5" /></g><g
                   id="g6673"><g
                     id="g6675"><polyline
                       id="background_49_"
                       points="31.496,100.332 32.91,99.773            34.235,99.029 35.447,98.114 36.526,97.043 37.45,95.837 38.204,94.517 38.773,93.108 39.147,91.635 39.319,90.125            39.286,88.606 39.049,87.105 38.612,85.649 37.983,84.266 37.174,82.98 36.198,81.815 35.075,80.791 33.824,79.929            28.028,76.95 27.073,76.295 26.214,75.517 25.468,74.63 24.848,73.65 24.365,72.597 24.029,71.488 23.846,70.343            23.818,69.185 23.946,68.033 24.229,66.909 28.32,57.007 28.831,55.769 26.355,54.746 25.844,55.984 21.753,65.886            21.356,67.353 21.159,68.86 21.167,70.379 21.38,71.884 21.794,73.346 22.401,74.74 23.19,76.038 24.146,77.219            25.253,78.26 26.49,79.143 32.595,82.309 33.536,82.984 34.379,83.78 35.106,84.683 35.705,85.675 36.165,86.739            36.478,87.854 36.637,89.002 36.641,90.161 36.488,91.31 36.182,92.428 35.728,93.494 35.135,94.49 34.413,95.396            33.576,96.198 32.638,96.879 31.617,97.427 30.531,97.833          "
                       style="fill:#fffedb;stroke:#fffedb;stroke-width:1.5" /></g></g></g></g><g
               id="section_52_"><g
                 id="g6679"><path
                   id="background_38_"
                   d="m -6.707,62.534 0.929,26.949 0.268,1.496 0.467,1.446 0.657,1.37 0.836,1.269 0.999,1.145 1.144,1 1.269,0.837 1.37,0.658 1.446,0.468 25.187,4.724 c 0,0 2.177,0.177 3.631,-0.564 l -0.965,-2.499 C 29.635,101.292 28,101.221 28,101.221 L 3.173,96.54 2.077,96.163 1.042,95.642 0.087,94.986 -0.772,94.207 -1.518,93.32 -2.137,92.34 -2.619,91.286 -2.955,90.176 -3.138,89.032 -4.031,62.442"
                   inkscape:connector-curvature="0"
                   style="fill:#8e0324;stroke:#8e0324;stroke-width:1.5;stroke-linecap:square;stroke-linejoin:round" /></g><g
                 id="g6682"><g
                   id="g6684"><path
                     id="background_24_"
                     d="m -6.707,59.534 0.929,26.949 0.268,1.496 0.467,1.446 0.657,1.37 0.836,1.269 0.999,1.145 1.144,1 1.269,0.837 1.37,0.658 1.446,0.468 25.187,4.724 c 0,0 2.177,0.177 3.631,-0.564 L 30.531,97.833 C 29.635,98.292 28,98.221 28,98.221 L 3.173,93.54 2.077,93.163 1.042,92.642 0.087,91.986 -0.772,91.207 -1.518,90.32 -2.137,89.34 -2.619,88.286 -2.955,87.176 -3.138,86.032 -4.031,59.442"
                     inkscape:connector-curvature="0"
                     style="fill:#fffedb;stroke:#fffedb;stroke-width:1.5;stroke-linecap:square;stroke-linejoin:round" /></g></g></g><g
               id="background_4_"><g
                 id="g6688"><polyline
                   points="17.194,95.726 18.648,95.286 20.031,94.655 21.315,93.844 22.479,92.866 23.5,91.741          24.361,90.488 25.045,89.131 25.54,87.694 28.214,74.756 28.589,73.659 29.108,72.623 29.762,71.666 41.68,58.728          42.54,57.476 43.225,56.119 43.72,54.682 44.017,53.192 44.11,51.675 43.999,50.159 43.684,48.672 43.172,47.242          42.472,45.893 41.597,44.651 40.562,43.537 39.387,42.574 38.092,41.778 36.703,41.162 35.243,40.74 33.74,40.519          32.22,40.501 30.712,40.689 29.243,41.078 30.251,43.559 31.377,43.284 32.529,43.162 33.688,43.196 34.831,43.387          35.938,43.729 36.989,44.218 37.965,44.844 38.847,45.595 39.62,46.458 40.27,47.418 40.785,48.456 41.155,49.555          41.374,50.693 41.437,51.85 41.345,53.005 41.097,54.137 40.699,55.226 40.158,56.251 39.485,57.194 27.793,69.85          26.913,71.088 26.207,72.434 25.689,73.863 22.917,87.15 22.519,88.239 21.979,89.263 21.305,90.206 20.51,91.05          19.609,91.779 18.618,92.38 17.555,92.841 16.439,93.156        "
                   id="polyline6690"
                   style="fill:#8e0324" /><polyline
                   points="17.194,95.726 18.648,95.286 20.031,94.655          21.315,93.844 22.479,92.866 23.5,91.741 24.361,90.488 25.045,89.131 25.54,87.694 28.214,74.756 28.589,73.659          29.108,72.623 29.762,71.666 41.68,58.728 42.54,57.476 43.225,56.119 43.72,54.682 44.017,53.192 44.11,51.675          43.999,50.159 43.684,48.672 43.172,47.242 42.472,45.893 41.597,44.651 40.562,43.537 39.387,42.574 38.092,41.778          36.703,41.162 35.243,40.74 33.74,40.519 32.22,40.501 30.712,40.689 29.243,41.078 30.251,43.559 31.377,43.284          32.529,43.162 33.688,43.196 34.831,43.387 35.938,43.729 36.989,44.218 37.965,44.844 38.847,45.595 39.62,46.458          40.27,47.418 40.785,48.456 41.155,49.555 41.374,50.693 41.437,51.85 41.345,53.005 41.097,54.137 40.699,55.226          40.158,56.251 39.485,57.194 27.793,69.85 26.913,71.088 26.207,72.434 25.689,73.863 22.917,87.15 22.519,88.239          21.979,89.263 21.305,90.206 20.51,91.05 19.609,91.779 18.618,92.38 17.555,92.841 16.439,93.156        "
                   id="polyline6692"
                   style="fill:none;stroke:#8e0324;stroke-width:1.5" /></g><g
                 id="g6694"><polyline
                   points="17.194,92.726 18.648,92.286 20.031,91.655 21.315,90.844 22.479,89.866 23.5,88.741          24.361,87.488 25.045,86.131 25.54,84.694 28.214,71.756 28.589,70.659 29.108,69.623 29.762,68.666 41.68,55.728          42.54,54.476 43.225,53.119 43.72,51.682 44.017,50.192 44.11,48.675 43.999,47.159 43.684,45.672 43.172,44.242          42.472,42.893 41.597,41.651 40.562,40.537 39.387,39.574 38.092,38.778 36.703,38.162 35.243,37.74 33.74,37.519          32.22,37.501 30.712,37.689 29.243,38.078 30.251,40.559 31.377,40.284 32.529,40.162 33.688,40.196 34.831,40.387          35.938,40.729 36.989,41.218 37.965,41.844 38.847,42.595 39.62,43.458 40.27,44.418 40.785,45.456 41.155,46.555          41.374,47.693 41.437,48.85 41.345,50.005 41.097,51.137 40.699,52.226 40.158,53.251 39.485,54.194 27.793,66.85          26.913,68.088 26.207,69.434 25.689,70.863 22.917,84.15 22.519,85.239 21.979,86.263 21.305,87.206 20.51,88.05          19.609,88.779 18.618,89.38 17.555,89.841 16.439,90.156        "
                   id="polyline6696"
                   style="fill:#fffedb" /><polyline
                   points="17.194,92.726 18.648,92.286 20.031,91.655          21.315,90.844 22.479,89.866 23.5,88.741 24.361,87.488 25.045,86.131 25.54,84.694 28.214,71.756 28.589,70.659          29.108,69.623 29.762,68.666 41.68,55.728 42.54,54.476 43.225,53.119 43.72,51.682 44.017,50.192 44.11,48.675          43.999,47.159 43.684,45.672 43.172,44.242 42.472,42.893 41.597,41.651 40.562,40.537 39.387,39.574 38.092,38.778          36.703,38.162 35.243,37.74 33.74,37.519 32.22,37.501 30.712,37.689 29.243,38.078 30.251,40.559 31.377,40.284          32.529,40.162 33.688,40.196 34.831,40.387 35.938,40.729 36.989,41.218 37.965,41.844 38.847,42.595 39.62,43.458          40.27,44.418 40.785,45.456 41.155,46.555 41.374,47.693 41.437,48.85 41.345,50.005 41.097,51.137 40.699,52.226          40.158,53.251 39.485,54.194 27.793,66.85 26.913,68.088 26.207,69.434 25.689,70.863 22.917,84.15 22.519,85.239          21.979,86.263 21.305,87.206 20.51,88.05 19.609,88.779 18.618,89.38 17.555,89.841 16.439,90.156        "
                   id="polyline6698"
                   style="fill:none;stroke:#fffedb;stroke-width:1.5" /></g></g><g
               id="section_70_"><g
                 id="g6701"><polyline
                   id="background_22_"
                   points="52.358,42.418 52.64,43.542          52.768,44.694 52.739,45.853 52.555,46.997 52.218,48.106 51.736,49.16 51.115,50.139 50.368,51.025 49.509,51.803          48.553,52.458 47.518,52.978 46.421,53.354 45.284,53.579 44.127,53.649 42.972,53.562 41.838,53.32 40.747,52.929          38.773,51.724 38.773,51.724 29.782,43.75 27.434,44.901 36.926,53.665 38.151,54.564 39.485,55.291 40.906,55.832          42.386,56.176 43.899,56.318 45.418,56.254 46.913,55.987 48.36,55.521 49.73,54.864 51,54.028 52.145,53.03 53.145,51.886          53.983,50.617 54.641,49.248 55.11,47.802 55.379,46.306 55.444,44.788 55.305,43.275 54.963,41.794        "
                   style="fill:#8e0324;stroke:#8e0324;stroke-width:1.5" /></g><g
                 id="g6704"><g
                   id="g6706"><polyline
                     id="background_18_"
                     points="52.358,39.418 52.64,40.542           52.768,41.694 52.739,42.853 52.555,43.997 52.218,45.106 51.736,46.16 51.115,47.139 50.368,48.025 49.509,48.803           48.553,49.458 47.518,49.978 46.421,50.354 45.284,50.579 44.127,50.649 42.972,50.562 41.838,50.32 40.747,49.929           38.773,48.724 38.773,48.724 29.782,40.75 27.434,41.901 36.926,50.665 38.151,51.564 39.485,52.291 40.906,52.832           42.386,53.176 43.899,53.318 45.418,53.254 46.913,52.987 48.36,52.521 49.73,51.864 51,51.028 52.145,50.03 53.145,48.886           53.983,47.617 54.641,46.248 55.11,44.802 55.379,43.306 55.444,41.788 55.305,40.275 54.963,38.794         "
                     style="fill:#fffedb;stroke:#fffedb;stroke-width:1.5" /></g></g></g><g
               id="section_55_"><g
                 id="g6710"><polyline
                   id="background_20_"
                   points="2.889,105.286 9.137,99.088          10.022,98.34 11,97.718 12.053,97.234 15.908,96.103 17.194,95.726 16.439,93.156 15.154,93.533 11.299,94.664 9.907,95.273          8.609,96.064 7.43,97.023 0.92,103.47        "
                   style="fill:#8e0324;stroke:#8e0324;stroke-width:1.5" /></g><g
                 id="g6713"><g
                   id="g6715"><polyline
                     id="background_17_"
                     points="2.889,102.286 9.137,96.088           10.022,95.34 11,94.718 12.053,94.234 15.908,93.103 17.194,92.726 16.439,90.156 15.154,90.533 11.299,91.664           9.907,92.273 8.609,93.064 7.43,94.023 0.92,100.47         "
                     style="fill:#fffedb;stroke:#fffedb;stroke-width:1.5" /></g></g></g><g
               id="background_3_"><g
                 id="g6719"><path
                   d="m 32.22,40.501 -1.508,0.188 -1.469,0.389 -12.408,5.041 -1.241,0.504 -13.2,5.424 0.665,2.595 13.544,-5.537 1.241,-0.504 12.408,-5.041 1.126,-0.276 1.153,-0.122 c 0,0 1.893,-0.024 2.729,0.357"
                   id="path6721"
                   inkscape:connector-curvature="0"
                   style="fill:#8e0324" /><path
                   d="m 32.22,40.501 -1.508,0.188 -1.469,0.389 -12.408,5.041 -1.241,0.504 -13.2,5.424 0.665,2.595 13.544,-5.537 1.241,-0.504 12.408,-5.041 1.126,-0.276 1.153,-0.122 c 0,0 1.893,-0.024 2.729,0.357"
                   id="path6723"
                   inkscape:connector-curvature="0"
                   style="fill:none;stroke:#8e0324;stroke-width:1.5" /></g><g
                 id="g6725"><path
                   d="m 32.22,37.501 -1.508,0.188 -1.469,0.389 -12.408,5.041 -1.241,0.504 -13.2,5.424 0.665,2.595 13.544,-5.537 1.241,-0.504 12.408,-5.041 1.126,-0.276 1.153,-0.122 c 0,0 1.893,-0.024 2.729,0.357"
                   id="path6727"
                   inkscape:connector-curvature="0"
                   style="fill:#fffedb" /><path
                   d="m 32.22,37.501 -1.508,0.188 -1.469,0.389 -12.408,5.041 -1.241,0.504 -13.2,5.424 0.665,2.595 13.544,-5.537 1.241,-0.504 12.408,-5.041 1.126,-0.276 1.153,-0.122 c 0,0 1.893,-0.024 2.729,0.357"
                   id="path6729"
                   inkscape:connector-curvature="0"
                   style="fill:none;stroke:#fffedb;stroke-width:1.5" /></g></g></g></g><g
           id="g6731"><g
             id="g6733"
             style="opacity:0.07000002"><path
               d="m 87.656,94.557 c 0.386,-0.645 1.066,-1.03 1.819,-1.03 0.378,0 0.752,0.104 1.078,0.297 1,0.601 1.331,1.899 0.735,2.898 -0.385,0.646 -1.064,1.032 -1.817,1.032 -0.379,0 -0.755,-0.104 -1.084,-0.301 -0.483,-0.288 -0.826,-0.748 -0.964,-1.294 -0.138,-0.549 -0.055,-1.117 0.233,-1.602 z m 12.603,22.362 c -0.49,0.421 -1.018,0.509 -1.373,0.509 -0.621,0 -1.207,-0.269 -1.608,-0.734 -0.758,-0.885 -0.654,-2.222 0.231,-2.981 0.492,-0.423 1.018,-0.512 1.373,-0.512 0.617,0 1.201,0.268 1.605,0.74 0.368,0.43 0.547,0.976 0.504,1.538 -0.043,0.562 -0.302,1.072 -0.732,1.44 z"
               id="path6735"
               inkscape:connector-curvature="0" /><path
               d="m 79.355,48.434 c 0.07,0.018 0.142,0.034 0.212,0.046 -0.072,-0.012 -0.142,-0.028 -0.212,-0.046 z"
               id="path6737"
               inkscape:connector-curvature="0" /><path
               d="m 90.734,58.08 c 0.169,-0.267 0.395,-0.49 0.673,-0.661 0.335,-0.207 0.722,-0.316 1.121,-0.316 0.4,0 0.79,0.112 1.122,0.321 0.987,0.627 1.283,1.935 0.66,2.919 -0.392,0.618 -1.063,0.988 -1.795,0.988 -0.397,0 -0.785,-0.113 -1.124,-0.327 -0.984,-0.624 -1.278,-1.937 -0.657,-2.924 z m 6.379,-20.187 c -0.6,0.951 -1.938,1.271 -2.912,0.653 l -0.096,-0.063 c -0.914,-0.647 -1.161,-1.897 -0.558,-2.851 0.386,-0.613 1.053,-0.98 1.784,-0.98 0.397,0 0.787,0.113 1.124,0.326 0.479,0.304 0.813,0.775 0.937,1.33 0.123,0.546 0.026,1.107 -0.279,1.585 z"
               id="path6739"
               inkscape:connector-curvature="0" /><path
               d="m 113.88,49.491 c 0.388,-0.614 1.054,-0.98 1.783,-0.98 0.399,0 0.79,0.113 1.125,0.325 0.48,0.304 0.813,0.775 0.937,1.33 0.122,0.546 0.024,1.106 -0.279,1.584 -0.598,0.951 -1.938,1.272 -2.912,0.653 L 114.44,52.34 c -0.918,-0.646 -1.163,-1.896 -0.56,-2.849 z m 0,23.463 c 0.388,-0.614 1.054,-0.98 1.783,-0.98 0.399,0 0.79,0.112 1.125,0.326 0.48,0.304 0.813,0.774 0.937,1.329 0.122,0.546 0.024,1.107 -0.279,1.585 -0.598,0.95 -1.938,1.271 -2.912,0.652 l -0.094,-0.063 c -0.918,-0.646 -1.163,-1.896 -0.56,-2.849 z m 0,26.303 c 0.388,-0.613 1.054,-0.979 1.783,-0.979 0.399,0 0.79,0.112 1.125,0.325 0.48,0.304 0.813,0.775 0.937,1.33 0.122,0.547 0.024,1.106 -0.279,1.584 -0.598,0.951 -1.938,1.271 -2.912,0.653 l -0.094,-0.063 c -0.918,-0.647 -1.163,-1.896 -0.56,-2.85 z"
               id="path6741"
               inkscape:connector-curvature="0" /><path
               d="m 103.53,108.927 c -1.165,-1.36 -2.858,-2.139 -4.648,-2.139 -1.459,0 -2.875,0.525 -3.983,1.477 -1.612,1.383 -2.326,3.429 -2.087,5.397 -1.948,0.7 -4.258,1.365 -5.328,1.332 -0.821,-0.044 -1.302,-0.346 -2.224,-0.972 -1.172,-0.795 -2.418,-1.512 -4.149,-1.847 2.936,-2.761 6.009,-6.83 8.584,-12.834 2.061,-0.076 3.976,-1.193 5.038,-2.972 1.725,-2.896 0.773,-6.659 -2.124,-8.394 -0.949,-0.565 -2.032,-0.864 -3.134,-0.864 -2.146,0 -4.161,1.144 -5.261,2.986 -0.838,1.405 -1.079,3.05 -0.678,4.636 0.351,1.393 1.16,2.59 2.302,3.429 -4.053,9.218 -9.219,13.081 -12.565,14.685 -0.128,0.045 -0.248,0.101 -0.36,0.168 -1.187,0.531 -2.05,0.704 -2.559,0.808 l 0,4 c 0.275,-0.03 1.885,-0.118 4.247,-1.192 5.348,-1.357 6.839,-0.354 8.407,0.709 1.021,0.692 2.291,1.554 4.263,1.656 0.1,0.005 0.204,0.008 0.309,0.008 2.109,0 5.172,-1.022 7.021,-1.723 1.144,1.116 2.676,1.75 4.285,1.75 l 0,0 c 1.461,0 2.876,-0.524 3.983,-1.476 1.24,-1.062 1.993,-2.546 2.118,-4.176 0.125,-1.631 -0.392,-3.214 -1.457,-4.452 z M 87.656,92.151 c 0.386,-0.645 1.066,-1.03 1.819,-1.03 0.378,0 0.752,0.104 1.078,0.297 1,0.601 1.331,1.899 0.735,2.898 -0.385,0.646 -1.064,1.032 -1.817,1.032 -0.379,0 -0.755,-0.104 -1.084,-0.301 -0.483,-0.288 -0.826,-0.748 -0.964,-1.294 -0.138,-0.548 -0.055,-1.116 0.233,-1.602 z m 12.603,22.363 c -0.49,0.421 -1.018,0.509 -1.373,0.509 -0.621,0 -1.207,-0.269 -1.608,-0.734 -0.758,-0.885 -0.654,-2.222 0.231,-2.981 0.492,-0.423 1.018,-0.512 1.373,-0.512 0.617,0 1.201,0.269 1.605,0.74 0.368,0.43 0.547,0.976 0.504,1.538 -0.043,0.562 -0.302,1.072 -0.732,1.44 z"
               id="path6743"
               inkscape:connector-curvature="0" /><path
               d="m 79.355,46.028 c 0.07,0.018 0.142,0.034 0.212,0.046 -0.072,-0.011 -0.142,-0.027 -0.212,-0.046 z"
               id="path6745"
               inkscape:connector-curvature="0" /><path
               d="m 101.305,33.027 c -0.357,-1.599 -1.317,-2.964 -2.708,-3.844 -0.98,-0.617 -2.109,-0.944 -3.265,-0.944 -2.117,0 -4.053,1.066 -5.174,2.85 -1.354,2.138 -1.218,4.799 0.144,6.759 -3.646,4.124 -8.706,4.313 -9.942,4.293 -3.692,-1.604 -7.234,-2.164 -10.005,-2.317 l 0,3.996 c 2.441,0.143 5.553,0.685 8.748,2.136 0.005,0.002 0.01,0.002 0.015,0.005 3.445,1.563 6.334,3.928 8.607,7.041 -0.136,0.173 -0.265,0.352 -0.382,0.538 -1.796,2.854 -0.942,6.644 1.903,8.444 0.98,0.622 2.111,0.951 3.27,0.951 2.113,0 4.051,-1.065 5.183,-2.852 1.806,-2.851 0.951,-6.642 -1.908,-8.453 -1.384,-0.871 -3.092,-1.113 -4.667,-0.755 -1.538,-2.154 -3.323,-4.017 -5.345,-5.566 2.517,-0.778 5.401,-2.269 7.78,-5.096 0.572,0.172 1.166,0.267 1.77,0.267 2.116,0 4.051,-1.068 5.172,-2.849 0.874,-1.375 1.16,-3.009 0.804,-4.604 z M 90.734,55.675 c 0.169,-0.267 0.395,-0.49 0.673,-0.661 0.335,-0.207 0.722,-0.316 1.121,-0.316 0.4,0 0.79,0.112 1.122,0.321 0.987,0.627 1.283,1.936 0.66,2.919 -0.392,0.618 -1.063,0.988 -1.795,0.988 -0.397,0 -0.785,-0.113 -1.124,-0.327 -0.984,-0.624 -1.278,-1.937 -0.657,-2.924 z m 6.379,-20.188 c -0.6,0.951 -1.938,1.271 -2.912,0.653 l -0.096,-0.063 c -0.914,-0.647 -1.161,-1.897 -0.558,-2.851 0.386,-0.613 1.053,-0.98 1.784,-0.98 0.397,0 0.787,0.113 1.124,0.326 0.479,0.304 0.813,0.775 0.937,1.33 0.123,0.547 0.026,1.108 -0.279,1.585 z"
               id="path6747"
               inkscape:connector-curvature="0" /><path
               d="m 110,74.011 c 0.425,1.035 1.136,1.962 2.109,2.649 0.072,0.052 0.151,0.105 0.283,0.191 0.981,0.621 2.11,0.949 3.268,0.949 2.116,0 4.052,-1.068 5.173,-2.849 0.875,-1.375 1.16,-3.01 0.805,-4.604 -0.358,-1.598 -1.318,-2.964 -2.709,-3.844 -0.98,-0.617 -2.109,-0.944 -3.266,-0.944 -0.125,0 -0.25,0.008 -0.375,0.018 -0.71,-3.157 -0.919,-7.769 0.035,-11.265 0.112,0.011 0.225,0.024 0.337,0.024 2.116,0 4.052,-1.067 5.173,-2.849 0.875,-1.375 1.16,-3.009 0.805,-4.604 -0.358,-1.599 -1.318,-2.964 -2.709,-3.844 -0.98,-0.617 -2.109,-0.944 -3.266,-0.944 -2.114,0 -4.051,1.066 -5.173,2.85 -1.603,2.532 -1.12,5.804 1.025,7.765 0.021,0.02 0.048,0.037 0.071,0.059 -1.349,4.518 -1.146,10.324 -0.036,14.417 -0.143,0.132 -0.294,0.254 -0.426,0.399 -0.229,0.255 -0.445,0.526 -0.634,0.824 -0.318,0.502 -0.551,1.033 -0.71,1.578 -3.371,0.488 -5.198,1.671 -6.824,2.729 -2.035,1.324 -3.961,2.572 -9.636,2.665 -1.964,-0.23 -3.553,-0.177 -5.29,-0.116 -1.431,0.052 -2.91,0.106 -4.849,0.003 -1.335,-0.071 -2.104,-0.882 -3.458,-2.424 -1.803,-2.055 -4.219,-4.649 -9.369,-5.023 l 0,4 c 3.295,0.3 4.796,1.888 6.356,3.667 1.487,1.694 3.175,3.615 6.256,3.782 2.118,0.114 3.76,0.052 5.208,0.001 2.491,-0.092 4.453,-0.161 7.855,0.684 2.607,0.643 12.099,9.673 14.773,14.322 -0.108,0.142 -0.219,0.282 -0.314,0.434 -1.743,2.755 -1.026,6.385 1.619,8.251 0.072,0.052 0.151,0.104 0.283,0.191 0.981,0.621 2.11,0.948 3.268,0.948 2.116,0 4.052,-1.068 5.173,-2.849 0.875,-1.374 1.16,-3.009 0.805,-4.603 -0.358,-1.6 -1.318,-2.965 -2.709,-3.845 -0.98,-0.617 -2.109,-0.944 -3.266,-0.944 -0.528,0 -1.047,0.067 -1.543,0.195 -2.561,-4.187 -8.652,-10.455 -13.189,-13.792 1.813,-0.628 3.05,-1.435 4.212,-2.188 1.429,-0.927 2.616,-1.687 4.859,-2.064 z m 3.88,-26.925 c 0.388,-0.614 1.054,-0.98 1.783,-0.98 0.399,0 0.79,0.113 1.125,0.325 0.48,0.304 0.813,0.775 0.937,1.33 0.122,0.546 0.024,1.106 -0.279,1.584 -0.598,0.951 -1.938,1.272 -2.912,0.653 l -0.094,-0.063 c -0.918,-0.646 -1.163,-1.896 -0.56,-2.849 z m 0,23.463 c 0.388,-0.614 1.054,-0.98 1.783,-0.98 0.399,0 0.79,0.112 1.125,0.326 0.48,0.304 0.813,0.774 0.937,1.329 0.122,0.546 0.024,1.107 -0.279,1.585 -0.598,0.95 -1.938,1.271 -2.912,0.652 l -0.094,-0.063 c -0.918,-0.646 -1.163,-1.896 -0.56,-2.849 z m 0,26.303 c 0.388,-0.613 1.054,-0.979 1.783,-0.979 0.399,0 0.79,0.112 1.125,0.325 0.48,0.304 0.813,0.775 0.937,1.33 0.122,0.547 0.024,1.106 -0.279,1.584 -0.598,0.951 -1.938,1.271 -2.912,0.653 l -0.094,-0.063 c -0.918,-0.647 -1.163,-1.896 -0.56,-2.85 z"
               id="path6749"
               inkscape:connector-curvature="0" /></g><g
             id="g6751"><g
               id="g6753"><path
                 d="m 103.53,111.927 c -1.165,-1.36 -2.858,-2.139 -4.648,-2.139 -1.459,0 -2.875,0.525 -3.983,1.477 -1.612,1.383 -2.326,3.429 -2.087,5.397 -1.948,0.7 -4.258,1.365 -5.328,1.332 -0.821,-0.044 -1.302,-0.346 -2.224,-0.972 -1.172,-0.795 -2.418,-1.512 -4.149,-1.847 2.936,-2.761 6.009,-6.83 8.584,-12.834 2.061,-0.076 3.976,-1.193 5.038,-2.972 1.725,-2.896 0.773,-6.659 -2.124,-8.394 -0.949,-0.565 -2.032,-0.864 -3.134,-0.864 -2.146,0 -4.161,1.144 -5.261,2.986 -0.838,1.405 -1.079,3.05 -0.678,4.636 0.351,1.393 1.16,2.59 2.302,3.429 -4.053,9.218 -9.219,13.081 -12.565,14.685 -0.128,0.045 -0.248,0.101 -0.36,0.168 -1.187,0.531 -2.05,0.704 -2.559,0.808 l 0,4 c 0.275,-0.03 1.885,-0.118 4.247,-1.192 5.348,-1.357 6.839,-0.354 8.407,0.709 1.021,0.692 2.291,1.554 4.263,1.656 0.1,0.005 0.204,0.008 0.309,0.008 2.109,0 5.172,-1.022 7.021,-1.723 1.144,1.116 2.676,1.75 4.285,1.75 l 0,0 c 1.461,0 2.876,-0.524 3.983,-1.476 1.24,-1.062 1.993,-2.546 2.118,-4.176 0.125,-1.631 -0.392,-3.214 -1.457,-4.452 z M 87.656,95.151 c 0.386,-0.645 1.066,-1.03 1.819,-1.03 0.378,0 0.752,0.104 1.078,0.297 1,0.601 1.331,1.899 0.735,2.898 -0.385,0.646 -1.064,1.032 -1.817,1.032 -0.379,0 -0.755,-0.104 -1.084,-0.301 -0.483,-0.288 -0.826,-0.748 -0.964,-1.294 -0.138,-0.548 -0.055,-1.116 0.233,-1.602 z m 12.603,22.363 c -0.49,0.421 -1.018,0.509 -1.373,0.509 -0.621,0 -1.207,-0.269 -1.608,-0.734 -0.758,-0.885 -0.654,-2.222 0.231,-2.981 0.492,-0.423 1.018,-0.512 1.373,-0.512 0.617,0 1.201,0.269 1.605,0.74 0.368,0.43 0.547,0.976 0.504,1.538 -0.043,0.562 -0.302,1.072 -0.732,1.44 z"
                 id="path6755"
                 inkscape:connector-curvature="0"
                 style="fill:#d3562c" /><path
                 d="m 79.355,48.434 c 0.07,0.018 0.142,0.034 0.212,0.046 -0.072,-0.012 -0.142,-0.028 -0.212,-0.046 z"
                 id="path6757"
                 inkscape:connector-curvature="0" /><path
                 d="m 101.305,35.031 c -0.357,-1.599 -1.317,-2.964 -2.708,-3.844 -0.98,-0.617 -2.109,-0.944 -3.265,-0.944 -2.117,0 -4.053,1.066 -5.174,2.85 -1.354,2.138 -1.218,4.799 0.144,6.759 -3.646,4.124 -8.706,4.313 -9.942,4.293 -3.692,-1.604 -7.234,-2.164 -10.005,-2.317 l 0,3.996 c 2.441,0.144 5.553,0.686 8.748,2.136 0.005,0.002 0.01,0.002 0.015,0.005 3.445,1.563 6.334,3.928 8.607,7.041 -0.136,0.173 -0.265,0.352 -0.382,0.538 -1.796,2.854 -0.942,6.644 1.903,8.444 0.98,0.622 2.111,0.951 3.27,0.951 2.113,0 4.051,-1.065 5.183,-2.852 1.806,-2.851 0.951,-6.642 -1.908,-8.453 -1.384,-0.871 -3.092,-1.113 -4.667,-0.755 -1.538,-2.154 -3.323,-4.017 -5.345,-5.566 2.517,-0.778 5.401,-2.269 7.78,-5.096 0.572,0.172 1.166,0.267 1.77,0.267 2.116,0 4.051,-1.068 5.172,-2.849 0.874,-1.375 1.16,-3.009 0.804,-4.604 z M 90.734,57.679 c 0.169,-0.267 0.395,-0.49 0.673,-0.661 0.335,-0.207 0.722,-0.316 1.121,-0.316 0.4,0 0.79,0.112 1.122,0.321 0.987,0.627 1.283,1.936 0.66,2.919 -0.392,0.618 -1.063,0.988 -1.795,0.988 -0.397,0 -0.785,-0.113 -1.124,-0.327 -0.984,-0.624 -1.278,-1.937 -0.657,-2.924 z m 6.379,-20.188 c -0.6,0.951 -1.938,1.271 -2.912,0.653 l -0.096,-0.063 c -0.914,-0.647 -1.161,-1.897 -0.558,-2.851 0.386,-0.613 1.053,-0.98 1.784,-0.98 0.397,0 0.787,0.113 1.124,0.326 0.479,0.304 0.813,0.775 0.937,1.33 0.123,0.547 0.026,1.108 -0.279,1.585 z"
                 id="path6759"
                 inkscape:connector-curvature="0"
                 style="fill:#d3562c" /><path
                 d="m 110,77.011 c 0.425,1.035 1.136,1.962 2.109,2.649 0.072,0.052 0.151,0.105 0.283,0.191 0.981,0.621 2.11,0.949 3.268,0.949 2.116,0 4.052,-1.068 5.173,-2.849 0.875,-1.375 1.16,-3.01 0.805,-4.604 -0.358,-1.598 -1.318,-2.964 -2.709,-3.844 -0.98,-0.617 -2.109,-0.944 -3.266,-0.944 -0.125,0 -0.25,0.008 -0.375,0.018 -0.71,-3.157 -0.919,-7.769 0.035,-11.265 0.112,0.011 0.225,0.024 0.337,0.024 2.116,0 4.052,-1.067 5.173,-2.849 0.875,-1.375 1.16,-3.009 0.805,-4.604 -0.358,-1.599 -1.318,-2.964 -2.709,-3.844 -0.98,-0.617 -2.109,-0.944 -3.266,-0.944 -2.114,0 -4.051,1.066 -5.173,2.85 -1.603,2.532 -1.12,5.804 1.025,7.765 0.021,0.02 0.048,0.037 0.071,0.059 -1.349,4.518 -1.146,10.324 -0.036,14.417 -0.143,0.132 -0.294,0.254 -0.426,0.399 -0.229,0.255 -0.445,0.526 -0.634,0.824 -0.318,0.502 -0.551,1.033 -0.71,1.578 -3.371,0.488 -5.198,1.671 -6.824,2.729 -2.035,1.324 -3.961,2.572 -9.636,2.665 -1.964,-0.23 -3.553,-0.177 -5.29,-0.116 -1.431,0.052 -2.91,0.106 -4.849,0.003 -1.335,-0.071 -2.104,-0.882 -3.458,-2.424 -1.803,-2.055 -4.219,-4.649 -9.369,-5.023 l 0,4 c 3.295,0.3 4.796,1.888 6.356,3.667 1.487,1.694 3.175,3.615 6.256,3.782 2.118,0.114 3.76,0.052 5.208,0.001 2.491,-0.092 4.453,-0.161 7.855,0.684 2.607,0.643 12.099,9.673 14.773,14.322 -0.108,0.142 -0.219,0.282 -0.314,0.434 -1.743,2.755 -1.026,6.385 1.619,8.251 0.072,0.052 0.151,0.104 0.283,0.191 0.981,0.621 2.11,0.948 3.268,0.948 2.116,0 4.052,-1.068 5.173,-2.849 0.875,-1.374 1.16,-3.009 0.805,-4.603 -0.358,-1.6 -1.318,-2.965 -2.709,-3.845 -0.98,-0.617 -2.109,-0.944 -3.266,-0.944 -0.528,0 -1.047,0.067 -1.543,0.195 -2.561,-4.187 -8.652,-10.455 -13.189,-13.792 1.813,-0.628 3.05,-1.435 4.212,-2.188 1.429,-0.927 2.616,-1.687 4.859,-2.064 z m 3.88,-26.925 c 0.388,-0.614 1.054,-0.98 1.783,-0.98 0.399,0 0.79,0.113 1.125,0.325 0.48,0.304 0.813,0.775 0.937,1.33 0.122,0.546 0.024,1.106 -0.279,1.584 -0.598,0.951 -1.938,1.272 -2.912,0.653 l -0.094,-0.063 c -0.918,-0.646 -1.163,-1.896 -0.56,-2.849 z m 0,23.463 c 0.388,-0.614 1.054,-0.98 1.783,-0.98 0.399,0 0.79,0.112 1.125,0.326 0.48,0.304 0.813,0.774 0.937,1.329 0.122,0.546 0.024,1.107 -0.279,1.585 -0.598,0.95 -1.938,1.271 -2.912,0.652 l -0.094,-0.063 c -0.918,-0.646 -1.163,-1.896 -0.56,-2.849 z m 0,26.303 c 0.388,-0.613 1.054,-0.979 1.783,-0.979 0.399,0 0.79,0.112 1.125,0.325 0.48,0.304 0.813,0.775 0.937,1.33 0.122,0.547 0.024,1.106 -0.279,1.584 -0.598,0.951 -1.938,1.271 -2.912,0.653 l -0.094,-0.063 c -0.918,-0.647 -1.163,-1.896 -0.56,-2.85 z"
                 id="path6761"
                 inkscape:connector-curvature="0"
                 style="fill:#d3562c" /></g><g
               id="g6763"><path
                 d="m 103.53,108.927 c -1.165,-1.36 -2.858,-2.139 -4.648,-2.139 -1.459,0 -2.875,0.525 -3.983,1.477 -1.612,1.383 -2.326,3.429 -2.087,5.397 -1.948,0.7 -4.258,1.365 -5.328,1.332 -0.821,-0.044 -1.302,-0.346 -2.224,-0.972 -1.172,-0.795 -2.418,-1.512 -4.149,-1.847 2.936,-2.761 6.009,-6.83 8.584,-12.834 2.061,-0.076 3.976,-1.193 5.038,-2.972 1.725,-2.896 0.773,-6.659 -2.124,-8.394 -0.949,-0.565 -2.032,-0.864 -3.134,-0.864 -2.146,0 -4.161,1.144 -5.261,2.986 -0.838,1.405 -1.079,3.05 -0.678,4.636 0.351,1.393 1.16,2.59 2.302,3.429 -4.053,9.218 -9.219,13.081 -12.565,14.685 -0.128,0.045 -0.248,0.101 -0.36,0.168 -1.187,0.531 -2.05,0.704 -2.559,0.808 l 0,4 c 0.275,-0.03 1.885,-0.118 4.247,-1.192 5.348,-1.357 6.839,-0.354 8.407,0.709 1.021,0.692 2.291,1.554 4.263,1.656 0.1,0.005 0.204,0.008 0.309,0.008 2.109,0 5.172,-1.022 7.021,-1.723 1.144,1.116 2.676,1.75 4.285,1.75 l 0,0 c 1.461,0 2.876,-0.524 3.983,-1.476 1.24,-1.062 1.993,-2.546 2.118,-4.176 0.125,-1.631 -0.392,-3.214 -1.457,-4.452 z M 87.656,92.151 c 0.386,-0.645 1.066,-1.03 1.819,-1.03 0.378,0 0.752,0.104 1.078,0.297 1,0.601 1.331,1.899 0.735,2.898 -0.385,0.646 -1.064,1.032 -1.817,1.032 -0.379,0 -0.755,-0.104 -1.084,-0.301 -0.483,-0.288 -0.826,-0.748 -0.964,-1.294 -0.138,-0.548 -0.055,-1.116 0.233,-1.602 z m 12.603,22.363 c -0.49,0.421 -1.018,0.509 -1.373,0.509 -0.621,0 -1.207,-0.269 -1.608,-0.734 -0.758,-0.885 -0.654,-2.222 0.231,-2.981 0.492,-0.423 1.018,-0.512 1.373,-0.512 0.617,0 1.201,0.269 1.605,0.74 0.368,0.43 0.547,0.976 0.504,1.538 -0.043,0.562 -0.302,1.072 -0.732,1.44 z"
                 id="path6765"
                 inkscape:connector-curvature="0"
                 style="fill:#fffedb" /><path
                 d="m 79.355,46.028 c 0.07,0.018 0.142,0.034 0.212,0.046 -0.072,-0.011 -0.142,-0.027 -0.212,-0.046 z"
                 id="path6767"
                 inkscape:connector-curvature="0"
                 style="fill:#fffedb" /><path
                 d="m 101.305,33.027 c -0.357,-1.599 -1.317,-2.964 -2.708,-3.844 -0.98,-0.617 -2.109,-0.944 -3.265,-0.944 -2.117,0 -4.053,1.066 -5.174,2.85 -1.354,2.138 -1.218,4.799 0.144,6.759 -3.646,4.124 -8.706,4.313 -9.942,4.293 -3.692,-1.604 -7.234,-2.164 -10.005,-2.317 l 0,3.996 c 2.441,0.143 5.553,0.685 8.748,2.136 0.005,0.002 0.01,0.002 0.015,0.005 3.445,1.563 6.334,3.928 8.607,7.041 -0.136,0.173 -0.265,0.352 -0.382,0.538 -1.796,2.854 -0.942,6.644 1.903,8.444 0.98,0.622 2.111,0.951 3.27,0.951 2.113,0 4.051,-1.065 5.183,-2.852 1.806,-2.851 0.951,-6.642 -1.908,-8.453 -1.384,-0.871 -3.092,-1.113 -4.667,-0.755 -1.538,-2.154 -3.323,-4.017 -5.345,-5.566 2.517,-0.778 5.401,-2.269 7.78,-5.096 0.572,0.172 1.166,0.267 1.77,0.267 2.116,0 4.051,-1.068 5.172,-2.849 0.874,-1.375 1.16,-3.009 0.804,-4.604 z M 90.734,55.675 c 0.169,-0.267 0.395,-0.49 0.673,-0.661 0.335,-0.207 0.722,-0.316 1.121,-0.316 0.4,0 0.79,0.112 1.122,0.321 0.987,0.627 1.283,1.936 0.66,2.919 -0.392,0.618 -1.063,0.988 -1.795,0.988 -0.397,0 -0.785,-0.113 -1.124,-0.327 -0.984,-0.624 -1.278,-1.937 -0.657,-2.924 z m 6.379,-20.188 c -0.6,0.951 -1.938,1.271 -2.912,0.653 l -0.096,-0.063 c -0.914,-0.647 -1.161,-1.897 -0.558,-2.851 0.386,-0.613 1.053,-0.98 1.784,-0.98 0.397,0 0.787,0.113 1.124,0.326 0.479,0.304 0.813,0.775 0.937,1.33 0.123,0.547 0.026,1.108 -0.279,1.585 z"
                 id="path6769"
                 inkscape:connector-curvature="0"
                 style="fill:#fffedb" /><path
                 d="m 110,74.011 c 0.425,1.035 1.136,1.962 2.109,2.649 0.072,0.052 0.151,0.105 0.283,0.191 0.981,0.621 2.11,0.949 3.268,0.949 2.116,0 4.052,-1.068 5.173,-2.849 0.875,-1.375 1.16,-3.01 0.805,-4.604 -0.358,-1.598 -1.318,-2.964 -2.709,-3.844 -0.98,-0.617 -2.109,-0.944 -3.266,-0.944 -0.125,0 -0.25,0.008 -0.375,0.018 -0.71,-3.157 -0.919,-7.769 0.035,-11.265 0.112,0.011 0.225,0.024 0.337,0.024 2.116,0 4.052,-1.067 5.173,-2.849 0.875,-1.375 1.16,-3.009 0.805,-4.604 -0.358,-1.599 -1.318,-2.964 -2.709,-3.844 -0.98,-0.617 -2.109,-0.944 -3.266,-0.944 -2.114,0 -4.051,1.066 -5.173,2.85 -1.603,2.532 -1.12,5.804 1.025,7.765 0.021,0.02 0.048,0.037 0.071,0.059 -1.349,4.518 -1.146,10.324 -0.036,14.417 -0.143,0.132 -0.294,0.254 -0.426,0.399 -0.229,0.255 -0.445,0.526 -0.634,0.824 -0.318,0.502 -0.551,1.033 -0.71,1.578 -3.371,0.488 -5.198,1.671 -6.824,2.729 -2.035,1.324 -3.961,2.572 -9.636,2.665 -1.964,-0.23 -3.553,-0.177 -5.29,-0.116 -1.431,0.052 -2.91,0.106 -4.849,0.003 -1.335,-0.071 -2.104,-0.882 -3.458,-2.424 -1.803,-2.055 -4.219,-4.649 -9.369,-5.023 l 0,4 c 3.295,0.3 4.796,1.888 6.356,3.667 1.487,1.694 3.175,3.615 6.256,3.782 2.118,0.114 3.76,0.052 5.208,0.001 2.491,-0.092 4.453,-0.161 7.855,0.684 2.607,0.643 12.099,9.673 14.773,14.322 -0.108,0.142 -0.219,0.282 -0.314,0.434 -1.743,2.755 -1.026,6.385 1.619,8.251 0.072,0.052 0.151,0.104 0.283,0.191 0.981,0.621 2.11,0.948 3.268,0.948 2.116,0 4.052,-1.068 5.173,-2.849 0.875,-1.374 1.16,-3.009 0.805,-4.603 -0.358,-1.6 -1.318,-2.965 -2.709,-3.845 -0.98,-0.617 -2.109,-0.944 -3.266,-0.944 -0.528,0 -1.047,0.067 -1.543,0.195 -2.561,-4.187 -8.652,-10.455 -13.189,-13.792 1.813,-0.628 3.05,-1.435 4.212,-2.188 1.429,-0.927 2.616,-1.687 4.859,-2.064 z m 3.88,-26.925 c 0.388,-0.614 1.054,-0.98 1.783,-0.98 0.399,0 0.79,0.113 1.125,0.325 0.48,0.304 0.813,0.775 0.937,1.33 0.122,0.546 0.024,1.106 -0.279,1.584 -0.598,0.951 -1.938,1.272 -2.912,0.653 l -0.094,-0.063 c -0.918,-0.646 -1.163,-1.896 -0.56,-2.849 z m 0,23.463 c 0.388,-0.614 1.054,-0.98 1.783,-0.98 0.399,0 0.79,0.112 1.125,0.326 0.48,0.304 0.813,0.774 0.937,1.329 0.122,0.546 0.024,1.107 -0.279,1.585 -0.598,0.95 -1.938,1.271 -2.912,0.652 l -0.094,-0.063 c -0.918,-0.646 -1.163,-1.896 -0.56,-2.849 z m 0,26.303 c 0.388,-0.613 1.054,-0.979 1.783,-0.979 0.399,0 0.79,0.112 1.125,0.325 0.48,0.304 0.813,0.775 0.937,1.33 0.122,0.547 0.024,1.106 -0.279,1.584 -0.598,0.951 -1.938,1.271 -2.912,0.653 l -0.094,-0.063 c -0.918,-0.647 -1.163,-1.896 -0.56,-2.85 z"
                 id="path6771"
                 inkscape:connector-curvature="0"
                 style="fill:#fffedb" /></g></g></g></g></g></g></svg>