<?xml version="1.0" encoding="utf-8"?>
<svg xmlns="http://www.w3.org/2000/svg" width="300px" height="74px">
  <path fill="#EB743B" d="M 33.935 0 L 33.935 72.963 L 64.843 55.229 L 64.843 17.734 L 33.935 0 Z" style="stroke-width: 1;"/>
  <path fill="#353070" d="M 31.402 0 L 0.493 17.734 L 0.493 55.229 L 31.402 72.963 L 31.402 0 Z" style="stroke-width: 1;"/>
  <g opacity=".07" transform="matrix(0.506687, 0, 0, 0.506687, -4.24592, -3.964241)">
    <defs>
      <path id="a" d="M75.354 33.239h51.433v90.792H75.354z"/>
    </defs>
    <clipPath id="b">
      <path d="M75.354 33.239h51.433v90.792H75.354z" overflow="visible"/>
    </clipPath>
    <path clip-path="url(#b)" d="M92.657 99.557a2.1 2.1 0 011.819-1.03c.378 0 .752.104 1.078.297a2.12 2.12 0 01.735 2.898 2.097 2.097 0 01-1.817 1.032c-.379 0-.755-.105-1.084-.301a2.092 2.092 0 01-.964-1.294 2.1 2.1 0 01.233-1.602m12.602 22.362a2.121 2.121 0 01-2.981-.225 2.116 2.116 0 01.231-2.981 2.08 2.08 0 011.373-.512 2.117 2.117 0 012.109 2.278 2.086 2.086 0 01-.732 1.44M95.734 63.08a2.128 2.128 0 012.916-.656 2.12 2.12 0 01.66 2.919 2.115 2.115 0 01-2.919.661 2.128 2.128 0 01-.657-2.924m6.379-20.187c-.6.951-1.937 1.271-2.912.653l-.096-.062a2.107 2.107 0 01-.557-2.851 2.093 2.093 0 011.784-.98 2.11 2.11 0 011.781 3.24M118.88 54.491a2.096 2.096 0 011.783-.98c.4 0 .79.113 1.125.325.481.304.813.775.937 1.33a2.08 2.08 0 01-.28 1.584c-.597.951-1.938 1.273-2.912.653l-.093-.062a2.105 2.105 0 01-.56-2.85m0 23.463a2.096 2.096 0 011.783-.98c.4 0 .79.112 1.125.326.481.304.813.774.937 1.329a2.083 2.083 0 01-.28 1.585c-.597.95-1.938 1.271-2.912.652l-.093-.062a2.105 2.105 0 01-.56-2.85m0 26.303a2.099 2.099 0 011.783-.98c.4 0 .79.113 1.125.326.481.304.813.775.937 1.33a2.08 2.08 0 01-.28 1.584c-.597.951-1.938 1.271-2.912.653l-.093-.062a2.107 2.107 0 01-.56-2.851"/>
    <path clip-path="url(#b)" d="M108.53 113.927a6.11 6.11 0 00-8.631-.662 6.12 6.12 0 00-2.087 5.396c-1.949.701-4.258 1.366-5.328 1.332-.822-.043-1.302-.345-2.224-.971-1.172-.795-2.418-1.512-4.149-1.847 2.936-2.761 6.009-6.83 8.584-12.834a6.15 6.15 0 005.039-2.972c1.724-2.896.773-6.659-2.124-8.394a6.133 6.133 0 00-3.134-.864 6.154 6.154 0 00-5.261 2.986 6.079 6.079 0 00-.678 4.636 6.075 6.075 0 002.302 3.429c-4.053 9.218-9.219 13.08-12.565 14.685a2.016 2.016 0 00-.361.168c-1.186.531-2.05.704-2.558.808v4c.275-.03 1.884-.118 4.247-1.192 5.347-1.357 6.839-.354 8.407.709 1.021.692 2.291 1.554 4.263 1.655.099.006.204.009.308.009 2.11 0 5.172-1.022 7.021-1.723a6.132 6.132 0 004.285 1.75 6.112 6.112 0 003.983-1.476 6.072 6.072 0 002.119-4.176 6.072 6.072 0 00-1.458-4.452M92.657 97.151a2.114 2.114 0 013.632 2.165 2.097 2.097 0 01-1.817 1.032c-.379 0-.755-.105-1.084-.301a2.092 2.092 0 01-.964-1.294 2.101 2.101 0 01.233-1.602m12.602 22.363a2.121 2.121 0 01-2.981-.225 2.116 2.116 0 01.231-2.981 2.08 2.08 0 011.373-.512 2.117 2.117 0 012.109 2.278 2.086 2.086 0 01-.732 1.44M106.304 38.027a6.088 6.088 0 00-2.708-3.844 6.12 6.12 0 00-3.264-.944 6.076 6.076 0 00-5.174 2.85 6.108 6.108 0 00.144 6.758c-3.646 4.124-8.707 4.314-9.943 4.293-3.692-1.604-7.234-2.164-10.005-2.317v3.996c2.442.144 5.553.686 8.748 2.136.005.002.01.002.015.005 3.445 1.562 6.334 3.927 8.607 7.041a6.364 6.364 0 00-.381.538c-1.796 2.854-.943 6.643 1.903 8.444.98.622 2.111.951 3.269.951a6.105 6.105 0 005.183-2.851c1.806-2.851.951-6.642-1.908-8.453-1.384-.872-3.092-1.114-4.667-.755-1.538-2.155-3.323-4.017-5.345-5.567 2.517-.778 5.401-2.268 7.78-5.095a6.18 6.18 0 001.77.266 6.08 6.08 0 005.172-2.848 6.053 6.053 0 00.804-4.604m-10.57 22.647a2.128 2.128 0 012.916-.656 2.12 2.12 0 01.66 2.919 2.115 2.115 0 01-2.919.661 2.128 2.128 0 01-.657-2.924m6.379-20.187c-.6.951-1.937 1.271-2.912.653l-.096-.062a2.107 2.107 0 01-.557-2.851 2.093 2.093 0 011.784-.98 2.11 2.11 0 011.781 3.24"/>
    <path clip-path="url(#b)" d="M115 79.011a6.036 6.036 0 002.11 2.649 6.098 6.098 0 003.55 1.14 6.083 6.083 0 005.173-2.848 6.064 6.064 0 00.805-4.605 6.103 6.103 0 00-2.709-3.844 6.128 6.128 0 00-3.266-.944c-.125 0-.25.008-.375.018-.71-3.158-.919-7.769.035-11.265.113.011.225.024.337.024a6.08 6.08 0 005.173-2.848 6.062 6.062 0 00.805-4.604 6.103 6.103 0 00-2.709-3.844 6.128 6.128 0 00-3.266-.944 6.079 6.079 0 00-5.173 2.85 6.104 6.104 0 001.025 7.764c.021.02.048.037.071.059-1.349 4.518-1.145 10.324-.036 14.417-.144.132-.294.254-.426.399a6.327 6.327 0 00-.634.825 6.2 6.2 0 00-.71 1.578c-3.371.488-5.198 1.671-6.824 2.729-2.035 1.324-3.961 2.572-9.636 2.666-1.963-.23-3.552-.178-5.29-.116-1.43.052-2.91.105-4.848.003-1.335-.071-2.104-.882-3.458-2.424-1.803-2.055-4.219-4.648-9.369-5.022v4c3.295.299 4.796 1.887 6.356 3.667 1.487 1.694 3.175 3.615 6.256 3.782 2.118.114 3.76.052 5.208.001 2.491-.092 4.453-.161 7.855.683 2.608.644 12.099 9.674 14.774 14.323-.109.142-.219.282-.314.434-1.743 2.755-1.026 6.385 1.62 8.251.072.052.151.104.283.191.981.621 2.11.948 3.267.948a6.081 6.081 0 005.173-2.849 6.06 6.06 0 00.805-4.603 6.1 6.1 0 00-2.709-3.845 6.128 6.128 0 00-4.809-.749c-2.56-4.188-8.652-10.455-13.189-13.792 1.813-.628 3.05-1.436 4.212-2.188 1.427-.93 2.614-1.69 4.857-2.067m3.88-26.926a2.096 2.096 0 011.783-.98c.4 0 .79.113 1.125.325.481.304.813.775.937 1.33a2.08 2.08 0 01-.28 1.584c-.597.951-1.938 1.273-2.912.653l-.093-.062a2.105 2.105 0 01-.56-2.85m0 23.463a2.096 2.096 0 011.783-.98c.4 0 .79.112 1.125.326.481.304.813.774.937 1.329a2.083 2.083 0 01-.28 1.585c-.597.95-1.938 1.272-2.912.652l-.093-.062a2.105 2.105 0 01-.56-2.85m0 26.304a2.099 2.099 0 011.783-.98c.4 0 .79.113 1.125.326.481.304.813.775.937 1.33a2.08 2.08 0 01-.28 1.584c-.597.951-1.938 1.271-2.912.653l-.093-.062a2.107 2.107 0 01-.56-2.851"/>
  </g>
  <path fill="#D3562C" d="M 50.745 55.282 C 49.631 53.978 47.671 53.828 46.372 54.946 C 45.583 55.623 45.186 56.649 45.314 57.68 C 44.326 58.035 43.157 58.372 42.615 58.355 C 42.198 58.333 41.955 58.18 41.488 57.863 C 40.894 57.46 40.263 57.097 39.386 56.927 C 40.873 55.528 42.43 53.467 43.735 50.424 C 44.785 50.384 45.746 49.819 46.288 48.918 C 47.162 47.451 46.68 45.545 45.212 44.665 C 44.732 44.379 44.183 44.228 43.624 44.228 C 42.531 44.23 41.52 44.803 40.958 45.741 C 40.534 46.446 40.41 47.292 40.614 48.09 C 40.789 48.787 41.201 49.401 41.781 49.827 C 39.727 54.497 37.11 56.454 35.415 57.268 C 35.351 57.289 35.29 57.318 35.232 57.353 C 34.631 57.622 34.193 57.71 33.935 57.762 L 33.935 59.789 C 34.075 59.773 34.89 59.729 36.088 59.185 C 38.797 58.498 39.553 59.005 40.347 59.544 C 40.865 59.895 41.508 60.332 42.507 60.383 C 42.558 60.386 42.61 60.387 42.663 60.387 C 43.732 60.387 45.284 59.869 46.22 59.514 C 46.801 60.082 47.58 60.4 48.392 60.401 C 49.132 60.401 49.848 60.136 50.41 59.653 C 51.036 59.119 51.423 58.357 51.484 57.537 C 51.549 56.716 51.283 55.904 50.745 55.282 M 42.702 46.781 C 43.125 46.073 44.155 46.087 44.557 46.807 C 44.744 47.141 44.738 47.549 44.542 47.878 C 44.351 48.204 44 48.403 43.622 48.401 C 43.43 48.401 43.239 48.348 43.073 48.248 C 42.828 48.103 42.653 47.867 42.584 47.593 C 42.513 47.317 42.556 47.025 42.702 46.781 M 49.087 58.112 C 48.638 58.496 47.964 58.445 47.577 57.998 C 47.193 57.548 47.245 56.872 47.694 56.488 C 47.887 56.32 48.134 56.228 48.39 56.228 C 49.014 56.229 49.505 56.76 49.458 57.383 C 49.438 57.665 49.304 57.928 49.087 58.112" style="stroke-width: 1;"/>
  <path style="stroke-width: 0.757;"/>
  <path fill="#D3562C" d="M 49.617 16.319 C 49.439 15.512 48.945 14.811 48.245 14.371 C 47.749 14.059 47.176 13.893 46.591 13.893 C 45.526 13.888 44.534 14.435 43.969 15.337 C 43.302 16.389 43.331 17.739 44.043 18.761 C 42.195 20.851 39.631 20.947 39.004 20.937 C 37.134 20.124 35.339 19.84 33.935 19.763 L 33.935 21.787 C 35.172 21.86 36.749 22.135 38.368 22.87 C 38.37 22.87 38.373 22.87 38.375 22.872 C 40.121 23.663 41.585 24.862 42.736 26.44 C 42.666 26.527 42.602 26.618 42.543 26.712 C 41.633 28.158 42.065 30.078 43.507 30.991 C 44.004 31.306 44.577 31.473 45.164 31.473 C 46.229 31.476 47.221 30.929 47.79 30.028 C 48.705 28.583 48.272 26.663 46.823 25.745 C 46.122 25.303 45.256 25.181 44.458 25.362 C 43.679 24.271 42.775 23.327 41.75 22.542 C 43.026 22.148 44.487 21.393 45.692 19.96 C 45.983 20.048 46.285 20.093 46.589 20.095 C 47.653 20.099 48.643 19.553 49.21 18.652 C 49.652 17.96 49.799 17.12 49.617 16.319 M 44.261 27.794 C 44.58 27.298 45.238 27.149 45.739 27.462 C 46.238 27.779 46.388 28.44 46.074 28.941 C 45.757 29.442 45.095 29.592 44.594 29.276 C 44.095 28.956 43.947 28.295 44.261 27.794 M 47.493 17.566 C 47.19 18.047 46.512 18.21 46.018 17.897 L 45.97 17.865 C 45.505 17.536 45.381 16.9 45.687 16.42 C 45.882 16.109 46.224 15.922 46.591 15.924 C 47.414 15.924 47.928 16.815 47.516 17.528 C 47.509 17.54 47.501 17.553 47.493 17.566" style="stroke-width: 1;"/>
  <path fill="#D3562C" d="M 54.023 37.59 C 54.244 38.13 54.615 38.595 55.092 38.932 C 55.617 39.307 56.246 39.51 56.891 39.51 C 57.955 39.513 58.946 38.968 59.512 38.066 C 59.954 37.374 60.101 36.534 59.92 35.734 C 59.74 34.927 59.247 34.226 58.547 33.785 C 58.052 33.473 57.478 33.307 56.892 33.307 C 56.829 33.307 56.766 33.311 56.702 33.316 C 56.343 31.717 56.237 29.38 56.72 27.609 C 56.778 27.614 56.834 27.621 56.891 27.621 C 57.955 27.625 58.946 27.079 59.512 26.178 C 59.954 25.486 60.101 24.645 59.92 23.845 C 59.74 23.038 59.247 22.337 58.547 21.897 C 58.052 21.584 57.478 21.419 56.892 21.419 C 55.828 21.415 54.837 21.96 54.271 22.863 C 53.47 24.127 53.688 25.784 54.791 26.797 C 54.802 26.807 54.815 26.816 54.827 26.827 C 54.143 29.116 54.246 32.058 54.808 34.132 C 54.736 34.199 54.66 34.26 54.592 34.334 C 54.474 34.464 54.366 34.604 54.271 34.752 C 54.114 35 53.993 35.269 53.912 35.551 C 52.204 35.799 51.278 36.398 50.454 36.934 C 49.423 37.605 48.447 38.237 45.572 38.284 C 44.577 38.168 43.772 38.195 42.891 38.226 C 42.167 38.252 41.417 38.279 40.435 38.227 C 39.759 38.191 39.369 37.78 38.682 36.999 C 37.769 35.958 36.545 34.644 33.935 34.455 L 33.935 36.481 C 35.605 36.632 36.366 37.437 37.156 38.339 C 37.909 39.197 38.765 40.171 40.326 40.255 C 41.399 40.313 42.231 40.282 42.965 40.256 C 44.227 40.209 45.221 40.174 46.945 40.602 C 48.266 40.928 53.075 45.504 54.431 47.859 C 54.375 47.932 54.32 48.002 54.271 48.079 C 53.388 49.475 53.752 51.314 55.092 52.26 C 55.129 52.287 55.169 52.313 55.235 52.357 C 55.733 52.671 56.305 52.837 56.891 52.837 C 57.955 52.84 58.946 52.295 59.512 51.393 C 59.954 50.702 60.101 49.862 59.92 49.061 C 59.741 48.254 59.247 47.553 58.547 47.113 C 57.822 46.656 56.94 46.518 56.11 46.733 C 54.813 44.612 51.727 41.436 49.428 39.745 C 50.346 39.427 50.973 39.017 51.562 38.637 C 52.285 38.166 52.886 37.781 54.023 37.59 M 55.989 23.947 C 56.184 23.636 56.526 23.449 56.892 23.45 C 57.095 23.45 57.293 23.508 57.462 23.615 C 57.706 23.769 57.874 24.007 57.937 24.289 C 57.999 24.565 57.948 24.853 57.795 25.092 C 57.493 25.573 56.813 25.737 56.32 25.422 L 56.273 25.391 C 55.808 25.062 55.683 24.426 55.989 23.947 M 55.989 35.835 C 56.184 35.524 56.526 35.337 56.892 35.338 C 57.095 35.338 57.293 35.396 57.462 35.504 C 57.706 35.658 57.874 35.896 57.937 36.177 C 57.999 36.453 57.948 36.742 57.795 36.98 C 57.493 37.461 56.813 37.624 56.32 37.311 L 56.273 37.279 C 55.808 36.95 55.683 36.315 55.989 35.835 M 55.989 49.163 C 56.184 48.853 56.526 48.665 56.892 48.667 C 57.095 48.667 57.293 48.724 57.462 48.832 C 57.706 48.986 57.874 49.224 57.937 49.506 C 57.999 49.781 57.948 50.07 57.795 50.309 C 57.493 50.79 56.813 50.952 56.32 50.639 L 56.273 50.608 C 55.808 50.278 55.683 49.643 55.989 49.163" style="stroke-width: 1;"/>
  <path fill="#FFFEDB" d="M 50.745 53.761 C 49.631 52.458 47.671 52.308 46.372 53.426 C 45.583 54.102 45.186 55.129 45.314 56.16 C 44.326 56.515 43.157 56.852 42.615 56.835 C 42.198 56.813 41.955 56.66 41.488 56.343 C 40.894 55.94 40.263 55.577 39.386 55.407 C 40.873 54.008 42.43 51.946 43.735 48.904 C 44.785 48.865 45.746 48.299 46.288 47.398 C 47.162 45.931 46.68 44.024 45.212 43.145 C 44.732 42.859 44.183 42.708 43.624 42.708 C 42.531 42.71 41.52 43.283 40.958 44.22 C 40.534 44.926 40.41 45.772 40.614 46.569 C 40.789 47.267 41.201 47.881 41.781 48.307 C 39.727 52.977 37.11 54.934 35.415 55.748 C 35.351 55.769 35.29 55.798 35.232 55.832 C 34.631 56.102 34.193 56.19 33.935 56.242 L 33.935 58.268 C 34.075 58.254 34.89 58.209 36.088 57.665 C 38.797 56.977 39.553 57.485 40.347 58.024 C 40.865 58.375 41.508 58.811 42.507 58.863 C 42.558 58.865 42.61 58.867 42.663 58.867 C 43.732 58.867 45.284 58.349 46.22 57.994 C 46.801 58.562 47.58 58.88 48.392 58.881 C 49.132 58.881 49.848 58.615 50.41 58.133 C 51.036 57.599 51.423 56.838 51.484 56.017 C 51.549 55.196 51.283 54.384 50.745 53.761 M 42.702 45.261 C 43.125 44.552 44.155 44.567 44.557 45.287 C 44.744 45.621 44.738 46.029 44.542 46.358 C 44.351 46.684 44 46.883 43.622 46.881 C 43.43 46.881 43.239 46.828 43.073 46.728 C 42.828 46.583 42.653 46.348 42.584 46.073 C 42.513 45.797 42.556 45.505 42.702 45.261 M 49.087 56.592 C 48.638 56.976 47.964 56.925 47.577 56.478 C 47.193 56.028 47.245 55.352 47.694 54.968 C 47.887 54.799 48.134 54.707 48.39 54.708 C 49.014 54.709 49.505 55.24 49.458 55.862 C 49.438 56.145 49.304 56.408 49.087 56.592 M 49.617 15.304 C 49.439 14.496 48.945 13.795 48.245 13.356 C 47.749 13.043 47.176 12.878 46.591 12.878 C 45.526 12.873 44.534 13.419 43.969 14.322 C 43.302 15.373 43.331 16.723 44.043 17.746 C 42.195 19.835 39.631 19.932 39.004 19.921 C 37.134 19.108 35.339 18.825 33.935 18.747 L 33.935 20.772 C 35.172 20.845 36.749 21.119 38.368 21.854 C 38.37 21.855 38.373 21.855 38.375 21.856 C 40.121 22.648 41.585 23.846 42.736 25.424 C 42.666 25.511 42.602 25.603 42.543 25.697 C 41.633 27.143 42.065 29.063 43.507 29.975 C 44.004 30.291 44.577 30.457 45.164 30.457 C 46.229 30.46 47.221 29.914 47.79 29.013 C 48.705 27.568 48.272 25.647 46.823 24.729 C 46.122 24.288 45.256 24.165 44.458 24.347 C 43.679 23.255 42.775 22.311 41.75 21.527 C 43.026 21.132 44.487 20.377 45.692 18.945 C 45.983 19.033 46.285 19.078 46.589 19.079 C 47.653 19.083 48.643 18.537 49.21 17.637 C 49.652 16.944 49.799 16.104 49.617 15.304 M 44.261 26.778 C 44.58 26.282 45.238 26.134 45.739 26.446 C 46.238 26.763 46.388 27.424 46.074 27.926 C 45.757 28.427 45.095 28.577 44.594 28.26 C 44.095 27.941 43.947 27.28 44.261 26.778 M 47.493 16.55 C 47.19 17.032 46.512 17.194 46.018 16.881 L 45.97 16.85 C 45.505 16.521 45.381 15.884 45.687 15.405 C 45.882 15.094 46.224 14.907 46.591 14.908 C 47.414 14.908 47.928 15.8 47.516 16.512 C 47.509 16.525 47.501 16.537 47.493 16.55" style="stroke-width: 1;"/>
  <path fill="#FFFEDB" d="M 54.023 36.07 C 54.244 36.61 54.615 37.076 55.092 37.412 C 55.617 37.788 56.246 37.99 56.891 37.99 C 57.955 37.993 58.946 37.448 59.512 36.546 C 59.954 35.854 60.101 35.014 59.92 34.213 C 59.74 33.406 59.247 32.706 58.547 32.266 C 58.052 31.953 57.478 31.788 56.892 31.788 C 56.829 31.788 56.766 31.791 56.702 31.796 C 56.343 30.196 56.237 27.86 56.72 26.089 C 56.778 26.094 56.834 26.101 56.891 26.101 C 57.955 26.105 58.946 25.559 59.512 24.658 C 59.954 23.966 60.101 23.126 59.92 22.325 C 59.74 21.518 59.247 20.817 58.547 20.377 C 58.052 20.065 57.478 19.899 56.892 19.899 C 55.828 19.895 54.837 20.44 54.271 21.343 C 53.47 22.607 53.688 24.264 54.791 25.277 C 54.802 25.287 54.815 25.296 54.827 25.307 C 54.143 27.596 54.246 30.538 54.808 32.612 C 54.736 32.679 54.66 32.74 54.592 32.814 C 54.474 32.944 54.366 33.084 54.271 33.232 C 54.114 33.48 53.993 33.749 53.912 34.031 C 52.204 34.278 51.278 34.878 50.454 35.414 C 49.423 36.085 48.447 36.718 45.572 36.765 C 44.577 36.649 43.772 36.675 42.891 36.706 C 42.167 36.733 41.417 36.759 40.435 36.708 C 39.759 36.672 39.369 36.261 38.682 35.48 C 37.769 34.438 36.545 33.124 33.935 32.935 L 33.935 34.962 C 35.605 35.113 36.366 35.918 37.156 36.82 C 37.909 37.678 38.765 38.651 40.326 38.736 C 41.399 38.794 42.231 38.762 42.965 38.737 C 44.227 38.69 45.221 38.655 46.945 39.083 C 48.266 39.409 53.075 43.984 54.431 46.34 C 54.375 46.412 54.32 46.483 54.271 46.56 C 53.388 47.956 53.752 49.795 55.092 50.74 C 55.129 50.767 55.169 50.793 55.235 50.837 C 55.733 51.152 56.305 51.317 56.891 51.317 C 57.955 51.321 58.946 50.775 59.512 49.874 C 59.954 49.183 60.101 48.342 59.92 47.542 C 59.741 46.735 59.247 46.033 58.547 45.594 C 57.822 45.136 56.94 44.999 56.11 45.214 C 54.813 43.092 51.727 39.917 49.428 38.226 C 50.346 37.908 50.973 37.498 51.562 37.117 C 52.285 36.646 52.886 36.261 54.023 36.07 M 55.989 22.427 C 56.184 22.116 56.526 21.929 56.892 21.93 C 57.095 21.93 57.293 21.987 57.462 22.095 C 57.706 22.249 57.874 22.488 57.937 22.769 C 57.999 23.045 57.948 23.333 57.795 23.571 C 57.493 24.053 56.813 24.217 56.32 23.902 L 56.273 23.871 C 55.808 23.542 55.683 22.906 55.989 22.427 M 55.989 34.315 C 56.184 34.005 56.526 33.817 56.892 33.818 C 57.095 33.818 57.293 33.875 57.462 33.984 C 57.706 34.138 57.874 34.376 57.937 34.657 C 57.999 34.933 57.948 35.222 57.795 35.46 C 57.493 35.941 56.813 36.105 56.32 35.791 L 56.273 35.759 C 55.808 35.43 55.683 34.795 55.989 34.315 M 55.989 47.643 C 56.184 47.332 56.526 47.145 56.892 47.147 C 57.095 47.147 57.293 47.204 57.462 47.312 C 57.706 47.466 57.874 47.704 57.937 47.986 C 57.999 48.261 57.948 48.55 57.795 48.788 C 57.493 49.27 56.813 49.432 56.32 49.119 L 56.273 49.087 C 55.808 48.758 55.683 48.123 55.989 47.643" style="stroke-width: 1;"/>
  <g opacity=".25" transform="matrix(0.506687, 0, 0, 0.506687, -4.24592, -3.964241)">
    <path d="M53.783 104.537c-.239 0-.48-.072-.691-.219a1.21 1.21 0 01-.29-1.684c.273-.387.519-.799.73-1.227a9.028 9.028 0 00-.501-8.961 1.208 1.208 0 112.032-1.307c2.176 3.389 2.42 7.736.633 11.34a11.833 11.833 0 01-.92 1.547 1.204 1.204 0 01-.993.511M59.339 107.414a1.207 1.207 0 01-.968-1.922c.453-.615.854-1.279 1.198-1.973a13.243 13.243 0 00-1.251-13.846 1.207 1.207 0 111.937-1.441 15.643 15.643 0 011.478 16.357c-.404.818-.88 1.604-1.414 2.33a1.213 1.213 0 01-.98.495M48.345 101.486a1.21 1.21 0 01-1.045-1.802 4.802 4.802 0 00.18-4.369 1.208 1.208 0 012.193-1.01 7.22 7.22 0 01-.271 6.57 1.209 1.209 0 01-1.057.611"/>
  </g>
  <g fill="#EB743B" transform="matrix(0.506687, 0, 0, 0.506687, -4.24592, -3.964241)">
    <path d="M53.783 101.537c-.239 0-.48-.072-.691-.219a1.21 1.21 0 01-.29-1.684c.273-.387.519-.799.73-1.227a9.028 9.028 0 00-.501-8.961 1.208 1.208 0 112.032-1.307c2.176 3.389 2.42 7.736.633 11.34a11.833 11.833 0 01-.92 1.547 1.204 1.204 0 01-.993.511M59.339 104.414a1.207 1.207 0 01-.968-1.922c.453-.615.854-1.279 1.198-1.973a13.243 13.243 0 00-1.251-13.846 1.207 1.207 0 111.937-1.441 15.643 15.643 0 011.478 16.357c-.404.818-.88 1.604-1.414 2.33a1.213 1.213 0 01-.98.495M48.345 98.486a1.21 1.21 0 01-1.045-1.802 4.802 4.802 0 00.18-4.369 1.208 1.208 0 012.193-1.01 7.22 7.22 0 01-.271 6.57 1.209 1.209 0 01-1.057.611"/>
  </g>
  <g transform="matrix(0.506687, 0, 0, 0.506687, -4.24592, -3.964241)">
    <path d="M66.082 47.24c-10.12 0-20.365 3.656-26.736 9.543-6.886 6.361-10.521 16.245-10.348 27.989a3.99 3.99 0 00-3.41 3.941v18.119a4 4 0 004 4h2.033c.316 0 .619-.047.914-.115v1.602c0 2.209 1.565 4 3.495 4h1.898c1.93 0 3.495-1.791 3.495-4V82.65c0-2.209-1.565-4-3.495-4H36.03c-1.717 0-3.138 1.42-3.432 3.288.065-1.855.204-3.652.435-5.096 1.154-7.232 4.119-13.268 8.688-17.488 5.664-5.232 15.226-8.613 24.361-8.613 1.042 0 3.241.043 4.277.143v-3.49c-1.2-.117-3.163-.154-4.277-.154zm-34.459 59.188a2.652 2.652 0 01-2.651-2.65v-12.01a2.651 2.651 0 012.651-2.652h.913v17.312h-.913z" opacity=".25"/>
    <path fill="#FFFEDB" d="M66.082 44.24c-10.12 0-20.365 3.656-26.736 9.543-6.886 6.361-10.521 16.245-10.348 27.989a3.99 3.99 0 00-3.41 3.941v18.119a4 4 0 004 4h2.033c.316 0 .619-.047.914-.115v1.602c0 2.209 1.565 4 3.495 4h1.898c1.93 0 3.495-1.791 3.495-4V79.65c0-2.209-1.565-4-3.495-4H36.03c-1.717 0-3.138 1.42-3.432 3.287.065-1.854.204-3.651.435-5.096 1.154-7.232 4.119-13.268 8.688-17.488 5.664-5.232 15.226-8.613 24.361-8.613 1.042 0 3.241.043 4.277.143v-3.49c-1.2-.116-3.163-.153-4.277-.153zm-34.459 59.188a2.652 2.652 0 01-2.651-2.65v-12.01a2.651 2.651 0 012.651-2.652h.913v17.312h-.913z"/>
  </g>
  <g fill="#353070" transform="matrix(0.506687, 0, 0, 0.506687, -4.24592, -3.964241)">
    <path d="M174.775 97.672h22.972v10.151h-36.169V53.081h13.197v44.591zM202.635 56.653c0-1.805.651-3.283 1.955-4.437 1.303-1.153 2.995-1.729 5.076-1.729 2.08 0 3.772.577 5.076 1.729 1.303 1.153 1.955 2.632 1.955 4.437s-.652 3.284-1.955 4.437c-1.304 1.153-2.996 1.729-5.076 1.729-2.081 0-3.772-.576-5.076-1.729-1.304-1.153-1.955-2.632-1.955-4.437zm13.46 51.17h-12.708v-40.68h12.708v40.68zM245.195 96.394c0-1.077-.564-1.942-1.692-2.594-1.128-.652-3.271-1.329-6.429-2.031-3.158-.701-5.765-1.622-7.82-2.763-2.056-1.141-3.622-2.525-4.7-4.155-1.078-1.629-1.617-3.496-1.617-5.602 0-3.734 1.542-6.811 4.625-9.23 3.083-2.418 7.118-3.628 12.106-3.628 5.364 0 9.675 1.216 12.934 3.647 3.258 2.432 4.888 5.627 4.888 9.587h-12.708c0-3.258-1.717-4.888-5.151-4.888-1.329 0-2.444.37-3.346 1.109s-1.354 1.661-1.354 2.763c0 1.128.551 2.042 1.654 2.745 1.103.702 2.863 1.278 5.282 1.729s4.543.99 6.373 1.616c6.116 2.105 9.174 5.879 9.174 11.317 0 3.71-1.648 6.729-4.944 9.062-3.296 2.33-7.563 3.496-12.802 3.496-3.484 0-6.592-.627-9.324-1.88s-4.863-2.957-6.392-5.113c-1.529-2.155-2.293-4.424-2.293-6.806h11.843c.05 1.881.677 3.253 1.88 4.117 1.203.865 2.745 1.297 4.625 1.297 1.729 0 3.027-.351 3.891-1.053.865-.699 1.297-1.615 1.297-2.742zM278.093 57.029v10.114h6.692v8.798h-6.692v18.611c0 1.528.275 2.594.827 3.195.551.602 1.642.902 3.271.902 1.253 0 2.306-.075 3.158-.226v9.062a23.38 23.38 0 01-7.144 1.09c-4.361 0-7.583-1.027-9.663-3.083-2.081-2.055-3.121-5.176-3.121-9.362V75.94h-5.188v-8.798h5.188V57.029h12.672zM309.449 108.575c-6.24 0-11.292-1.861-15.151-5.583-3.86-3.723-5.79-8.566-5.79-14.532v-1.053c0-4.16.771-7.832 2.312-11.016 1.542-3.183 3.791-5.646 6.749-7.388 2.958-1.742 6.466-2.613 10.527-2.613 5.715 0 10.227 1.773 13.535 5.32s4.963 8.49 4.963 14.832v4.925h-25.189c.451 2.281 1.441 4.074 2.971 5.377 1.527 1.304 3.508 1.955 5.939 1.955 4.01 0 7.145-1.403 9.4-4.211l5.789 6.843c-1.578 2.181-3.816 3.917-6.711 5.207-2.895 1.292-6.01 1.937-9.344 1.937zm-1.428-32.409c-3.711 0-5.916 2.457-6.617 7.369h12.783v-.978c.049-2.03-.465-3.603-1.541-4.719-1.078-1.114-2.621-1.672-4.625-1.672zM343.325 67.143l.414 4.775c2.807-3.685 6.679-5.527 11.617-5.527 4.235 0 7.4 1.266 9.493 3.797 2.093 2.532 3.177 6.342 3.253 11.43v26.205h-12.709v-25.68c0-2.055-.413-3.565-1.24-4.53-.827-.964-2.331-1.447-4.512-1.447-2.481 0-4.324.978-5.527 2.933v28.725h-12.67V67.143h11.881z"/>
  </g>
  <g fill="#EB743B" transform="matrix(0.506687, 0, 0, 0.506687, -4.24592, -3.964241)">
    <path d="M375.638 107.823V53.081h19.663c7.044 0 12.401 1.291 16.073 3.873 3.672 2.582 5.509 6.329 5.509 11.242 0 2.833-.652 5.251-1.955 7.256-1.304 2.005-3.222 3.484-5.753 4.437 2.857.752 5.051 2.156 6.579 4.21 1.529 2.056 2.294 4.562 2.294 7.52 0 5.364-1.698 9.394-5.095 12.088-3.396 2.695-8.428 4.067-15.096 4.117h-22.219zm13.196-31.92h6.881c2.882-.025 4.938-.553 6.166-1.584 1.228-1.03 1.842-2.551 1.842-4.562 0-2.313-.664-3.979-1.992-4.997-1.329-1.018-3.472-1.527-6.43-1.527h-6.467v12.67zm0 8.647v13.122h8.648c2.381 0 4.211-.545 5.488-1.636 1.279-1.09 1.918-2.625 1.918-4.605 0-4.562-2.269-6.855-6.805-6.881h-9.249zM449.328 78.61l-4.173-.301c-3.985 0-6.542 1.253-7.67 3.76v25.754h-12.671v-40.68h11.881l.414 5.226c2.13-3.985 5.101-5.978 8.91-5.978 1.354 0 2.532.15 3.535.451l-.226 11.768zM475.734 107.823c-.451-.827-.853-2.043-1.203-3.646-2.331 2.932-5.59 4.398-9.775 4.398-3.835 0-7.094-1.159-9.775-3.478-2.683-2.318-4.023-5.232-4.023-8.741 0-4.412 1.63-7.746 4.889-10.002 3.258-2.256 7.995-3.383 14.211-3.383h3.91v-2.154c0-3.752-1.616-5.629-4.85-5.629-3.008 0-4.512 1.486-4.512 4.458h-12.67c0-3.93 1.673-7.123 5.019-9.576 3.347-2.454 7.614-3.681 12.802-3.681 5.189 0 9.287 1.266 12.295 3.797 3.008 2.532 4.549 6.003 4.625 10.415v18.01c.05 3.734.626 6.592 1.729 8.572v.639h-12.672zm-7.933-8.271c1.58 0 2.889-.338 3.93-1.016 1.04-.676 1.785-1.44 2.236-2.293v-6.504h-3.684c-4.412 0-6.617 1.979-6.617 5.939 0 1.153.388 2.087 1.165 2.802.776.714 1.767 1.072 2.97 1.072zM493.594 56.653c0-1.805.651-3.283 1.955-4.437 1.303-1.153 2.995-1.729 5.076-1.729 2.08 0 3.771.577 5.075 1.729 1.303 1.153 1.955 2.632 1.955 4.437s-.652 3.284-1.955 4.437c-1.304 1.153-2.995 1.729-5.075 1.729-2.081 0-3.773-.576-5.076-1.729-1.304-1.153-1.955-2.632-1.955-4.437zm13.46 51.17h-12.708v-40.68h12.708v40.68zM526.492 67.143l.414 4.775c2.807-3.685 6.679-5.527 11.617-5.527 4.235 0 7.4 1.266 9.493 3.797 2.093 2.532 3.177 6.342 3.253 11.43v26.205H538.56v-25.68c0-2.055-.413-3.565-1.24-4.53-.827-.964-2.331-1.447-4.512-1.447-2.481 0-4.324.978-5.527 2.933v28.725h-12.67V67.143h11.881zM573.227 98.048h18.535v9.775H557.21v-7.068l18.047-23.837H558v-9.775h33.349v6.843l-18.122 24.062z"/>
  </g>
</svg>